  0
SECTION
  2
HEADER
  9
$ACADVER
  1
AC1009
  9
$EXTMAX
 10
2363.28149414063
 20
1167.28051757813
 30
0.0
  9
$EXTMIN
 10
10.0
 20
10.0
 30
0.0
  9
$INSUNITS
 70
     4
  9
$LUNITS
 70
     2
  9
$LUPREC
 70
     4
  9
$MEASUREMENT
 70
     1
  0
ENDSEC
  0
SECTION
  2
TABLES
  0
TABLE
  2
LAYER
 70
     1
  0
LAYER
  2
0
 70
     0
 62
     7
  6
Continuous
  0
LAYER
  2
Doors
 70
     0
 62
    70
  6
Continuous
  0
LAYER
  2
Sides
 70
     0
 62
    70
  6
Continuous
  0
LAYER
  2
Layer1
 70
     0
 62
    70
  6
Continuous
  0
ENDTAB
  0
TABLE
  2
APPID
 70
     1
  0
APPID
  2
ACAD
 70
     0
  0
ENDTAB
  0
ENDSEC
  0
SECTION
  2
ENTITIES
  0
POLYLINE
  8
Doors
 66
     1
 10
0.0
 20
0.0
 30
0.0
 70
     1
  0
VERTEX
  8
Doors
 10
553.877308940513
 20
656.17242799376
 42
0.0
  0
VERTEX
  8
Doors
 10
553.877308940513
 20
1165.42912351234
 42
0.0
  0
VERTEX
  8
Doors
 10
1183.87730894051
 20
1165.42912351234
 42
0.0
  0
VERTEX
  8
Doors
 10
1183.87730894051
 20
656.17242799376
 42
0.0
  0
SEQEND
  0
POLYLINE
  8
Doors
 66
     1
 10
0.0
 20
0.0
 30
0.0
 70
     1
  0
VERTEX
  8
Doors
 10
1200.91294458918
 20
658.02376807285
 42
0.0
  0
VERTEX
  8
Doors
 10
1200.91294458918
 20
1167.28046359142
 42
0.0
  0
VERTEX
  8
Doors
 10
1830.91294458918
 20
1167.28046359142
 42
0.0
  0
VERTEX
  8
Doors
 10
1830.91294458918
 20
658.02376807285
 42
0.0
  0
SEQEND
  0
POLYLINE
  8
Sides
 66
     1
 10
0.0
 20
0.0
 30
0.0
 70
     1
  0
VERTEX
  8
Sides
 10
10.0000000004016
 20
10.0
 42
0.0
  0
VERTEX
  8
Sides
 10
10.0000000000167
 20
585.0
 42
0.0
  0
VERTEX
  8
Sides
 10
16.0000000000168
 20
585.0
 42
0.0
  0
VERTEX
  8
Sides
 10
16.0000000000101
 20
595.0
 42
0.0
  0
VERTEX
  8
Sides
 10
10.0000000000101
 20
595.0
 42
0.0
  0
VERTEX
  8
Sides
 10
10.0
 20
610.0
 42
0.0
  0
VERTEX
  8
Sides
 10
820.0
 20
610.00000000054
 42
0.0
  0
VERTEX
  8
Sides
 10
820.722835641907
 20
609.98127650021
 42
0.0
  0
VERTEX
  8
Sides
 10
821.443732616792
 20
609.9251562162
 42
0.0
  0
VERTEX
  8
Sides
 10
822.160757457198
 20
609.83178966482
 42
0.0
  0
VERTEX
  8
Sides
 10
822.871987080848
 20
609.70142725797
 42
0.0
  0
VERTEX
  8
Sides
 10
823.575513948411
 20
609.53441863157
 42
0.0
  0
VERTEX
  8
Sides
 10
824.269451179583
 20
609.3312117078
 42
0.0
  0
VERTEX
  8
Sides
 10
824.951937613752
 20
609.09235149376
 42
0.0
  0
VERTEX
  8
Sides
 10
825.62114280169
 20
608.81847861976
 42
0.0
  0
VERTEX
  8
Sides
 10
826.275271914873
 20
608.51032762112
 42
0.0
  0
VERTEX
  8
Sides
 10
826.912570559263
 20
608.16872496813
 42
0.0
  0
VERTEX
  8
Sides
 10
827.531329480652
 20
607.79458684941
 42
0.0
  0
VERTEX
  8
Sides
 10
828.129889148923
 20
607.3889167147
 42
0.0
  0
VERTEX
  8
Sides
 10
828.706644208971
 20
606.95280258355
 42
0.0
  0
VERTEX
  8
Sides
 10
829.260047786305
 20
606.48741412724
 42
0.0
  0
VERTEX
  8
Sides
 10
829.788615635819
 20
605.99399953166
 42
0.0
  0
VERTEX
  8
Sides
 10
830.290930122577
 20
605.47388214965
 42
0.0
  0
VERTEX
  8
Sides
 10
830.765644023956
 20
604.92845695174
 42
0.0
  0
VERTEX
  8
Sides
 10
831.211484142934
 20
604.35918678478
 42
0.0
  0
VERTEX
  8
Sides
 10
831.62725472285
 20
603.76759844856
 42
0.0
  0
VERTEX
  8
Sides
 10
832.01184065445
 20
603.15527860086
 42
0.0
  0
VERTEX
  8
Sides
 10
832.364210466652
 20
602.523869502
 42
0.0
  0
VERTEX
  8
Sides
 10
832.683419092978
 20
601.87506461025
 42
0.0
  0
VERTEX
  8
Sides
 10
832.968610406251
 20
601.21060403993
 42
0.0
  0
VERTEX
  8
Sides
 10
833.219019514756
 20
600.53226989436
 42
0.0
  0
VERTEX
  8
Sides
 10
864.18087915702
 20
509.46773010676
 42
0.0
  0
VERTEX
  8
Sides
 10
864.451100985966
 20
508.7019765781
 42
0.0
  0
VERTEX
  8
Sides
 10
864.738867734893
 20
507.94264226326
 42
0.0
  0
VERTEX
  8
Sides
 10
865.04402708406
 20
507.19012909056
 42
0.0
  0
VERTEX
  8
Sides
 10
865.366417507532
 20
506.44483537776
 42
0.0
  0
VERTEX
  8
Sides
 10
865.70586835868
 20
505.70715562126
 42
0.0
  0
VERTEX
  8
Sides
 10
866.062199960504
 20
504.97748028728
 42
0.0
  0
VERTEX
  8
Sides
 10
866.435223700743
 20
504.25619560513
 42
0.0
  0
VERTEX
  8
Sides
 10
866.824742131708
 20
503.54368336284
 42
0.0
  0
VERTEX
  8
Sides
 10
867.230549074795
 20
502.84032070501
 42
0.0
  0
VERTEX
  8
Sides
 10
867.652429729619
 20
502.14647993324
 42
0.0
  0
VERTEX
  8
Sides
 10
868.090160787711
 20
501.46252830902
 42
0.0
  0
VERTEX
  8
Sides
 10
868.543510550718
 20
500.78882785937
 42
0.0
  0
VERTEX
  8
Sides
 10
869.012239053048
 20
500.12573518516
 42
0.0
  0
VERTEX
  8
Sides
 10
869.496098188884
 20
499.47360127242
 42
0.0
  0
VERTEX
  8
Sides
 10
869.994831843514
 20
498.8327713065
 42
0.0
  0
VERTEX
  8
Sides
 10
870.508176028893
 20
498.20358448939
 42
0.0
  0
VERTEX
  8
Sides
 10
871.035859023379
 20
497.58637386018
 42
0.0
  0
VERTEX
  8
Sides
 10
871.577601515561
 20
496.98146611874
 42
0.0
  0
VERTEX
  8
Sides
 10
872.133116752098
 20
496.38918145284
 42
0.0
  0
VERTEX
  8
Sides
 10
872.702110689509
 20
495.80983336864
 42
0.0
  0
VERTEX
  8
Sides
 10
873.284282149809
 20
495.24372852473
 42
0.0
  0
VERTEX
  8
Sides
 10
873.879322979931
 20
494.69116656986
 42
0.0
  0
VERTEX
  8
Sides
 10
874.486918214838
 20
494.15243998428
 42
0.0
  0
VERTEX
  8
Sides
 10
875.106746244233
 20
493.62783392498
 42
0.0
  0
VERTEX
  8
Sides
 10
1192.2931524278
 20
231.37216607639
 42
0.0
  0
VERTEX
  8
Sides
 10
1194.88855245644
 20
229.29898809877
 42
0.0
  0
VERTEX
  8
Sides
 10
1196.21212568671
 20
228.29554779234
 42
0.0
  0
VERTEX
  8
Sides
 10
1197.55244658671
 20
227.3145898781
 42
0.0
  0
VERTEX
  8
Sides
 10
1198.9091333098
 20
226.35639382308
 42
0.0
  0
VERTEX
  8
Sides
 10
1200.28179934687
 20
225.42123260962
 42
0.0
  0
VERTEX
  8
Sides
 10
1201.6700536364
 20
224.50937265761
 42
0.0
  0
VERTEX
  8
Sides
 10
1203.07350067593
 20
223.62107374862
 42
0.0
  0
VERTEX
  8
Sides
 10
1204.49174063469
 20
222.75658895185
 42
0.0
  0
VERTEX
  8
Sides
 10
1205.92436946754
 20
221.91616455206
 42
0.0
  0
VERTEX
  8
Sides
 10
1208.83115719483
 20
220.30844774118
 42
0.0
  0
VERTEX
  8
Sides
 10
1351.16344815792
 20
144.69441816716
 42
0.0
  0
VERTEX
  8
Sides
 10
1352.26133997719
 20
144.01335419132
 42
0.0
  0
VERTEX
  8
Sides
 10
1353.25855464067
 20
143.19190577482
 42
0.0
  0
VERTEX
  8
Sides
 10
1354.13726307087
 20
142.24475949218
 42
0.0
  0
VERTEX
  8
Sides
 10
1354.88175494859
 20
141.1888492545
 42
0.0
  0
VERTEX
  8
Sides
 10
1355.47871959573
 20
140.04305355017
 42
0.0
  0
VERTEX
  8
Sides
 10
1355.91748395531
 20
138.82785791868
 42
0.0
  0
VERTEX
  8
Sides
 10
1356.19020341366
 20
137.56498869225
 42
0.0
  0
VERTEX
  8
Sides
 10
1356.29200205336
 20
136.2770245534
 42
0.0
  0
VERTEX
  8
Sides
 10
1356.22105982914
 20
134.98699285346
 42
0.0
  0
VERTEX
  8
Sides
 10
1355.97864510825
 20
133.71795790945
 42
0.0
  0
VERTEX
  8
Sides
 10
1355.56909199345
 20
132.49260863999
 42
0.0
  0
VERTEX
  8
Sides
 10
1354.99972283417
 20
131.33285291291
 42
0.0
  0
VERTEX
  8
Sides
 10
1289.99722453529
 20
18.66185586134
 42
0.0
  0
VERTEX
  8
Sides
 10
1289.1857976508
 20
17.3873071944199
 42
0.0
  0
VERTEX
  8
Sides
 10
1288.26634223713
 20
16.1883536359101
 42
0.0
  0
VERTEX
  8
Sides
 10
1287.24586018576
 20
15.0741255281901
 42
0.0
  0
VERTEX
  8
Sides
 10
1286.13212273226
 20
14.0531080073499
 42
0.0
  0
VERTEX
  8
Sides
 10
1284.93361127626
 20
13.1330763866799
 42
0.0
  0
VERTEX
  8
Sides
 10
1283.65945279341
 20
12.3210369456499
 42
0.0
  0
VERTEX
  8
Sides
 10
1282.31935033111
 20
11.6231735752699
 42
0.0
  0
VERTEX
  8
Sides
 10
1280.92350911725
 20
11.04480068613
 42
0.0
  0
VERTEX
  8
Sides
 10
1279.48255884479
 20
10.5903227378399
 42
0.0
  0
VERTEX
  8
Sides
 10
1278.00747272386
 20
10.2632006978599
 42
0.0
  0
VERTEX
  8
Sides
 10
1276.50948391794
 20
10.0659256853899
 42
0.0
  0
VERTEX
  8
Sides
 10
1275.0000000004
 20
10.0000000008399
 42
0.0
  0
SEQEND
  0
POLYLINE
  8
Sides
 66
     1
 10
0.0
 20
0.0
 30
0.0
 70
     1
  0
VERTEX
  8
Sides
 10
2363.28147464588
 20
610.0
 42
0.0
  0
VERTEX
  8
Sides
 10
2363.28147464529
 20
35.0
 42
0.0
  0
VERTEX
  8
Sides
 10
2357.28147464529
 20
35.0
 42
0.0
  0
VERTEX
  8
Sides
 10
2357.28147464528
 20
25.0
 42
0.0
  0
VERTEX
  8
Sides
 10
2363.28147464528
 20
25.0
 42
0.0
  0
VERTEX
  8
Sides
 10
2363.28147464527
 20
10.0
 42
0.0
  0
VERTEX
  8
Sides
 10
1553.28147464527
 20
10.0000000008201
 42
0.0
  0
VERTEX
  8
Sides
 10
1552.55863900336
 20
10.0187235011601
 42
0.0
  0
VERTEX
  8
Sides
 10
1551.83774202847
 20
10.0748437851601
 42
0.0
  0
VERTEX
  8
Sides
 10
1551.12071718807
 20
10.1682103365501
 42
0.0
  0
VERTEX
  8
Sides
 10
1550.40948756442
 20
10.29857274339
 42
0.0
  0
VERTEX
  8
Sides
 10
1549.70596069686
 20
10.46558136979
 42
0.0
  0
VERTEX
  8
Sides
 10
1549.01202346568
 20
10.6687882935701
 42
0.0
  0
VERTEX
  8
Sides
 10
1548.32953703152
 20
10.90764850761
 42
0.0
  0
VERTEX
  8
Sides
 10
1547.66033184358
 20
11.1815213816101
 42
0.0
  0
VERTEX
  8
Sides
 10
1547.0062027304
 20
11.4896723802501
 42
0.0
  0
VERTEX
  8
Sides
 10
1546.36890408601
 20
11.83127503325
 42
0.0
  0
VERTEX
  8
Sides
 10
1545.75014516462
 20
12.2054131519701
 42
0.0
  0
VERTEX
  8
Sides
 10
1545.15158549635
 20
12.61108328668
 42
0.0
  0
VERTEX
  8
Sides
 10
1544.5748304363
 20
13.0471974178201
 42
0.0
  0
VERTEX
  8
Sides
 10
1544.02142685897
 20
13.5125858741401
 42
0.0
  0
VERTEX
  8
Sides
 10
1543.49285900945
 20
14.00600046972
 42
0.0
  0
VERTEX
  8
Sides
 10
1542.9905445227
 20
14.5261178517301
 42
0.0
  0
VERTEX
  8
Sides
 10
1542.51583062132
 20
15.07154304964
 42
0.0
  0
VERTEX
  8
Sides
 10
1542.06999050234
 20
15.6408132166
 42
0.0
  0
VERTEX
  8
Sides
 10
1541.65421992243
 20
16.23240155282
 42
0.0
  0
VERTEX
  8
Sides
 10
1541.26963399083
 20
16.84472140052
 42
0.0
  0
VERTEX
  8
Sides
 10
1540.91726417863
 20
17.4761304993801
 42
0.0
  0
VERTEX
  8
Sides
 10
1540.5980555523
 20
18.1249353911301
 42
0.0
  0
VERTEX
  8
Sides
 10
1540.31286423903
 20
18.7893959614501
 42
0.0
  0
VERTEX
  8
Sides
 10
1540.06245513053
 20
19.4677301070301
 42
0.0
  0
VERTEX
  8
Sides
 10
1509.10059548842
 20
110.53226989468
 42
0.0
  0
VERTEX
  8
Sides
 10
1508.83037365947
 20
111.29802342333
 42
0.0
  0
VERTEX
  8
Sides
 10
1508.54260691055
 20
112.05735773817
 42
0.0
  0
VERTEX
  8
Sides
 10
1508.23744756138
 20
112.80987091088
 42
0.0
  0
VERTEX
  8
Sides
 10
1507.91505713791
 20
113.55516462368
 42
0.0
  0
VERTEX
  8
Sides
 10
1507.57560628676
 20
114.29284438018
 42
0.0
  0
VERTEX
  8
Sides
 10
1507.21927468494
 20
115.02251971416
 42
0.0
  0
VERTEX
  8
Sides
 10
1506.8462509447
 20
115.74380439631
 42
0.0
  0
VERTEX
  8
Sides
 10
1506.45673251374
 20
116.45631663861
 42
0.0
  0
VERTEX
  8
Sides
 10
1506.05092557065
 20
117.15967929643
 42
0.0
  0
VERTEX
  8
Sides
 10
1505.62904491583
 20
117.8535200682
 42
0.0
  0
VERTEX
  8
Sides
 10
1505.19131385774
 20
118.53747169242
 42
0.0
  0
VERTEX
  8
Sides
 10
1504.73796409473
 20
119.21117214208
 42
0.0
  0
VERTEX
  8
Sides
 10
1504.2692355924
 20
119.87426481628
 42
0.0
  0
VERTEX
  8
Sides
 10
1503.78537645657
 20
120.52639872903
 42
0.0
  0
VERTEX
  8
Sides
 10
1503.28664280194
 20
121.16722869495
 42
0.0
  0
VERTEX
  8
Sides
 10
1502.77329861656
 20
121.79641551206
 42
0.0
  0
VERTEX
  8
Sides
 10
1502.24561562208
 20
122.41362614127
 42
0.0
  0
VERTEX
  8
Sides
 10
1501.7038731299
 20
123.01853388271
 42
0.0
  0
VERTEX
  8
Sides
 10
1501.14835789336
 20
123.61081854861
 42
0.0
  0
VERTEX
  8
Sides
 10
1500.57936395595
 20
124.19016663282
 42
0.0
  0
VERTEX
  8
Sides
 10
1499.99719249565
 20
124.75627147673
 42
0.0
  0
VERTEX
  8
Sides
 10
1499.40215166553
 20
125.3088334316
 42
0.0
  0
VERTEX
  8
Sides
 10
1498.79455643062
 20
125.84756001717
 42
0.0
  0
VERTEX
  8
Sides
 10
1498.17472840123
 20
126.37216607648
 42
0.0
  0
VERTEX
  8
Sides
 10
1180.98832221811
 20
388.62783392561
 42
0.0
  0
VERTEX
  8
Sides
 10
1178.39292218947
 20
390.70101190322
 42
0.0
  0
VERTEX
  8
Sides
 10
1177.0693489592
 20
391.70445220966
 42
0.0
  0
VERTEX
  8
Sides
 10
1175.7290280592
 20
392.6854101239
 42
0.0
  0
VERTEX
  8
Sides
 10
1174.37234133611
 20
393.64360617892
 42
0.0
  0
VERTEX
  8
Sides
 10
1172.99967529905
 20
394.57876739239
 42
0.0
  0
VERTEX
  8
Sides
 10
1171.61142100952
 20
395.4906273444
 42
0.0
  0
VERTEX
  8
Sides
 10
1170.20797396999
 20
396.37892625339
 42
0.0
  0
VERTEX
  8
Sides
 10
1168.78973401123
 20
397.24341105016
 42
0.0
  0
VERTEX
  8
Sides
 10
1167.35710517838
 20
398.08383544995
 42
0.0
  0
VERTEX
  8
Sides
 10
1164.45031745109
 20
399.69155226084
 42
0.0
  0
VERTEX
  8
Sides
 10
1022.11802648813
 20
475.3055818351
 42
0.0
  0
VERTEX
  8
Sides
 10
1021.02013466886
 20
475.98664581095
 42
0.0
  0
VERTEX
  8
Sides
 10
1020.02292000538
 20
476.80809422745
 42
0.0
  0
VERTEX
  8
Sides
 10
1019.14421157518
 20
477.75524051009
 42
0.0
  0
VERTEX
  8
Sides
 10
1018.39971969747
 20
478.81115074776
 42
0.0
  0
VERTEX
  8
Sides
 10
1017.80275505033
 20
479.9569464521
 42
0.0
  0
VERTEX
  8
Sides
 10
1017.36399069075
 20
481.17214208359
 42
0.0
  0
VERTEX
  8
Sides
 10
1017.09127123241
 20
482.43501131002
 42
0.0
  0
VERTEX
  8
Sides
 10
1016.98947259271
 20
483.72297544887
 42
0.0
  0
VERTEX
  8
Sides
 10
1017.06041481692
 20
485.01300714881
 42
0.0
  0
VERTEX
  8
Sides
 10
1017.30282953782
 20
486.28204209281
 42
0.0
  0
VERTEX
  8
Sides
 10
1017.71238265262
 20
487.50739136228
 42
0.0
  0
VERTEX
  8
Sides
 10
1018.2817518119
 20
488.66714708935
 42
0.0
  0
VERTEX
  8
Sides
 10
1083.28425011097
 20
601.33814414082
 42
0.0
  0
VERTEX
  8
Sides
 10
1084.09567699546
 20
602.61269280773
 42
0.0
  0
VERTEX
  8
Sides
 10
1085.01513240914
 20
603.81164636624
 42
0.0
  0
VERTEX
  8
Sides
 10
1086.03561446051
 20
604.92587447396
 42
0.0
  0
VERTEX
  8
Sides
 10
1087.14935191401
 20
605.9468919948
 42
0.0
  0
VERTEX
  8
Sides
 10
1088.34786337001
 20
606.86692361547
 42
0.0
  0
VERTEX
  8
Sides
 10
1089.62202185286
 20
607.67896305649
 42
0.0
  0
VERTEX
  8
Sides
 10
1090.96212431517
 20
608.37682642688
 42
0.0
  0
VERTEX
  8
Sides
 10
1092.35796552903
 20
608.95519931601
 42
0.0
  0
VERTEX
  8
Sides
 10
1093.79891580149
 20
609.4096772643
 42
0.0
  0
VERTEX
  8
Sides
 10
1095.27400192242
 20
609.73679930428
 42
0.0
  0
VERTEX
  8
Sides
 10
1096.77199072834
 20
609.93407431674
 42
0.0
  0
VERTEX
  8
Sides
 10
1098.28147464588
 20
610.00000000129
 42
0.0
  0
SEQEND
  0
POLYLINE
  8
Sides
 66
     1
 10
0.0
 20
0.0
 30
0.0
 70
     1
  0
VERTEX
  8
Sides
 10
36.000000000017
 20
585.00000000001
 42
0.0
  0
VERTEX
  8
Sides
 10
42.000000000017
 20
585.00000000002
 42
0.0
  0
VERTEX
  8
Sides
 10
42.0000000000104
 20
595.00000000002
 42
0.0
  0
VERTEX
  8
Sides
 10
36.0000000000103
 20
595.00000000001
 42
0.0
  0
SEQEND
  0
POLYLINE
  8
Sides
 66
     1
 10
0.0
 20
0.0
 30
0.0
 70
     1
  0
VERTEX
  8
Sides
 10
78.000000000011
 20
595.00000000004
 42
0.0
  0
VERTEX
  8
Sides
 10
84.0000000000118
 20
595.00000000005
 42
0.0
  0
VERTEX
  8
Sides
 10
84.0000000000178
 20
585.00000000004
 42
0.0
  0
VERTEX
  8
Sides
 10
78.0000000000173
 20
585.00000000004
 42
0.0
  0
SEQEND
  0
POLYLINE
  8
Sides
 66
     1
 10
0.0
 20
0.0
 30
0.0
 70
     1
  0
VERTEX
  8
Sides
 10
110.000000000017
 20
585.00000000006
 42
0.0
  0
VERTEX
  8
Sides
 10
104.000000000018
 20
585.00000000006
 42
0.0
  0
VERTEX
  8
Sides
 10
104.000000000012
 20
595.00000000006
 42
0.0
  0
VERTEX
  8
Sides
 10
110.00000000001
 20
595.00000000006
 42
0.0
  0
SEQEND
  0
POLYLINE
  8
Sides
 66
     1
 10
0.0
 20
0.0
 30
0.0
 70
     1
  0
VERTEX
  8
Sides
 10
100.000000000385
 20
25.00000000006
 42
0.0
  0
VERTEX
  8
Sides
 10
94.0000000003842
 20
25.00000000005
 42
0.0
  0
VERTEX
  8
Sides
 10
94.0000000003772
 20
35.00000000005
 42
0.0
  0
VERTEX
  8
Sides
 10
100.000000000385
 20
35.00000000006
 42
0.0
  0
SEQEND
  0
POLYLINE
  8
Sides
 66
     1
 10
0.0
 20
0.0
 30
0.0
 70
     1
  0
VERTEX
  8
Sides
 10
126.000000000385
 20
25.00000000007
 42
0.0
  0
VERTEX
  8
Sides
 10
126.000000000379
 20
35.00000000008
 42
0.0
  0
VERTEX
  8
Sides
 10
120.000000000378
 20
35.00000000007
 42
0.0
  0
VERTEX
  8
Sides
 10
120.000000000386
 20
25.00000000007
 42
0.0
  0
SEQEND
  0
POLYLINE
  8
Sides
 66
     1
 10
0.0
 20
0.0
 30
0.0
 70
     1
  0
VERTEX
  8
Sides
 10
400.000000000385
 20
25.0000000002599
 42
0.0
  0
VERTEX
  8
Sides
 10
394.000000000384
 20
25.0000000002499
 42
0.0
  0
VERTEX
  8
Sides
 10
394.000000000377
 20
35.0000000002499
 42
0.0
  0
VERTEX
  8
Sides
 10
400.000000000378
 20
35.0000000002599
 42
0.0
  0
SEQEND
  0
POLYLINE
  8
Sides
 66
     1
 10
0.0
 20
0.0
 30
0.0
 70
     1
  0
VERTEX
  8
Sides
 10
420.000000000378
 20
35.0000000002699
 42
0.0
  0
VERTEX
  8
Sides
 10
426.000000000378
 20
35.0000000002799
 42
0.0
  0
VERTEX
  8
Sides
 10
426.000000000385
 20
25.0000000002699
 42
0.0
  0
VERTEX
  8
Sides
 10
420.000000000385
 20
25.0000000002699
 42
0.0
  0
SEQEND
  0
POLYLINE
  8
Sides
 66
     1
 10
0.0
 20
0.0
 30
0.0
 70
     1
  0
VERTEX
  8
Sides
 10
623.141264976828
 20
25.00000000041
 42
0.0
  0
VERTEX
  8
Sides
 10
617.141264976827
 20
25.0000000004
 42
0.0
  0
VERTEX
  8
Sides
 10
617.14126497682
 20
35.0000000004
 42
0.0
  0
VERTEX
  8
Sides
 10
623.141264976821
 20
35.00000000041
 42
0.0
  0
SEQEND
  0
POLYLINE
  8
Sides
 66
     1
 10
0.0
 20
0.0
 30
0.0
 70
     1
  0
VERTEX
  8
Sides
 10
649.141264976828
 20
25.00000000042
 42
0.0
  0
VERTEX
  8
Sides
 10
649.141264976821
 20
35.00000000042
 42
0.0
  0
VERTEX
  8
Sides
 10
643.141264976821
 20
35.00000000042
 42
0.0
  0
VERTEX
  8
Sides
 10
643.141264976828
 20
25.00000000042
 42
0.0
  0
SEQEND
  0
POLYLINE
  8
Sides
 66
     1
 10
0.0
 20
0.0
 30
0.0
 70
     1
  0
VERTEX
  8
Sides
 10
846.282529953271
 20
25.00000000056
 42
0.0
  0
VERTEX
  8
Sides
 10
840.28252995327
 20
25.00000000055
 42
0.0
  0
VERTEX
  8
Sides
 10
840.282529953263
 20
35.00000000055
 42
0.0
  0
VERTEX
  8
Sides
 10
846.282529953263
 20
35.00000000056
 42
0.0
  0
SEQEND
  0
POLYLINE
  8
Sides
 66
     1
 10
0.0
 20
0.0
 30
0.0
 70
     1
  0
VERTEX
  8
Sides
 10
866.282529953264
 20
35.00000000057
 42
0.0
  0
VERTEX
  8
Sides
 10
872.282529953264
 20
35.00000000057
 42
0.0
  0
VERTEX
  8
Sides
 10
872.28252995327
 20
25.00000000057
 42
0.0
  0
VERTEX
  8
Sides
 10
866.282529953271
 20
25.00000000057
 42
0.0
  0
SEQEND
  0
POLYLINE
  8
Sides
 66
     1
 10
0.0
 20
0.0
 30
0.0
 70
     1
  0
VERTEX
  8
Sides
 10
619.256695518586
 20
595.0000000004
 42
0.0
  0
VERTEX
  8
Sides
 10
625.256695518586
 20
595.00000000041
 42
0.0
  0
VERTEX
  8
Sides
 10
625.256695518593
 20
585.00000000041
 42
0.0
  0
VERTEX
  8
Sides
 10
619.256695518593
 20
585.0000000004
 42
0.0
  0
SEQEND
  0
POLYLINE
  8
Sides
 66
     1
 10
0.0
 20
0.0
 30
0.0
 70
     1
  0
VERTEX
  8
Sides
 10
651.256695518593
 20
585.00000000042
 42
0.0
  0
VERTEX
  8
Sides
 10
645.256695518593
 20
585.00000000042
 42
0.0
  0
VERTEX
  8
Sides
 10
645.256695518586
 20
595.00000000042
 42
0.0
  0
VERTEX
  8
Sides
 10
651.256695518586
 20
595.00000000042
 42
0.0
  0
SEQEND
  0
POLYLINE
  8
Sides
 66
     1
 10
0.0
 20
0.0
 30
0.0
 70
     1
  0
VERTEX
  8
Sides
 10
687.256695518587
 20
595.00000000045
 42
0.0
  0
VERTEX
  8
Sides
 10
693.256695518588
 20
595.00000000045
 42
0.0
  0
VERTEX
  8
Sides
 10
693.256695518594
 20
585.00000000045
 42
0.0
  0
VERTEX
  8
Sides
 10
687.256695518593
 20
585.00000000045
 42
0.0
  0
SEQEND
  0
POLYLINE
  8
Sides
 66
     1
 10
0.0
 20
0.0
 30
0.0
 70
     1
  0
VERTEX
  8
Sides
 10
719.256695518593
 20
585.00000000047
 42
0.0
  0
VERTEX
  8
Sides
 10
713.256695518594
 20
585.00000000047
 42
0.0
  0
VERTEX
  8
Sides
 10
713.256695518588
 20
595.00000000047
 42
0.0
  0
VERTEX
  8
Sides
 10
719.256695518586
 20
595.00000000047
 42
0.0
  0
SEQEND
  0
POLYLINE
  8
Sides
 66
     1
 10
0.0
 20
0.0
 30
0.0
 70
     1
  0
VERTEX
  8
Sides
 10
858.471950250611
 20
490.41349490582
 42
0.0
  0
VERTEX
  8
Sides
 10
853.890169669666
 20
486.53957096387
 42
0.0
  0
VERTEX
  8
Sides
 10
847.433629766407
 20
494.17587193211
 42
0.0
  0
VERTEX
  8
Sides
 10
852.015410347351
 20
498.04979587407
 42
0.0
  0
SEQEND
  0
POLYLINE
  8
Sides
 66
     1
 10
0.0
 20
0.0
 30
0.0
 70
     1
  0
VERTEX
  8
Sides
 10
827.57924724897
 20
477.38886818363
 42
0.0
  0
VERTEX
  8
Sides
 10
832.161027829918
 20
481.26279212559
 42
0.0
  0
VERTEX
  8
Sides
 10
838.617567733178
 20
473.62649115735
 42
0.0
  0
VERTEX
  8
Sides
 10
834.03578715223
 20
469.75256721539
 42
0.0
  0
SEQEND
  0
POLYLINE
  8
Sides
 66
     1
 10
0.0
 20
0.0
 30
0.0
 70
     1
  0
VERTEX
  8
Sides
 10
806.545103666552
 20
446.50902356365
 42
0.0
  0
VERTEX
  8
Sides
 10
801.963323085605
 20
442.6350996217
 42
0.0
  0
VERTEX
  8
Sides
 10
795.506783182345
 20
450.27140058994
 42
0.0
  0
VERTEX
  8
Sides
 10
800.088563763291
 20
454.1453245319
 42
0.0
  0
SEQEND
  0
POLYLINE
  8
Sides
 66
     1
 10
0.0
 20
0.0
 30
0.0
 70
     1
  0
VERTEX
  8
Sides
 10
775.652400664908
 20
433.48439684147
 42
0.0
  0
VERTEX
  8
Sides
 10
780.234181245856
 20
437.35832078342
 42
0.0
  0
VERTEX
  8
Sides
 10
786.690721149116
 20
429.72201981517
 42
0.0
  0
VERTEX
  8
Sides
 10
782.108940568169
 20
425.84809587322
 42
0.0
  0
SEQEND
  0
POLYLINE
  8
Sides
 66
     1
 10
0.0
 20
0.0
 30
0.0
 70
     1
  0
VERTEX
  8
Sides
 10
795.556127449347
 20
425.43196490506
 42
0.0
  0
VERTEX
  8
Sides
 10
799.430051391304
 20
420.85018432412
 42
0.0
  0
VERTEX
  8
Sides
 10
791.79375042306
 20
414.39364442086
 42
0.0
  0
VERTEX
  8
Sides
 10
787.919826481103
 20
418.9754250018
 42
0.0
  0
SEQEND
  0
POLYLINE
  8
Sides
 66
     1
 10
0.0
 20
0.0
 30
0.0
 70
     1
  0
VERTEX
  8
Sides
 10
812.343131197825
 20
405.57758238763
 42
0.0
  0
VERTEX
  8
Sides
 10
816.217055139782
 20
400.99580180668
 42
0.0
  0
VERTEX
  8
Sides
 10
808.580754171536
 20
394.53926190342
 42
0.0
  0
VERTEX
  8
Sides
 10
804.706830229581
 20
399.12104248437
 42
0.0
  0
SEQEND
  0
POLYLINE
  8
Sides
 66
     1
 10
0.0
 20
0.0
 30
0.0
 70
     1
  0
VERTEX
  8
Sides
 10
874.771484571652
 20
331.74210665956
 42
0.0
  0
VERTEX
  8
Sides
 10
878.645408513609
 20
327.16032607862
 42
0.0
  0
VERTEX
  8
Sides
 10
871.009107545364
 20
320.70378617536
 42
0.0
  0
VERTEX
  8
Sides
 10
867.135183603407
 20
325.2855667563
 42
0.0
  0
SEQEND
  0
POLYLINE
  8
Sides
 66
     1
 10
0.0
 20
0.0
 30
0.0
 70
     1
  0
VERTEX
  8
Sides
 10
891.558488320129
 20
311.88772414213
 42
0.0
  0
VERTEX
  8
Sides
 10
895.432412262086
 20
307.30594356118
 42
0.0
  0
VERTEX
  8
Sides
 10
887.796111293839
 20
300.84940365792
 42
0.0
  0
VERTEX
  8
Sides
 10
883.922187351885
 20
305.43118423887
 42
0.0
  0
SEQEND
  0
POLYLINE
  8
Sides
 66
     1
 10
0.0
 20
0.0
 30
0.0
 70
     1
  0
VERTEX
  8
Sides
 10
964.628936142637
 20
209.97742213581
 42
0.0
  0
VERTEX
  8
Sides
 10
960.75501220068
 20
214.55920271676
 42
0.0
  0
VERTEX
  8
Sides
 10
968.391313168925
 20
221.01574262002
 42
0.0
  0
VERTEX
  8
Sides
 10
972.265237110882
 20
216.43396203908
 42
0.0
  0
SEQEND
  0
POLYLINE
  8
Sides
 66
     1
 10
0.0
 20
0.0
 30
0.0
 70
     1
  0
VERTEX
  8
Sides
 10
981.415939891113
 20
190.12303961838
 42
0.0
  0
VERTEX
  8
Sides
 10
977.542015949159
 20
194.70482019933
 42
0.0
  0
VERTEX
  8
Sides
 10
985.178316917404
 20
201.16136010259
 42
0.0
  0
VERTEX
  8
Sides
 10
989.052240859359
 20
196.57957952164
 42
0.0
  0
SEQEND
  0
POLYLINE
  8
Sides
 66
     1
 10
0.0
 20
0.0
 30
0.0
 70
     1
  0
VERTEX
  8
Sides
 10
1047.60667029122
 20
127.32588437452
 42
0.0
  0
VERTEX
  8
Sides
 10
1051.48059423318
 20
122.74410379358
 42
0.0
  0
VERTEX
  8
Sides
 10
1043.84429326494
 20
116.28756389032
 42
0.0
  0
VERTEX
  8
Sides
 10
1039.97036932298
 20
120.86934447126
 42
0.0
  0
SEQEND
  0
POLYLINE
  8
Sides
 66
     1
 10
0.0
 20
0.0
 30
0.0
 70
     1
  0
VERTEX
  8
Sides
 10
1060.63129701341
 20
96.43318137288
 42
0.0
  0
VERTEX
  8
Sides
 10
1056.75737307146
 20
101.01496195383
 42
0.0
  0
VERTEX
  8
Sides
 10
1064.3936740397
 20
107.47150185709
 42
0.0
  0
VERTEX
  8
Sides
 10
1068.26759798166
 20
102.88972127614
 42
0.0
  0
SEQEND
  0
POLYLINE
  8
Sides
 66
     1
 10
0.0
 20
0.0
 30
0.0
 70
     1
  0
VERTEX
  8
Sides
 10
1060.98313833189
 20
96.0170504047101
 42
0.0
  0
VERTEX
  8
Sides
 10
1066.98313833189
 20
96.0170504047201
 42
0.0
  0
VERTEX
  8
Sides
 10
1066.9831383319
 20
86.0170504047101
 42
0.0
  0
VERTEX
  8
Sides
 10
1060.9831383319
 20
86.0170504047101
 42
0.0
  0
SEQEND
  0
POLYLINE
  8
Sides
 66
     1
 10
0.0
 20
0.0
 30
0.0
 70
     1
  0
VERTEX
  8
Sides
 10
1086.98313833189
 20
96.0170504047301
 42
0.0
  0
VERTEX
  8
Sides
 10
1092.98313833189
 20
96.0170504047301
 42
0.0
  0
VERTEX
  8
Sides
 10
1092.98313833189
 20
86.0170504047301
 42
0.0
  0
VERTEX
  8
Sides
 10
1086.9831383319
 20
86.0170504047301
 42
0.0
  0
SEQEND
  0
POLYLINE
  8
Sides
 66
     1
 10
0.0
 20
0.0
 30
0.0
 70
     1
  0
VERTEX
  8
Sides
 10
1155.9831383319
 20
86.0170504047699
 42
0.0
  0
VERTEX
  8
Sides
 10
1149.98313833189
 20
86.0170504047699
 42
0.0
  0
VERTEX
  8
Sides
 10
1149.98313833189
 20
96.0170504047699
 42
0.0
  0
VERTEX
  8
Sides
 10
1155.98313833189
 20
96.0170504047799
 42
0.0
  0
SEQEND
  0
POLYLINE
  8
Sides
 66
     1
 10
0.0
 20
0.0
 30
0.0
 70
     1
  0
VERTEX
  8
Sides
 10
1175.98313833189
 20
96.0170504047899
 42
0.0
  0
VERTEX
  8
Sides
 10
1181.98313833189
 20
96.0170504047899
 42
0.0
  0
VERTEX
  8
Sides
 10
1181.98313833189
 20
86.0170504047899
 42
0.0
  0
VERTEX
  8
Sides
 10
1175.9831383319
 20
86.0170504047899
 42
0.0
  0
SEQEND
  0
POLYLINE
  8
Sides
 66
     1
 10
0.0
 20
0.0
 30
0.0
 70
     1
  0
VERTEX
  8
Sides
 10
1146.28252995327
 20
25.0000000007599
 42
0.0
  0
VERTEX
  8
Sides
 10
1140.28252995327
 20
25.0000000007499
 42
0.0
  0
VERTEX
  8
Sides
 10
1140.28252995326
 20
35.0000000007499
 42
0.0
  0
VERTEX
  8
Sides
 10
1146.28252995326
 20
35.0000000007599
 42
0.0
  0
SEQEND
  0
POLYLINE
  8
Sides
 66
     1
 10
0.0
 20
0.0
 30
0.0
 70
     1
  0
VERTEX
  8
Sides
 10
1166.28252995326
 20
35.0000000007699
 42
0.0
  0
VERTEX
  8
Sides
 10
1172.28252995326
 20
35.0000000007699
 42
0.0
  0
VERTEX
  8
Sides
 10
1172.28252995327
 20
25.0000000007699
 42
0.0
  0
VERTEX
  8
Sides
 10
1166.28252995327
 20
25.0000000007699
 42
0.0
  0
SEQEND
  0
POLYLINE
  8
Sides
 66
     1
 10
0.0
 20
0.0
 30
0.0
 70
     1
  0
VERTEX
  8
Sides
 10
1206.79267222992
 20
61.0999193576999
 42
0.0
  0
VERTEX
  8
Sides
 10
1206.79267222992
 20
67.0999193576999
 42
0.0
  0
VERTEX
  8
Sides
 10
1196.79267222992
 20
67.0999193576899
 42
0.0
  0
VERTEX
  8
Sides
 10
1196.79267222992
 20
66.3737109096501
 42
0.0
  0
VERTEX
  8
Sides
 10
1196.79267222992
 20
61.0999193576899
 42
0.0
  0
SEQEND
  0
POLYLINE
  8
Sides
 66
     1
 10
0.0
 20
0.0
 30
0.0
 70
     1
  0
VERTEX
  8
Sides
 10
1196.79267222991
 20
87.0999193576899
 42
0.0
  0
VERTEX
  8
Sides
 10
1196.7926722299
 20
93.0999193576899
 42
0.0
  0
VERTEX
  8
Sides
 10
1206.7926722299
 20
93.0999193576999
 42
0.0
  0
VERTEX
  8
Sides
 10
1206.79267222991
 20
87.0999193576899
 42
0.0
  0
SEQEND
  0
POLYLINE
  8
Sides
 66
     1
 10
0.0
 20
0.0
 30
0.0
 70
     1
  0
VERTEX
  8
Sides
 10
1218.92539875339
 20
54.7013722935399
 42
0.0
  0
VERTEX
  8
Sides
 10
1213.61821720239
 20
57.50026921637
 42
0.0
  0
VERTEX
  8
Sides
 10
1218.28304540711
 20
66.3455718013799
 42
0.0
  0
VERTEX
  8
Sides
 10
1223.59022695812
 20
63.54667487854
 42
0.0
  0
SEQEND
  0
POLYLINE
  8
Sides
 66
     1
 10
0.0
 20
0.0
 30
0.0
 70
     1
  0
VERTEX
  8
Sides
 10
1196.79267222985
 20
164.29991935769
 42
0.0
  0
VERTEX
  8
Sides
 10
1196.79267222985
 20
170.29991935769
 42
0.0
  0
VERTEX
  8
Sides
 10
1206.79267222985
 20
170.2999193577
 42
0.0
  0
VERTEX
  8
Sides
 10
1206.79267222985
 20
164.2999193577
 42
0.0
  0
SEQEND
  0
POLYLINE
  8
Sides
 66
     1
 10
0.0
 20
0.0
 30
0.0
 70
     1
  0
VERTEX
  8
Sides
 10
1196.79267222984
 20
190.29991935769
 42
0.0
  0
VERTEX
  8
Sides
 10
1196.79267222983
 20
196.29991935769
 42
0.0
  0
VERTEX
  8
Sides
 10
1206.79267222983
 20
196.2999193577
 42
0.0
  0
VERTEX
  8
Sides
 10
1206.79267222984
 20
190.2999193577
 42
0.0
  0
SEQEND
  0
POLYLINE
  8
Sides
 66
     1
 10
0.0
 20
0.0
 30
0.0
 70
     1
  0
VERTEX
  8
Sides
 10
1324.55480234133
 20
108.57831943156
 42
0.0
  0
VERTEX
  8
Sides
 10
1321.5564676204
 20
103.38120591526
 42
0.0
  0
VERTEX
  8
Sides
 10
1312.89461175991
 20
108.37843045015
 42
0.0
  0
VERTEX
  8
Sides
 10
1315.89294648084
 20
113.57554396645
 42
0.0
  0
SEQEND
  0
POLYLINE
  8
Sides
 66
     1
 10
0.0
 20
0.0
 30
0.0
 70
     1
  0
VERTEX
  8
Sides
 10
1292.07284286455
 20
52.2762563383699
 42
0.0
  0
VERTEX
  8
Sides
 10
1289.07450814362
 20
47.07914282208
 42
0.0
  0
VERTEX
  8
Sides
 10
1280.41265228312
 20
52.07636735697
 42
0.0
  0
VERTEX
  8
Sides
 10
1283.41098700406
 20
57.27348087326
 42
0.0
  0
SEQEND
  0
POLYLINE
  8
Sides
 66
     1
 10
0.0
 20
0.0
 30
0.0
 70
     1
  0
VERTEX
  8
Sides
 10
1256.07566961043
 20
35.1090938336799
 42
0.0
  0
VERTEX
  8
Sides
 10
1250.76848805943
 20
37.9079907565199
 42
0.0
  0
VERTEX
  8
Sides
 10
1255.43331626415
 20
46.75329334152
 42
0.0
  0
VERTEX
  8
Sides
 10
1260.74049781516
 20
43.9543964186901
 42
0.0
  0
SEQEND
  0
POLYLINE
  8
Sides
 66
     1
 10
0.0
 20
0.0
 30
0.0
 70
     1
  0
VERTEX
  8
Sides
 10
1267.41986849241
 20
29.5555421197
 42
0.0
  0
VERTEX
  8
Sides
 10
1276.0817243529
 20
24.5583175848099
 42
0.0
  0
VERTEX
  8
Sides
 10
1279.08005907383
 20
29.7554311010999
 42
0.0
  0
VERTEX
  8
Sides
 10
1270.41820321334
 20
34.7526556359899
 42
0.0
  0
SEQEND
  0
POLYLINE
  8
Sides
 66
     1
 10
0.0
 20
0.0
 30
0.0
 70
     1
  0
VERTEX
  8
Sides
 10
1325.88739555063
 20
130.89925568742
 42
0.0
  0
VERTEX
  8
Sides
 10
1328.88573027156
 20
136.09636920372
 42
0.0
  0
VERTEX
  8
Sides
 10
1337.54758613205
 20
131.09914466883
 42
0.0
  0
VERTEX
  8
Sides
 10
1334.54925141111
 20
125.90203115253
 42
0.0
  0
SEQEND
  0
POLYLINE
  8
Sides
 66
     1
 10
0.0
 20
0.0
 30
0.0
 70
     1
  0
VERTEX
  8
Sides
 10
822.068522528937
 20
555.06375634982
 42
0.0
  0
VERTEX
  8
Sides
 10
831.536252635124
 20
558.28277586458
 42
0.0
  0
VERTEX
  8
Sides
 10
833.46766434398
 20
552.60213780087
 42
0.0
  0
VERTEX
  8
Sides
 10
823.999934237791
 20
549.38311828611
 42
0.0
  0
SEQEND
  0
POLYLINE
  8
Sides
 66
     1
 10
0.0
 20
0.0
 30
0.0
 70
     1
  0
VERTEX
  8
Sides
 10
775.573461391256
 20
595.00000000051
 42
0.0
  0
VERTEX
  8
Sides
 10
775.573461391262
 20
585.00000000051
 42
0.0
  0
VERTEX
  8
Sides
 10
781.573461391262
 20
585.00000000051
 42
0.0
  0
VERTEX
  8
Sides
 10
781.573461391255
 20
595.00000000052
 42
0.0
  0
SEQEND
  0
POLYLINE
  8
Sides
 66
     1
 10
0.0
 20
0.0
 30
0.0
 70
     1
  0
VERTEX
  8
Sides
 10
830.437973267304
 20
530.44765807373
 42
0.0
  0
VERTEX
  8
Sides
 10
839.905703373491
 20
533.66667758849
 42
0.0
  0
VERTEX
  8
Sides
 10
841.837115082348
 20
527.98603952478
 42
0.0
  0
VERTEX
  8
Sides
 10
832.369384976157
 20
524.76702001002
 42
0.0
  0
SEQEND
  0
POLYLINE
  8
Sides
 66
     1
 10
0.0
 20
0.0
 30
0.0
 70
     1
  0
VERTEX
  8
Sides
 10
755.573461391262
 20
585.0000000005
 42
0.0
  0
VERTEX
  8
Sides
 10
755.573461391256
 20
595.0000000005
 42
0.0
  0
VERTEX
  8
Sides
 10
749.573461391255
 20
595.00000000049
 42
0.0
  0
VERTEX
  8
Sides
 10
749.573461391261
 20
585.00000000049
 42
0.0
  0
SEQEND
  0
POLYLINE
  8
Sides
 66
     1
 10
0.0
 20
0.0
 30
0.0
 70
     1
  0
VERTEX
  8
Sides
 10
1047.39407909545
 20
489.10074431479
 42
0.0
  0
VERTEX
  8
Sides
 10
1044.3957443745
 20
483.90363079851
 42
0.0
  0
VERTEX
  8
Sides
 10
1035.73388851403
 20
488.90085533341
 42
0.0
  0
VERTEX
  8
Sides
 10
1038.73222323497
 20
494.0979688497
 42
0.0
  0
SEQEND
  0
POLYLINE
  8
Sides
 66
     1
 10
0.0
 20
0.0
 30
0.0
 70
     1
  0
VERTEX
  8
Sides
 10
1048.72667230478
 20
511.42168057066
 42
0.0
  0
VERTEX
  8
Sides
 10
1051.72500702572
 20
516.61879408695
 42
0.0
  0
VERTEX
  8
Sides
 10
1060.3868628862
 20
511.62156955204
 42
0.0
  0
VERTEX
  8
Sides
 10
1057.38852816526
 20
506.42445603576
 42
0.0
  0
SEQEND
  0
POLYLINE
  8
Sides
 66
     1
 10
0.0
 20
0.0
 30
0.0
 70
     1
  0
VERTEX
  8
Sides
 10
1081.20863178166
 20
567.72374366379
 42
0.0
  0
VERTEX
  8
Sides
 10
1084.2069665026
 20
572.92085718008
 42
0.0
  0
VERTEX
  8
Sides
 10
1092.86882236308
 20
567.92363264517
 42
0.0
  0
VERTEX
  8
Sides
 10
1089.87048764214
 20
562.72651912888
 42
0.0
  0
SEQEND
  0
POLYLINE
  8
Sides
 66
     1
 10
0.0
 20
0.0
 30
0.0
 70
     1
  0
VERTEX
  8
Sides
 10
1105.86160615383
 20
590.44445788242
 42
0.0
  0
VERTEX
  8
Sides
 10
1097.19975029335
 20
595.44168241733
 42
0.0
  0
VERTEX
  8
Sides
 10
1094.20141557241
 20
590.24456890104
 42
0.0
  0
VERTEX
  8
Sides
 10
1102.86327143289
 20
585.24734436613
 42
0.0
  0
SEQEND
  0
POLYLINE
  8
Sides
 66
     1
 10
0.0
 20
0.0
 30
0.0
 70
     1
  0
VERTEX
  8
Sides
 10
1117.2058050358
 20
584.89090616842
 42
0.0
  0
VERTEX
  8
Sides
 10
1122.5129865868
 20
582.09200924558
 42
0.0
  0
VERTEX
  8
Sides
 10
1117.84815838206
 20
573.24670666057
 42
0.0
  0
VERTEX
  8
Sides
 10
1112.54097683106
 20
576.04560358342
 42
0.0
  0
SEQEND
  0
POLYLINE
  8
Sides
 66
     1
 10
0.0
 20
0.0
 30
0.0
 70
     1
  0
VERTEX
  8
Sides
 10
1154.35607589281
 20
565.2986277085
 42
0.0
  0
VERTEX
  8
Sides
 10
1159.66325744381
 20
562.49973078566
 42
0.0
  0
VERTEX
  8
Sides
 10
1154.99842923907
 20
553.65442820065
 42
0.0
  0
VERTEX
  8
Sides
 10
1149.69124768807
 20
556.4533251235
 42
0.0
  0
SEQEND
  0
POLYLINE
  8
Sides
 66
     1
 10
0.0
 20
0.0
 30
0.0
 70
     1
  0
VERTEX
  8
Sides
 10
1166.48880241627
 20
558.90008064432
 42
0.0
  0
VERTEX
  8
Sides
 10
1166.48880241626
 20
552.90008064432
 42
0.0
  0
VERTEX
  8
Sides
 10
1176.48880241626
 20
552.90008064431
 42
0.0
  0
VERTEX
  8
Sides
 10
1176.48880241626
 20
553.62628909235
 42
0.0
  0
VERTEX
  8
Sides
 10
1176.48880241627
 20
558.90008064431
 42
0.0
  0
SEQEND
  0
POLYLINE
  8
Sides
 66
     1
 10
0.0
 20
0.0
 30
0.0
 70
     1
  0
VERTEX
  8
Sides
 10
1176.48880241624
 20
532.90008064431
 42
0.0
  0
VERTEX
  8
Sides
 10
1176.48880241624
 20
526.90008064431
 42
0.0
  0
VERTEX
  8
Sides
 10
1166.48880241624
 20
526.90008064432
 42
0.0
  0
VERTEX
  8
Sides
 10
1166.48880241624
 20
532.90008064432
 42
0.0
  0
SEQEND
  0
POLYLINE
  8
Sides
 66
     1
 10
0.0
 20
0.0
 30
0.0
 70
     1
  0
VERTEX
  8
Sides
 10
1176.48880241616
 20
455.70008064431
 42
0.0
  0
VERTEX
  8
Sides
 10
1176.48880241616
 20
449.70008064431
 42
0.0
  0
VERTEX
  8
Sides
 10
1166.48880241616
 20
449.70008064432
 42
0.0
  0
VERTEX
  8
Sides
 10
1166.48880241616
 20
455.70008064432
 42
0.0
  0
SEQEND
  0
POLYLINE
  8
Sides
 66
     1
 10
0.0
 20
0.0
 30
0.0
 70
     1
  0
VERTEX
  8
Sides
 10
1176.48880241614
 20
429.70008064431
 42
0.0
  0
VERTEX
  8
Sides
 10
1176.48880241613
 20
423.70008064431
 42
0.0
  0
VERTEX
  8
Sides
 10
1166.48880241613
 20
423.70008064432
 42
0.0
  0
VERTEX
  8
Sides
 10
1166.48880241614
 20
429.70008064432
 42
0.0
  0
SEQEND
  0
POLYLINE
  8
Sides
 66
     1
 10
0.0
 20
0.0
 30
0.0
 70
     1
  0
VERTEX
  8
Sides
 10
1514.80952439486
 20
129.5865050956
 42
0.0
  0
VERTEX
  8
Sides
 10
1519.39130497581
 20
133.46042903755
 42
0.0
  0
VERTEX
  8
Sides
 10
1525.84784487905
 20
125.8241280693
 42
0.0
  0
VERTEX
  8
Sides
 10
1521.2660642981
 20
121.95020412735
 42
0.0
  0
SEQEND
  0
POLYLINE
  8
Sides
 66
     1
 10
0.0
 20
0.0
 30
0.0
 70
     1
  0
VERTEX
  8
Sides
 10
1545.70222739652
 20
142.61113181774
 42
0.0
  0
VERTEX
  8
Sides
 10
1541.12044681557
 20
138.73720787579
 42
0.0
  0
VERTEX
  8
Sides
 10
1534.66390691232
 20
146.37350884405
 42
0.0
  0
VERTEX
  8
Sides
 10
1539.24568749327
 20
150.24743278599
 42
0.0
  0
SEQEND
  0
POLYLINE
  8
Sides
 66
     1
 10
0.0
 20
0.0
 30
0.0
 70
     1
  0
VERTEX
  8
Sides
 10
1654.02477912672
 20
35.0000000007201
 42
0.0
  0
VERTEX
  8
Sides
 10
1660.02477912671
 20
35.0000000007201
 42
0.0
  0
VERTEX
  8
Sides
 10
1660.0247791267
 20
25.0000000007201
 42
0.0
  0
VERTEX
  8
Sides
 10
1654.0247791267
 20
25.0000000007201
 42
0.0
  0
SEQEND
  0
POLYLINE
  8
Sides
 66
     1
 10
0.0
 20
0.0
 30
0.0
 70
     1
  0
VERTEX
  8
Sides
 10
1686.0247791267
 20
25.0000000006901
 42
0.0
  0
VERTEX
  8
Sides
 10
1680.0247791267
 20
25.0000000006901
 42
0.0
  0
VERTEX
  8
Sides
 10
1680.02477912671
 20
35.0000000006901
 42
0.0
  0
VERTEX
  8
Sides
 10
1686.02477912671
 20
35.0000000006901
 42
0.0
  0
SEQEND
  0
POLYLINE
  8
Sides
 66
     1
 10
0.0
 20
0.0
 30
0.0
 70
     1
  0
VERTEX
  8
Sides
 10
1722.02477912671
 20
35.0000000006501
 42
0.0
  0
VERTEX
  8
Sides
 10
1728.02477912671
 20
35.0000000006501
 42
0.0
  0
VERTEX
  8
Sides
 10
1728.0247791267
 20
25.0000000006501
 42
0.0
  0
VERTEX
  8
Sides
 10
1722.0247791267
 20
25.0000000006501
 42
0.0
  0
SEQEND
  0
POLYLINE
  8
Sides
 66
     1
 10
0.0
 20
0.0
 30
0.0
 70
     1
  0
VERTEX
  8
Sides
 10
1754.0247791267
 20
25.00000000062
 42
0.0
  0
VERTEX
  8
Sides
 10
1748.0247791267
 20
25.0000000006301
 42
0.0
  0
VERTEX
  8
Sides
 10
1748.02477912671
 20
35.0000000006301
 42
0.0
  0
VERTEX
  8
Sides
 10
1754.02477912672
 20
35.00000000062
 42
0.0
  0
SEQEND
  0
POLYLINE
  8
Sides
 66
     1
 10
0.0
 20
0.0
 30
0.0
 70
     1
  0
VERTEX
  8
Sides
 10
1566.73637097899
 20
173.49097643769
 42
0.0
  0
VERTEX
  8
Sides
 10
1571.31815155994
 20
177.36490037964
 42
0.0
  0
VERTEX
  8
Sides
 10
1577.77469146319
 20
169.72859941138
 42
0.0
  0
VERTEX
  8
Sides
 10
1573.19291088224
 20
165.85467546943
 42
0.0
  0
SEQEND
  0
POLYLINE
  8
Sides
 66
     1
 10
0.0
 20
0.0
 30
0.0
 70
     1
  0
VERTEX
  8
Sides
 10
1597.62907398066
 20
186.51560315982
 42
0.0
  0
VERTEX
  8
Sides
 10
1593.0472933997
 20
182.64167921788
 42
0.0
  0
VERTEX
  8
Sides
 10
1586.59075349645
 20
190.27798018613
 42
0.0
  0
VERTEX
  8
Sides
 10
1591.17253407741
 20
194.15190412808
 42
0.0
  0
SEQEND
  0
POLYLINE
  8
Sides
 66
     1
 10
0.0
 20
0.0
 30
0.0
 70
     1
  0
VERTEX
  8
Sides
 10
1577.72534719623
 20
194.56803509626
 42
0.0
  0
VERTEX
  8
Sides
 10
1573.85142325428
 20
199.14981567721
 42
0.0
  0
VERTEX
  8
Sides
 10
1581.48772422254
 20
205.60635558046
 42
0.0
  0
VERTEX
  8
Sides
 10
1585.36164816449
 20
201.02457499951
 42
0.0
  0
SEQEND
  0
POLYLINE
  8
Sides
 66
     1
 10
0.0
 20
0.0
 30
0.0
 70
     1
  0
VERTEX
  8
Sides
 10
1560.93834344779
 20
214.42241761372
 42
0.0
  0
VERTEX
  8
Sides
 10
1557.06441950584
 20
219.00419819467
 42
0.0
  0
VERTEX
  8
Sides
 10
1564.70072047409
 20
225.46073809792
 42
0.0
  0
VERTEX
  8
Sides
 10
1568.57464441604
 20
220.87895751697
 42
0.0
  0
SEQEND
  0
POLYLINE
  8
Sides
 66
     1
 10
0.0
 20
0.0
 30
0.0
 70
     1
  0
VERTEX
  8
Sides
 10
1498.50999007408
 20
288.25789334189
 42
0.0
  0
VERTEX
  8
Sides
 10
1494.63606613214
 20
292.83967392284
 42
0.0
  0
VERTEX
  8
Sides
 10
1502.27236710039
 20
299.29621382609
 42
0.0
  0
VERTEX
  8
Sides
 10
1506.14629104234
 20
294.71443324514
 42
0.0
  0
SEQEND
  0
POLYLINE
  8
Sides
 66
     1
 10
0.0
 20
0.0
 30
0.0
 70
     1
  0
VERTEX
  8
Sides
 10
1481.72298632564
 20
308.11227585935
 42
0.0
  0
VERTEX
  8
Sides
 10
1477.84906238369
 20
312.69405644031
 42
0.0
  0
VERTEX
  8
Sides
 10
1485.48536335195
 20
319.15059634356
 42
0.0
  0
VERTEX
  8
Sides
 10
1489.3592872939
 20
314.5688157626
 42
0.0
  0
SEQEND
  0
POLYLINE
  8
Sides
 66
     1
 10
0.0
 20
0.0
 30
0.0
 70
     1
  0
VERTEX
  8
Sides
 10
1408.6525385033
 20
410.02257786579
 42
0.0
  0
VERTEX
  8
Sides
 10
1412.52646244525
 20
405.44079728484
 42
0.0
  0
VERTEX
  8
Sides
 10
1404.890161477
 20
398.98425738159
 42
0.0
  0
VERTEX
  8
Sides
 10
1401.01623753505
 20
403.56603796254
 42
0.0
  0
SEQEND
  0
POLYLINE
  8
Sides
 66
     1
 10
0.0
 20
0.0
 30
0.0
 70
     1
  0
VERTEX
  8
Sides
 10
1391.86553475486
 20
429.87696038326
 42
0.0
  0
VERTEX
  8
Sides
 10
1395.73945869681
 20
425.2951798023
 42
0.0
  0
VERTEX
  8
Sides
 10
1388.10315772855
 20
418.83863989905
 42
0.0
  0
VERTEX
  8
Sides
 10
1384.22923378661
 20
423.42042048001
 42
0.0
  0
SEQEND
  0
POLYLINE
  8
Sides
 66
     1
 10
0.0
 20
0.0
 30
0.0
 70
     1
  0
VERTEX
  8
Sides
 10
1197.29833631424
 20
523.98294959718
 42
0.0
  0
VERTEX
  8
Sides
 10
1191.29833631424
 20
523.98294959718
 42
0.0
  0
VERTEX
  8
Sides
 10
1191.29833631425
 20
533.98294959718
 42
0.0
  0
VERTEX
  8
Sides
 10
1197.29833631425
 20
533.98294959718
 42
0.0
  0
SEQEND
  0
POLYLINE
  8
Sides
 66
     1
 10
0.0
 20
0.0
 30
0.0
 70
     1
  0
VERTEX
  8
Sides
 10
1217.29833631425
 20
533.98294959716
 42
0.0
  0
VERTEX
  8
Sides
 10
1223.29833631425
 20
533.98294959715
 42
0.0
  0
VERTEX
  8
Sides
 10
1223.29833631424
 20
523.98294959715
 42
0.0
  0
VERTEX
  8
Sides
 10
1217.29833631424
 20
523.98294959716
 42
0.0
  0
SEQEND
  0
POLYLINE
  8
Sides
 66
     1
 10
0.0
 20
0.0
 30
0.0
 70
     1
  0
VERTEX
  8
Sides
 10
1206.99894469297
 20
585.00000000118
 42
0.0
  0
VERTEX
  8
Sides
 10
1200.99894469297
 20
585.00000000118
 42
0.0
  0
VERTEX
  8
Sides
 10
1200.99894469298
 20
595.00000000119
 42
0.0
  0
VERTEX
  8
Sides
 10
1206.99894469298
 20
595.00000000118
 42
0.0
  0
SEQEND
  0
POLYLINE
  8
Sides
 66
     1
 10
0.0
 20
0.0
 30
0.0
 70
     1
  0
VERTEX
  8
Sides
 10
1226.99894469298
 20
595.00000000116
 42
0.0
  0
VERTEX
  8
Sides
 10
1232.99894469299
 20
595.00000000115
 42
0.0
  0
VERTEX
  8
Sides
 10
1232.99894469298
 20
585.00000000115
 42
0.0
  0
VERTEX
  8
Sides
 10
1226.99894469298
 20
585.00000000116
 42
0.0
  0
SEQEND
  0
POLYLINE
  8
Sides
 66
     1
 10
0.0
 20
0.0
 30
0.0
 70
     1
  0
VERTEX
  8
Sides
 10
1286.29833631424
 20
523.98294959709
 42
0.0
  0
VERTEX
  8
Sides
 10
1280.29833631424
 20
523.98294959709
 42
0.0
  0
VERTEX
  8
Sides
 10
1280.29833631425
 20
533.98294959709
 42
0.0
  0
VERTEX
  8
Sides
 10
1286.29833631425
 20
533.98294959709
 42
0.0
  0
SEQEND
  0
POLYLINE
  8
Sides
 66
     1
 10
0.0
 20
0.0
 30
0.0
 70
     1
  0
VERTEX
  8
Sides
 10
1312.29833631424
 20
523.98294959706
 42
0.0
  0
VERTEX
  8
Sides
 10
1306.29833631424
 20
523.98294959706
 42
0.0
  0
VERTEX
  8
Sides
 10
1306.29833631425
 20
533.98294959706
 42
0.0
  0
VERTEX
  8
Sides
 10
1312.29833631425
 20
533.98294959706
 42
0.0
  0
SEQEND
  0
POLYLINE
  8
Sides
 66
     1
 10
0.0
 20
0.0
 30
0.0
 70
     1
  0
VERTEX
  8
Sides
 10
1312.65017763272
 20
523.56681862889
 42
0.0
  0
VERTEX
  8
Sides
 10
1316.52410157466
 20
518.98503804794
 42
0.0
  0
VERTEX
  8
Sides
 10
1308.88780060641
 20
512.52849814469
 42
0.0
  0
VERTEX
  8
Sides
 10
1305.01387666446
 20
517.11027872564
 42
0.0
  0
SEQEND
  0
POLYLINE
  8
Sides
 66
     1
 10
0.0
 20
0.0
 30
0.0
 70
     1
  0
VERTEX
  8
Sides
 10
1325.67480435485
 20
492.67411562722
 42
0.0
  0
VERTEX
  8
Sides
 10
1321.80088041291
 20
497.25589620818
 42
0.0
  0
VERTEX
  8
Sides
 10
1329.43718138116
 20
503.71243611143
 42
0.0
  0
VERTEX
  8
Sides
 10
1333.31110532311
 20
499.13065553047
 42
0.0
  0
SEQEND
  0
POLYLINE
  8
Sides
 66
     1
 10
0.0
 20
0.0
 30
0.0
 70
     1
  0
VERTEX
  8
Sides
 10
1506.99894469297
 20
585.00000000087
 42
0.0
  0
VERTEX
  8
Sides
 10
1500.99894469297
 20
585.00000000088
 42
0.0
  0
VERTEX
  8
Sides
 10
1500.99894469298
 20
595.00000000088
 42
0.0
  0
VERTEX
  8
Sides
 10
1506.99894469298
 20
595.00000000087
 42
0.0
  0
SEQEND
  0
POLYLINE
  8
Sides
 66
     1
 10
0.0
 20
0.0
 30
0.0
 70
     1
  0
VERTEX
  8
Sides
 10
1526.99894469298
 20
595.00000000085
 42
0.0
  0
VERTEX
  8
Sides
 10
1532.99894469299
 20
595.00000000085
 42
0.0
  0
VERTEX
  8
Sides
 10
1532.99894469298
 20
585.00000000085
 42
0.0
  0
VERTEX
  8
Sides
 10
1526.99894469298
 20
585.00000000085
 42
0.0
  0
SEQEND
  0
POLYLINE
  8
Sides
 66
     1
 10
0.0
 20
0.0
 30
0.0
 70
     1
  0
VERTEX
  8
Sides
 10
1724.14020966943
 20
595.00000000065
 42
0.0
  0
VERTEX
  8
Sides
 10
1724.14020966942
 20
585.00000000065
 42
0.0
  0
VERTEX
  8
Sides
 10
1730.14020966942
 20
585.00000000064
 42
0.0
  0
VERTEX
  8
Sides
 10
1730.14020966943
 20
595.00000000064
 42
0.0
  0
SEQEND
  0
POLYLINE
  8
Sides
 66
     1
 10
0.0
 20
0.0
 30
0.0
 70
     1
  0
VERTEX
  8
Sides
 10
1750.14020966943
 20
595.00000000062
 42
0.0
  0
VERTEX
  8
Sides
 10
1756.14020966943
 20
595.00000000062
 42
0.0
  0
VERTEX
  8
Sides
 10
1756.14020966942
 20
585.00000000062
 42
0.0
  0
VERTEX
  8
Sides
 10
1750.14020966942
 20
585.00000000062
 42
0.0
  0
SEQEND
  0
POLYLINE
  8
Sides
 66
     1
 10
0.0
 20
0.0
 30
0.0
 70
     1
  0
VERTEX
  8
Sides
 10
1953.28147464586
 20
585.00000000041
 42
0.0
  0
VERTEX
  8
Sides
 10
1947.28147464586
 20
585.00000000042
 42
0.0
  0
VERTEX
  8
Sides
 10
1947.28147464587
 20
595.00000000042
 42
0.0
  0
VERTEX
  8
Sides
 10
1953.28147464587
 20
595.00000000041
 42
0.0
  0
SEQEND
  0
POLYLINE
  8
Sides
 66
     1
 10
0.0
 20
0.0
 30
0.0
 70
     1
  0
VERTEX
  8
Sides
 10
1973.28147464587
 20
595.00000000039
 42
0.0
  0
VERTEX
  8
Sides
 10
1979.28147464587
 20
595.00000000039
 42
0.0
  0
VERTEX
  8
Sides
 10
1979.28147464586
 20
585.00000000039
 42
0.0
  0
VERTEX
  8
Sides
 10
1973.28147464586
 20
585.00000000039
 42
0.0
  0
SEQEND
  0
POLYLINE
  8
Sides
 66
     1
 10
0.0
 20
0.0
 30
0.0
 70
     1
  0
VERTEX
  8
Sides
 10
2263.28147464529
 20
35.0000000001
 42
0.0
  0
VERTEX
  8
Sides
 10
2269.28147464529
 20
35.00000000009
 42
0.0
  0
VERTEX
  8
Sides
 10
2269.28147464528
 20
25.00000000009
 42
0.0
  0
VERTEX
  8
Sides
 10
2263.28147464528
 20
25.0000000001
 42
0.0
  0
SEQEND
  0
POLYLINE
  8
Sides
 66
     1
 10
0.0
 20
0.0
 30
0.0
 70
     1
  0
VERTEX
  8
Sides
 10
2295.28147464528
 20
25.00000000007
 42
0.0
  0
VERTEX
  8
Sides
 10
2289.28147464528
 20
25.00000000007
 42
0.0
  0
VERTEX
  8
Sides
 10
2289.28147464529
 20
35.00000000007
 42
0.0
  0
VERTEX
  8
Sides
 10
2295.28147464529
 20
35.00000000007
 42
0.0
  0
SEQEND
  0
POLYLINE
  8
Sides
 66
     1
 10
0.0
 20
0.0
 30
0.0
 70
     1
  0
VERTEX
  8
Sides
 10
2337.28147464529
 20
35.00000000002
 42
0.0
  0
VERTEX
  8
Sides
 10
2331.28147464529
 20
35.00000000003
 42
0.0
  0
VERTEX
  8
Sides
 10
2331.28147464528
 20
25.00000000003
 42
0.0
  0
VERTEX
  8
Sides
 10
2337.28147464528
 20
25.00000000002
 42
0.0
  0
SEQEND
  0
POLYLINE
  8
Sides
 66
     1
 10
0.0
 20
0.0
 30
0.0
 70
     1
  0
VERTEX
  8
Sides
 10
2273.28147464587
 20
595.00000000009
 42
0.0
  0
VERTEX
  8
Sides
 10
2279.28147464587
 20
595.00000000008
 42
0.0
  0
VERTEX
  8
Sides
 10
2279.28147464586
 20
585.00000000008
 42
0.0
  0
VERTEX
  8
Sides
 10
2273.28147464585
 20
585.00000000009
 42
0.0
  0
SEQEND
  0
POLYLINE
  8
Sides
 66
     1
 10
0.0
 20
0.0
 30
0.0
 70
     1
  0
VERTEX
  8
Sides
 10
2247.28147464587
 20
595.00000000011
 42
0.0
  0
VERTEX
  8
Sides
 10
2247.28147464586
 20
585.00000000011
 42
0.0
  0
VERTEX
  8
Sides
 10
2253.28147464586
 20
585.00000000011
 42
0.0
  0
VERTEX
  8
Sides
 10
2253.28147464587
 20
595.00000000011
 42
0.0
  0
SEQEND
  0
POLYLINE
  8
Sides
 66
     1
 10
0.0
 20
0.0
 30
0.0
 70
     1
  0
VERTEX
  8
Sides
 10
1591.70801325404
 20
25.0000000007801
 42
0.0
  0
VERTEX
  8
Sides
 10
1591.70801325405
 20
35.0000000007801
 42
0.0
  0
VERTEX
  8
Sides
 10
1597.70801325405
 20
35.0000000007801
 42
0.0
  0
VERTEX
  8
Sides
 10
1597.70801325404
 20
25.0000000007801
 42
0.0
  0
SEQEND
  0
POLYLINE
  8
Sides
 66
     1
 10
0.0
 20
0.0
 30
0.0
 70
     1
  0
VERTEX
  8
Sides
 10
1540.91208966925
 20
95.23297999136
 42
0.0
  0
VERTEX
  8
Sides
 10
1531.44435956306
 20
92.01396047662
 42
0.0
  0
VERTEX
  8
Sides
 10
1533.3757712719
 20
86.3333224129001
 42
0.0
  0
VERTEX
  8
Sides
 10
1542.8435013781
 20
89.5523419276401
 42
0.0
  0
SEQEND
  0
POLYLINE
  8
Sides
 66
     1
 10
0.0
 20
0.0
 30
0.0
 70
     1
  0
VERTEX
  8
Sides
 10
1617.70801325405
 20
35.0000000007601
 42
0.0
  0
VERTEX
  8
Sides
 10
1617.70801325404
 20
25.0000000007601
 42
0.0
  0
VERTEX
  8
Sides
 10
1623.70801325404
 20
25.0000000007501
 42
0.0
  0
VERTEX
  8
Sides
 10
1623.70801325405
 20
35.0000000007501
 42
0.0
  0
SEQEND
  0
POLYLINE
  8
Sides
 66
     1
 10
0.0
 20
0.0
 30
0.0
 70
     1
  0
VERTEX
  8
Sides
 10
1551.21295211642
 20
64.9362436515401
 42
0.0
  0
VERTEX
  8
Sides
 10
1549.28154040758
 20
70.61688171526
 42
0.0
  0
VERTEX
  8
Sides
 10
1539.81381030138
 20
67.39786220052
 42
0.0
  0
VERTEX
  8
Sides
 10
1541.74522201023
 20
61.7172241368
 42
0.0
  0
SEQEND
  0
CIRCLE
  8
Layer1
 10
26.0000000000136
 20
590.00000000001
 30
0.0
 40
4.0
  0
CIRCLE
  8
Layer1
 10
30.1397177251496
 20
565.00000000001
 30
0.0
 40
4.0
  0
CIRCLE
  8
Layer1
 10
94.0000000000152
 20
590.00000000005
 30
0.0
 40
4.0
  0
CIRCLE
  8
Layer1
 10
84.2359670044251
 20
542.40000000005
 30
0.0
 40
4.0
  0
CIRCLE
  8
Layer1
 10
30.1397177254909
 20
55.00000000001
 30
0.0
 40
4.0
  0
CIRCLE
  8
Layer1
 10
84.2359670047362
 20
77.6000000000499
 30
0.0
 40
4.0
  0
CIRCLE
  8
Layer1
 10
110.000000000382
 20
30.00000000006
 30
0.0
 40
4.0
  0
CIRCLE
  8
Layer1
 10
339.628347759325
 20
555.00000000022
 30
0.0
 40
4.0
  0
CIRCLE
  8
Layer1
 10
389.628347759311
 20
575.00000000025
 30
0.0
 40
4.0
  0
CIRCLE
  8
Layer1
 10
410.000000000382
 20
30.0000000002599
 30
0.0
 40
4.0
  0
CIRCLE
  8
Layer1
 10
633.141264976825
 20
30.00000000041
 30
0.0
 40
4.0
  0
CIRCLE
  8
Layer1
 10
644.256695518954
 20
45.00000000042
 30
0.0
 40
4.0
  0
CIRCLE
  8
Layer1
 10
694.256695518941
 20
65.00000000045
 30
0.0
 40
4.0
  0
CIRCLE
  8
Layer1
 10
635.25669551859
 20
590.00000000041
 30
0.0
 40
4.0
  0
CIRCLE
  8
Layer1
 10
631.756695518613
 20
555.00000000041
 30
0.0
 40
4.0
  0
CIRCLE
  8
Layer1
 10
681.7566955186
 20
575.00000000045
 30
0.0
 40
4.0
  0
CIRCLE
  8
Layer1
 10
703.256695518591
 20
590.00000000046
 30
0.0
 40
4.0
  0
CIRCLE
  8
Layer1
 10
765.573461391259
 20
590.0000000005
 30
0.0
 40
4.0
  0
CIRCLE
  8
Layer1
 10
763.50012191518
 20
562.28840946001
 30
0.0
 40
4.0
  0
CIRCLE
  8
Layer1
 10
815.797619370683
 20
549.44427617311
 30
0.0
 40
4.0
  0
CIRCLE
  8
Layer1
 10
831.952818805641
 20
541.5248979373
 30
0.0
 40
4.0
  0
CIRCLE
  8
Layer1
 10
843.025598749791
 20
483.90118154473
 30
0.0
 40
4.0
  0
CIRCLE
  8
Layer1
 10
796.755172983793
 20
470.35970742772
 30
0.0
 40
4.0
  0
CIRCLE
  8
Layer1
 10
760.652400664884
 20
470.3597074277
 30
0.0
 40
4.0
  0
CIRCLE
  8
Layer1
 10
791.09875216573
 20
439.99671020256
 30
0.0
 40
4.0
  0
CIRCLE
  8
Layer1
 10
802.068440810441
 20
409.98561340424
 30
0.0
 40
4.0
  0
CIRCLE
  8
Layer1
 10
796.755172983851
 20
382.74822574465
 30
0.0
 40
4.0
  0
CIRCLE
  8
Layer1
 10
760.652400664942
 20
382.74822574462
 30
0.0
 40
4.0
  0
CIRCLE
  8
Layer1
 10
861.702390167837
 20
414.5727785462
 30
0.0
 40
4.0
  0
CIRCLE
  8
Layer1
 10
881.283797932745
 20
316.29575515874
 30
0.0
 40
4.0
  0
CIRCLE
  8
Layer1
 10
965.129771927366
 20
292.24679166978
 30
0.0
 40
4.0
  0
CIRCLE
  8
Layer1
 10
856.282529953268
 20
30.00000000056
 30
0.0
 40
4.0
  0
CIRCLE
  8
Layer1
 10
974.903626530019
 20
205.5693911192
 30
0.0
 40
4.0
  0
CIRCLE
  8
Layer1
 10
1030.98313833188
 20
104.74650134457
 30
0.0
 40
4.0
  0
CIRCLE
  8
Layer1
 10
1054.11898365232
 20
111.8795328737
 30
0.0
 40
4.0
  0
CIRCLE
  8
Layer1
 10
1092.3818147991
 20
141.7428200763
 30
0.0
 40
4.0
  0
CIRCLE
  8
Layer1
 10
1076.98313833189
 20
91.0170504047201
 30
0.0
 40
4.0
  0
CIRCLE
  8
Layer1
 10
1030.98313833192
 20
55.0000000006801
 30
0.0
 40
4.0
  0
CIRCLE
  8
Layer1
 10
1156.28252995326
 20
30.0000000007599
 30
0.0
 40
4.0
  0
CIRCLE
  8
Layer1
 10
1175.27292561907
 20
55.0000000007799
 30
0.0
 40
4.0
  0
CIRCLE
  8
Layer1
 10
1165.98313833189
 20
91.0170504047799
 30
0.0
 40
4.0
  0
CIRCLE
  8
Layer1
 10
1201.79267222991
 20
77.0999193576899
 30
0.0
 40
4.0
  0
CIRCLE
  8
Layer1
 10
1237.01135729483
 20
50.8159326284299
 30
0.0
 40
4.0
  0
CIRCLE
  8
Layer1
 10
1279.74635567848
 20
40.9158992290299
 30
0.0
 40
4.0
  0
CIRCLE
  8
Layer1
 10
1325.22109894596
 20
119.7387875595
 30
0.0
 40
4.0
  0
CIRCLE
  8
Layer1
 10
1201.79267222984
 20
180.29991935769
 30
0.0
 40
4.0
  0
CIRCLE
  8
Layer1
 10
1048.06037570013
 20
500.26121244272
 30
0.0
 40
4.0
  0
CIRCLE
  8
Layer1
 10
1093.53511896774
 20
579.08410077311
 30
0.0
 40
4.0
  0
CIRCLE
  8
Layer1
 10
1136.27011735137
 20
569.18406737364
 30
0.0
 40
4.0
  0
CIRCLE
  8
Layer1
 10
1171.48880241625
 20
542.90008064431
 30
0.0
 40
4.0
  0
CIRCLE
  8
Layer1
 10
1198.00854902713
 20
565.00000000119
 30
0.0
 40
4.0
  0
CIRCLE
  8
Layer1
 10
1216.99894469298
 20
590.00000000117
 30
0.0
 40
4.0
  0
CIRCLE
  8
Layer1
 10
1207.29833631425
 20
528.98294959717
 30
0.0
 40
4.0
  0
CIRCLE
  8
Layer1
 10
1171.48880241615
 20
439.70008064431
 30
0.0
 40
4.0
  0
CIRCLE
  8
Layer1
 10
1342.29833631428
 20
565.00000000104
 30
0.0
 40
4.0
  0
CIRCLE
  8
Layer1
 10
1342.29833631423
 20
515.25349865715
 30
0.0
 40
4.0
  0
CIRCLE
  8
Layer1
 10
1319.16249099379
 20
508.12046712806
 30
0.0
 40
4.0
  0
CIRCLE
  8
Layer1
 10
1296.29833631425
 20
528.98294959707
 30
0.0
 40
4.0
  0
CIRCLE
  8
Layer1
 10
1280.89965984696
 20
478.25717992553
 30
0.0
 40
4.0
  0
CIRCLE
  8
Layer1
 10
1398.37784811593
 20
414.43060888242
 30
0.0
 40
4.0
  0
CIRCLE
  8
Layer1
 10
1408.15170271844
 20
327.75320833182
 30
0.0
 40
4.0
  0
CIRCLE
  8
Layer1
 10
1491.99767671302
 20
303.70424484272
 30
0.0
 40
4.0
  0
CIRCLE
  8
Layer1
 10
1511.57908447776
 20
205.42722145523
 30
0.0
 40
4.0
  0
CIRCLE
  8
Layer1
 10
1576.5263016618
 20
237.25177425668
 30
0.0
 40
4.0
  0
CIRCLE
  8
Layer1
 10
1612.62907398071
 20
237.25177425664
 30
0.0
 40
4.0
  0
CIRCLE
  8
Layer1
 10
1571.21303383516
 20
210.01438659709
 30
0.0
 40
4.0
  0
CIRCLE
  8
Layer1
 10
1582.18272247982
 20
180.00328979876
 30
0.0
 40
4.0
  0
CIRCLE
  8
Layer1
 10
1530.25587589569
 20
136.09881845667
 30
0.0
 40
4.0
  0
CIRCLE
  8
Layer1
 10
1576.52630166171
 20
149.6402925736
 30
0.0
 40
4.0
  0
CIRCLE
  8
Layer1
 10
1612.62907398062
 20
149.64029257356
 30
0.0
 40
4.0
  0
CIRCLE
  8
Layer1
 10
1541.32865583974
 20
78.4751020640801
 30
0.0
 40
4.0
  0
CIRCLE
  8
Layer1
 10
1557.48385527469
 20
70.5557238282502
 30
0.0
 40
4.0
  0
CIRCLE
  8
Layer1
 10
1609.78135273017
 20
57.71159054126
 30
0.0
 40
4.0
  0
CIRCLE
  8
Layer1
 10
1607.70801325404
 20
30.0000000007701
 30
0.0
 40
4.0
  0
CIRCLE
  8
Layer1
 10
1670.02477912671
 20
30.0000000007001
 30
0.0
 40
4.0
  0
CIRCLE
  8
Layer1
 10
1691.52477912673
 20
45.0000000006801
 30
0.0
 40
4.0
  0
CIRCLE
  8
Layer1
 10
1741.52477912675
 20
65.0000000006301
 30
0.0
 40
4.0
  0
CIRCLE
  8
Layer1
 10
1738.02477912671
 20
30.0000000006301
 30
0.0
 40
4.0
  0
CIRCLE
  8
Layer1
 10
1983.65312688601
 20
45.0000000003802
 30
0.0
 40
4.0
  0
CIRCLE
  8
Layer1
 10
2033.65312688603
 20
65.0000000003301
 30
0.0
 40
4.0
  0
CIRCLE
  8
Layer1
 10
2289.04550764095
 20
77.6000000000702
 30
0.0
 40
4.0
  0
CIRCLE
  8
Layer1
 10
2279.28147464528
 20
30.00000000008
 30
0.0
 40
4.0
  0
CIRCLE
  8
Layer1
 10
2343.14175692019
 20
55.00000000002
 30
0.0
 40
4.0
  0
CIRCLE
  8
Layer1
 10
2347.28147464529
 20
30.00000000001
 30
0.0
 40
4.0
  0
CIRCLE
  8
Layer1
 10
2263.28147464586
 20
590.0000000001
 30
0.0
 40
4.0
  0
CIRCLE
  8
Layer1
 10
2289.04550764143
 20
542.40000000007
 30
0.0
 40
4.0
  0
CIRCLE
  8
Layer1
 10
2343.14175692071
 20
565.00000000002
 30
0.0
 40
4.0
  0
CIRCLE
  8
Layer1
 10
1963.28147464586
 20
590.00000000041
 30
0.0
 40
4.0
  0
CIRCLE
  8
Layer1
 10
1679.02477912725
 20
555.0000000007
 30
0.0
 40
4.0
  0
CIRCLE
  8
Layer1
 10
1729.02477912727
 20
575.00000000064
 30
0.0
 40
4.0
  0
CIRCLE
  8
Layer1
 10
1740.14020966942
 20
590.00000000064
 30
0.0
 40
4.0
  0
CIRCLE
  8
Layer1
 10
1516.99894469298
 20
590.00000000086
 30
0.0
 40
4.0
  0
ENDSEC
  0
EOF
