  0
SECTION
  2
HEADER
  9
$ACADVER
  1
AC1009
  9
$EXTMAX
 10
2390.0
 20
1190.0
 30
0.0
  9
$EXTMIN
 10
14.03746509552
 20
10.0
 30
0.0
  9
$INSUNITS
 70
     4
  9
$LUNITS
 70
     2
  9
$LUPREC
 70
     4
  9
$MEASUREMENT
 70
     1
  0
ENDSEC
  0
SECTION
  2
TABLES
  0
TABLE
  2
LAYER
 70
     1
  0
LAYER
  2
0
 70
     0
 62
     7
  6
Continuous
  0
LAYER
  2
Side_Panel
 70
     0
 62
    70
  6
Continuous
  0
LAYER
  2
Single_panels
 70
     0
 62
    70
  6
Continuous
  0
LAYER
  2
Back
 70
     0
 62
    70
  6
Continuous
  0
LAYER
  2
Screen_Mount
 70
     0
 62
    70
  6
Continuous
  0
LAYER
  2
Side_Panel_Mounts
 70
     0
 62
    70
  6
Continuous
  0
LAYER
  2
Controller
 70
     0
 62
    70
  6
Continuous
  0
ENDTAB
  0
TABLE
  2
APPID
 70
     1
  0
APPID
  2
ACAD
 70
     0
  0
ENDTAB
  0
ENDSEC
  0
SECTION
  2
ENTITIES
  0
POLYLINE
  8
Side_Panel
 66
     1
 10
0.0
 20
0.0
 30
0.0
 70
     1
  0
VERTEX
  8
Side_Panel
 10
14.0374654569308
 20
1189.99999999961
 42
0.0
  0
VERTEX
  8
Side_Panel
 10
14.0374654573156
 20
614.999999999613
 42
0.0
  0
VERTEX
  8
Side_Panel
 10
20.0374654573157
 20
614.999999999618
 42
0.0
  0
VERTEX
  8
Side_Panel
 10
20.0374654573224
 20
604.999999999619
 42
0.0
  0
VERTEX
  8
Side_Panel
 10
14.0374654573223
 20
604.999999999613
 42
0.0
  0
VERTEX
  8
Side_Panel
 10
14.0374654573324
 20
589.999999999613
 42
0.0
  0
VERTEX
  8
Side_Panel
 10
824.037465457332
 20
590.000000000155
 42
0.0
  0
VERTEX
  8
Side_Panel
 10
824.760301099239
 20
590.018723500489
 42
0.0
  0
VERTEX
  8
Side_Panel
 10
825.481198074125
 20
590.074843784495
 42
0.0
  0
VERTEX
  8
Side_Panel
 10
826.19822291453
 20
590.168210335876
 42
0.0
  0
VERTEX
  8
Side_Panel
 10
826.90945253818
 20
590.298572742724
 42
0.0
  0
VERTEX
  8
Side_Panel
 10
827.612979405743
 20
590.465581369124
 42
0.0
  0
VERTEX
  8
Side_Panel
 10
828.306916636915
 20
590.668788292898
 42
0.0
  0
VERTEX
  8
Side_Panel
 10
828.989403071083
 20
590.907648506939
 42
0.0
  0
VERTEX
  8
Side_Panel
 10
829.658608259021
 20
591.18152138094
 42
0.0
  0
VERTEX
  8
Side_Panel
 10
830.312737372203
 20
591.48967237958
 42
0.0
  0
VERTEX
  8
Side_Panel
 10
830.950036016593
 20
591.831275032576
 42
0.0
  0
VERTEX
  8
Side_Panel
 10
831.568794937981
 20
592.205413151295
 42
0.0
  0
VERTEX
  8
Side_Panel
 10
832.167354606252
 20
592.611083286005
 42
0.0
  0
VERTEX
  8
Side_Panel
 10
832.744109666299
 20
593.047197417151
 42
0.0
  0
VERTEX
  8
Side_Panel
 10
833.297513243633
 20
593.512585873464
 42
0.0
  0
VERTEX
  8
Side_Panel
 10
833.826081093146
 20
594.00600046905
 42
0.0
  0
VERTEX
  8
Side_Panel
 10
834.328395579904
 20
594.52611785106
 42
0.0
  0
VERTEX
  8
Side_Panel
 10
834.803109481281
 20
595.07154304897
 42
0.0
  0
VERTEX
  8
Side_Panel
 10
835.248949600259
 20
595.640813215925
 42
0.0
  0
VERTEX
  8
Side_Panel
 10
835.664720180174
 20
596.232401552146
 42
0.0
  0
VERTEX
  8
Side_Panel
 10
836.049306111774
 20
596.84472139985
 42
0.0
  0
VERTEX
  8
Side_Panel
 10
836.401675923975
 20
597.476130498711
 42
0.0
  0
VERTEX
  8
Side_Panel
 10
836.720884550299
 20
598.124935390459
 42
0.0
  0
VERTEX
  8
Side_Panel
 10
837.006075863572
 20
598.789395960779
 42
0.0
  0
VERTEX
  8
Side_Panel
 10
837.256484972076
 20
599.467730106354
 42
0.0
  0
VERTEX
  8
Side_Panel
 10
868.218344614218
 20
690.532269893995
 42
0.0
  0
VERTEX
  8
Side_Panel
 10
868.488566443163
 20
691.298023422648
 42
0.0
  0
VERTEX
  8
Side_Panel
 10
868.776333192089
 20
692.05735773749
 42
0.0
  0
VERTEX
  8
Side_Panel
 10
869.081492541255
 20
692.809870910199
 42
0.0
  0
VERTEX
  8
Side_Panel
 10
869.403882964726
 20
693.555164622998
 42
0.0
  0
VERTEX
  8
Side_Panel
 10
869.743333815873
 20
694.292844379491
 42
0.0
  0
VERTEX
  8
Side_Panel
 10
870.099665417696
 20
695.022519713476
 42
0.0
  0
VERTEX
  8
Side_Panel
 10
870.472689157934
 20
695.743804395625
 42
0.0
  0
VERTEX
  8
Side_Panel
 10
870.862207588898
 20
696.456316637921
 42
0.0
  0
VERTEX
  8
Side_Panel
 10
871.268014531985
 20
697.159679295749
 42
0.0
  0
VERTEX
  8
Side_Panel
 10
871.689895186808
 20
697.853520067519
 42
0.0
  0
VERTEX
  8
Side_Panel
 10
872.127626244898
 20
698.537471691734
 42
0.0
  0
VERTEX
  8
Side_Panel
 10
872.580976007904
 20
699.21117214139
 42
0.0
  0
VERTEX
  8
Side_Panel
 10
873.049704510233
 20
699.874264815598
 42
0.0
  0
VERTEX
  8
Side_Panel
 10
873.533563646069
 20
700.526398728343
 42
0.0
  0
VERTEX
  8
Side_Panel
 10
874.032297300697
 20
701.167228694265
 42
0.0
  0
VERTEX
  8
Side_Panel
 10
874.545641486076
 20
701.796415511373
 42
0.0
  0
VERTEX
  8
Side_Panel
 10
875.073324480561
 20
702.413626140587
 42
0.0
  0
VERTEX
  8
Side_Panel
 10
875.615066972742
 20
703.018533882023
 42
0.0
  0
VERTEX
  8
Side_Panel
 10
876.170582209279
 20
703.610818547922
 42
0.0
  0
VERTEX
  8
Side_Panel
 10
876.739576146689
 20
704.190166632129
 42
0.0
  0
VERTEX
  8
Side_Panel
 10
877.321747606988
 20
704.756271476038
 42
0.0
  0
VERTEX
  8
Side_Panel
 10
877.916788437109
 20
705.30883343091
 42
0.0
  0
VERTEX
  8
Side_Panel
 10
878.524383672015
 20
705.847560016484
 42
0.0
  0
VERTEX
  8
Side_Panel
 10
879.14421170141
 20
706.372166075789
 42
0.0
  0
VERTEX
  8
Side_Panel
 10
1196.33061788463
 20
968.627833924807
 42
0.0
  0
VERTEX
  8
Side_Panel
 10
1198.92601791326
 20
970.701011902423
 42
0.0
  0
VERTEX
  8
Side_Panel
 10
1200.24959114353
 20
971.704452208861
 42
0.0
  0
VERTEX
  8
Side_Panel
 10
1201.58991204353
 20
972.685410123097
 42
0.0
  0
VERTEX
  8
Side_Panel
 10
1202.94659876663
 20
973.643606178119
 42
0.0
  0
VERTEX
  8
Side_Panel
 10
1204.31926480369
 20
974.578767391585
 42
0.0
  0
VERTEX
  8
Side_Panel
 10
1205.70751909322
 20
975.490627343594
 42
0.0
  0
VERTEX
  8
Side_Panel
 10
1207.11096613275
 20
976.378926252589
 42
0.0
  0
VERTEX
  8
Side_Panel
 10
1208.52920609151
 20
977.24341104936
 42
0.0
  0
VERTEX
  8
Side_Panel
 10
1209.96183492436
 20
978.083835449151
 42
0.0
  0
VERTEX
  8
Side_Panel
 10
1212.86862265165
 20
979.691552260032
 42
0.0
  0
VERTEX
  8
Side_Panel
 10
1355.20091361463
 20
1055.30558183424
 42
0.0
  0
VERTEX
  8
Side_Panel
 10
1356.29880543391
 20
1055.98664581009
 42
0.0
  0
VERTEX
  8
Side_Panel
 10
1357.29602009738
 20
1056.80809422659
 42
0.0
  0
VERTEX
  8
Side_Panel
 10
1358.17472852758
 20
1057.75524050923
 42
0.0
  0
VERTEX
  8
Side_Panel
 10
1358.91922040529
 20
1058.81115074691
 42
0.0
  0
VERTEX
  8
Side_Panel
 10
1359.51618505244
 20
1059.95694645124
 42
0.0
  0
VERTEX
  8
Side_Panel
 10
1359.95494941201
 20
1061.17214208273
 42
0.0
  0
VERTEX
  8
Side_Panel
 10
1360.22766887036
 20
1062.43501130916
 42
0.0
  0
VERTEX
  8
Side_Panel
 10
1360.32946751006
 20
1063.72297544801
 42
0.0
  0
VERTEX
  8
Side_Panel
 10
1360.25852528584
 20
1065.01300714795
 42
0.0
  0
VERTEX
  8
Side_Panel
 10
1360.01611056495
 20
1066.28204209196
 42
0.0
  0
VERTEX
  8
Side_Panel
 10
1359.60655745015
 20
1067.50739136142
 42
0.0
  0
VERTEX
  8
Side_Panel
 10
1359.03718829087
 20
1068.6671470885
 42
0.0
  0
VERTEX
  8
Side_Panel
 10
1294.03468999183
 20
1181.33814413998
 42
0.0
  0
VERTEX
  8
Side_Panel
 10
1293.22326310735
 20
1182.6126928069
 42
0.0
  0
VERTEX
  8
Side_Panel
 10
1292.30380769367
 20
1183.81164636541
 42
0.0
  0
VERTEX
  8
Side_Panel
 10
1291.2833256423
 20
1184.92587447313
 42
0.0
  0
VERTEX
  8
Side_Panel
 10
1290.1695881888
 20
1185.94689199397
 42
0.0
  0
VERTEX
  8
Side_Panel
 10
1288.9710767328
 20
1186.86692361463
 42
0.0
  0
VERTEX
  8
Side_Panel
 10
1287.69691824995
 20
1187.67896305566
 42
0.0
  0
VERTEX
  8
Side_Panel
 10
1286.35681578764
 20
1188.37682642604
 42
0.0
  0
VERTEX
  8
Side_Panel
 10
1284.96097457378
 20
1188.95519931518
 42
0.0
  0
VERTEX
  8
Side_Panel
 10
1283.52002430132
 20
1189.40967726347
 42
0.0
  0
VERTEX
  8
Side_Panel
 10
1282.04493818039
 20
1189.73679930345
 42
0.0
  0
VERTEX
  8
Side_Panel
 10
1280.54694937447
 20
1189.93407431591
 42
0.0
  0
VERTEX
  8
Side_Panel
 10
1279.03746545693
 20
1190.00000000046
 42
0.0
  0
SEQEND
  0
POLYLINE
  8
Side_Panel
 66
     1
 10
0.0
 20
0.0
 30
0.0
 70
     1
  0
VERTEX
  8
Side_Panel
 10
40.0374654573159
 20
614.999999999632
 42
0.0
  0
VERTEX
  8
Side_Panel
 10
46.0374654573159
 20
614.999999999636
 42
0.0
  0
VERTEX
  8
Side_Panel
 10
46.0374654573226
 20
604.999999999636
 42
0.0
  0
VERTEX
  8
Side_Panel
 10
40.0374654573226
 20
604.999999999632
 42
0.0
  0
SEQEND
  0
POLYLINE
  8
Side_Panel
 66
     1
 10
0.0
 20
0.0
 30
0.0
 70
     1
  0
VERTEX
  8
Side_Panel
 10
82.0374654573233
 20
604.999999999659
 42
0.0
  0
VERTEX
  8
Side_Panel
 10
88.0374654573241
 20
604.999999999663
 42
0.0
  0
VERTEX
  8
Side_Panel
 10
88.0374654573167
 20
614.999999999664
 42
0.0
  0
VERTEX
  8
Side_Panel
 10
82.0374654573162
 20
614.999999999659
 42
0.0
  0
SEQEND
  0
POLYLINE
  8
Side_Panel
 66
     1
 10
0.0
 20
0.0
 30
0.0
 70
     1
  0
VERTEX
  8
Side_Panel
 10
114.037465457316
 20
614.99999999968
 42
0.0
  0
VERTEX
  8
Side_Panel
 10
108.037465457317
 20
614.999999999677
 42
0.0
  0
VERTEX
  8
Side_Panel
 10
108.037465457324
 20
604.999999999677
 42
0.0
  0
VERTEX
  8
Side_Panel
 10
114.037465457322
 20
604.99999999968
 42
0.0
  0
SEQEND
  0
POLYLINE
  8
Side_Panel
 66
     1
 10
0.0
 20
0.0
 30
0.0
 70
     1
  0
VERTEX
  8
Side_Panel
 10
104.037465456935
 20
1174.99999999967
 42
0.0
  0
VERTEX
  8
Side_Panel
 10
98.0374654569339
 20
1174.99999999967
 42
0.0
  0
VERTEX
  8
Side_Panel
 10
98.0374654569403
 20
1164.99999999967
 42
0.0
  0
VERTEX
  8
Side_Panel
 10
104.037465456948
 20
1164.99999999967
 42
0.0
  0
SEQEND
  0
POLYLINE
  8
Side_Panel
 66
     1
 10
0.0
 20
0.0
 30
0.0
 70
     1
  0
VERTEX
  8
Side_Panel
 10
130.037465456935
 20
1174.99999999969
 42
0.0
  0
VERTEX
  8
Side_Panel
 10
130.037465456941
 20
1164.99999999969
 42
0.0
  0
VERTEX
  8
Side_Panel
 10
124.037465456941
 20
1164.99999999969
 42
0.0
  0
VERTEX
  8
Side_Panel
 10
124.037465456935
 20
1174.99999999968
 42
0.0
  0
SEQEND
  0
POLYLINE
  8
Side_Panel
 66
     1
 10
0.0
 20
0.0
 30
0.0
 70
     1
  0
VERTEX
  8
Side_Panel
 10
404.037465456935
 20
1174.99999999987
 42
0.0
  0
VERTEX
  8
Side_Panel
 10
398.037465456934
 20
1174.99999999987
 42
0.0
  0
VERTEX
  8
Side_Panel
 10
398.03746545694
 20
1164.99999999987
 42
0.0
  0
VERTEX
  8
Side_Panel
 10
404.037465456941
 20
1164.99999999987
 42
0.0
  0
SEQEND
  0
POLYLINE
  8
Side_Panel
 66
     1
 10
0.0
 20
0.0
 30
0.0
 70
     1
  0
VERTEX
  8
Side_Panel
 10
424.037465456941
 20
1164.99999999989
 42
0.0
  0
VERTEX
  8
Side_Panel
 10
430.037465456941
 20
1164.99999999989
 42
0.0
  0
VERTEX
  8
Side_Panel
 10
430.037465456934
 20
1174.99999999989
 42
0.0
  0
VERTEX
  8
Side_Panel
 10
424.037465456935
 20
1174.99999999989
 42
0.0
  0
SEQEND
  0
POLYLINE
  8
Side_Panel
 66
     1
 10
0.0
 20
0.0
 30
0.0
 70
     1
  0
VERTEX
  8
Side_Panel
 10
627.178730433377
 20
1175.00000000002
 42
0.0
  0
VERTEX
  8
Side_Panel
 10
621.178730433377
 20
1175.00000000002
 42
0.0
  0
VERTEX
  8
Side_Panel
 10
621.178730433383
 20
1165.00000000002
 42
0.0
  0
VERTEX
  8
Side_Panel
 10
627.178730433383
 20
1165.00000000002
 42
0.0
  0
SEQEND
  0
POLYLINE
  8
Side_Panel
 66
     1
 10
0.0
 20
0.0
 30
0.0
 70
     1
  0
VERTEX
  8
Side_Panel
 10
653.178730433377
 20
1175.00000000004
 42
0.0
  0
VERTEX
  8
Side_Panel
 10
653.178730433384
 20
1165.00000000004
 42
0.0
  0
VERTEX
  8
Side_Panel
 10
647.178730433384
 20
1165.00000000004
 42
0.0
  0
VERTEX
  8
Side_Panel
 10
647.178730433378
 20
1175.00000000004
 42
0.0
  0
SEQEND
  0
POLYLINE
  8
Side_Panel
 66
     1
 10
0.0
 20
0.0
 30
0.0
 70
     1
  0
VERTEX
  8
Side_Panel
 10
850.31999540982
 20
1175.00000000017
 42
0.0
  0
VERTEX
  8
Side_Panel
 10
844.319995409819
 20
1175.00000000017
 42
0.0
  0
VERTEX
  8
Side_Panel
 10
844.319995409826
 20
1165.00000000017
 42
0.0
  0
VERTEX
  8
Side_Panel
 10
850.319995409826
 20
1165.00000000017
 42
0.0
  0
SEQEND
  0
POLYLINE
  8
Side_Panel
 66
     1
 10
0.0
 20
0.0
 30
0.0
 70
     1
  0
VERTEX
  8
Side_Panel
 10
870.319995409827
 20
1165.00000000019
 42
0.0
  0
VERTEX
  8
Side_Panel
 10
876.319995409827
 20
1165.00000000019
 42
0.0
  0
VERTEX
  8
Side_Panel
 10
876.31999540982
 20
1175.00000000019
 42
0.0
  0
VERTEX
  8
Side_Panel
 10
870.31999540982
 20
1175.00000000019
 42
0.0
  0
SEQEND
  0
POLYLINE
  8
Side_Panel
 66
     1
 10
0.0
 20
0.0
 30
0.0
 70
     1
  0
VERTEX
  8
Side_Panel
 10
1150.31999540982
 20
1175.00000000038
 42
0.0
  0
VERTEX
  8
Side_Panel
 10
1144.31999540982
 20
1175.00000000037
 42
0.0
  0
VERTEX
  8
Side_Panel
 10
1144.31999540983
 20
1165.00000000037
 42
0.0
  0
VERTEX
  8
Side_Panel
 10
1150.31999540983
 20
1165.00000000037
 42
0.0
  0
SEQEND
  0
POLYLINE
  8
Side_Panel
 66
     1
 10
0.0
 20
0.0
 30
0.0
 70
     1
  0
VERTEX
  8
Side_Panel
 10
1170.31999540983
 20
1165.00000000039
 42
0.0
  0
VERTEX
  8
Side_Panel
 10
1176.31999540983
 20
1165.00000000039
 42
0.0
  0
VERTEX
  8
Side_Panel
 10
1176.31999540982
 20
1175.00000000039
 42
0.0
  0
VERTEX
  8
Side_Panel
 10
1170.31999540982
 20
1175.00000000039
 42
0.0
  0
SEQEND
  0
POLYLINE
  8
Side_Panel
 66
     1
 10
0.0
 20
0.0
 30
0.0
 70
     9
  0
VERTEX
  8
Side_Panel
 10
1222.96286420998
 20
1145.29862770769
 30
0.0
 42
0.0
  0
VERTEX
  8
Side_Panel
 10
1217.65568265898
 20
1142.49973078485
 30
0.0
 42
0.0
  0
VERTEX
  8
Side_Panel
 10
1222.32051086372
 20
1133.65442819985
 30
0.0
 42
0.0
  0
VERTEX
  8
Side_Panel
 10
1227.62769241472
 20
1136.45332512269
 30
0.0
 42
0.0
  0
SEQEND
  0
POLYLINE
  8
Side_Panel
 66
     1
 10
0.0
 20
0.0
 30
0.0
 70
     1
  0
VERTEX
  8
Side_Panel
 10
1210.83013768652
 20
1138.90008064351
 42
0.0
  0
VERTEX
  8
Side_Panel
 10
1210.83013768653
 20
1132.90008064351
 42
0.0
  0
VERTEX
  8
Side_Panel
 10
1200.83013768653
 20
1132.90008064351
 42
0.0
  0
VERTEX
  8
Side_Panel
 10
1200.83013768653
 20
1133.62628909155
 42
0.0
  0
VERTEX
  8
Side_Panel
 10
1200.83013768652
 20
1138.90008064351
 42
0.0
  0
SEQEND
  0
POLYLINE
  8
Side_Panel
 66
     1
 10
0.0
 20
0.0
 30
0.0
 70
     9
  0
VERTEX
  8
Side_Panel
 10
1260.113135067
 20
1164.8909061676
 30
0.0
 42
0.0
  0
VERTEX
  8
Side_Panel
 10
1254.805953516
 20
1162.09200924476
 30
0.0
 42
0.0
  0
VERTEX
  8
Side_Panel
 10
1259.47078172074
 20
1153.24670665975
 30
0.0
 42
0.0
  0
VERTEX
  8
Side_Panel
 10
1264.77796327174
 20
1156.0456035826
 30
0.0
 42
0.0
  0
SEQEND
  0
POLYLINE
  8
Side_Panel
 66
     1
 10
0.0
 20
0.0
 30
0.0
 70
     9
  0
VERTEX
  8
Side_Panel
 10
1271.45733394897
 20
1170.4444578816
 30
0.0
 42
0.0
  0
VERTEX
  8
Side_Panel
 10
1280.11918980945
 20
1175.4416824165
 30
0.0
 42
0.0
  0
VERTEX
  8
Side_Panel
 10
1283.11752453039
 20
1170.24456890021
 30
0.0
 42
0.0
  0
VERTEX
  8
Side_Panel
 10
1274.45566866991
 20
1165.24734436531
 30
0.0
 42
0.0
  0
SEQEND
  0
POLYLINE
  8
Side_Panel
 66
     1
 10
0.0
 20
0.0
 30
0.0
 70
     9
  0
VERTEX
  8
Side_Panel
 10
1296.11030832114
 20
1147.72374366295
 30
0.0
 42
0.0
  0
VERTEX
  8
Side_Panel
 10
1293.1119736002
 20
1152.92085717924
 30
0.0
 42
0.0
  0
VERTEX
  8
Side_Panel
 10
1284.45011773971
 20
1147.92363264434
 30
0.0
 42
0.0
  0
VERTEX
  8
Side_Panel
 10
1287.44845246065
 20
1142.72651912805
 30
0.0
 42
0.0
  0
SEQEND
  0
POLYLINE
  8
Side_Panel
 66
     1
 10
0.0
 20
0.0
 30
0.0
 70
     9
  0
VERTEX
  8
Side_Panel
 10
1328.592267798
 20
1091.42168056981
 30
0.0
 42
0.0
  0
VERTEX
  8
Side_Panel
 10
1325.59393307706
 20
1096.61879408611
 30
0.0
 42
0.0
  0
VERTEX
  8
Side_Panel
 10
1316.93207721657
 20
1091.6215695512
 30
0.0
 42
0.0
  0
VERTEX
  8
Side_Panel
 10
1319.93041193751
 20
1086.42445603491
 30
0.0
 42
0.0
  0
SEQEND
  0
POLYLINE
  8
Side_Panel
 66
     1
 10
0.0
 20
0.0
 30
0.0
 70
     9
  0
VERTEX
  8
Side_Panel
 10
1329.92486100732
 20
1069.10074431395
 30
0.0
 42
0.0
  0
VERTEX
  8
Side_Panel
 10
1332.92319572826
 20
1063.90363079766
 30
0.0
 42
0.0
  0
VERTEX
  8
Side_Panel
 10
1341.58505158874
 20
1068.90085533256
 30
0.0
 42
0.0
  0
VERTEX
  8
Side_Panel
 10
1338.5867168678
 20
1074.09796884885
 30
0.0
 42
0.0
  0
SEQEND
  0
POLYLINE
  8
Side_Panel
 66
     1
 10
0.0
 20
0.0
 30
0.0
 70
     1
  0
VERTEX
  8
Side_Panel
 10
1200.83013768659
 20
1035.70008064351
 42
0.0
  0
VERTEX
  8
Side_Panel
 10
1200.8301376866
 20
1029.70008064351
 42
0.0
  0
VERTEX
  8
Side_Panel
 10
1210.8301376866
 20
1029.70008064351
 42
0.0
  0
VERTEX
  8
Side_Panel
 10
1210.83013768659
 20
1035.70008064352
 42
0.0
  0
SEQEND
  0
POLYLINE
  8
Side_Panel
 66
     1
 10
0.0
 20
0.0
 30
0.0
 70
     1
  0
VERTEX
  8
Side_Panel
 10
1200.83013768661
 20
1009.70008064351
 42
0.0
  0
VERTEX
  8
Side_Panel
 10
1200.83013768661
 20
1003.70008064351
 42
0.0
  0
VERTEX
  8
Side_Panel
 10
1210.83013768661
 20
1003.70008064352
 42
0.0
  0
VERTEX
  8
Side_Panel
 10
1210.83013768661
 20
1009.70008064352
 42
0.0
  0
SEQEND
  0
POLYLINE
  8
Side_Panel
 66
     1
 10
0.0
 20
0.0
 30
0.0
 70
     1
  0
VERTEX
  8
Side_Panel
 10
1200.83013768654
 20
1112.90008064351
 42
0.0
  0
VERTEX
  8
Side_Panel
 10
1200.83013768655
 20
1106.90008064351
 42
0.0
  0
VERTEX
  8
Side_Panel
 10
1210.83013768655
 20
1106.90008064352
 42
0.0
  0
VERTEX
  8
Side_Panel
 10
1210.83013768654
 20
1112.90008064352
 42
0.0
  0
SEQEND
  0
POLYLINE
  8
Side_Panel
 66
     1
 10
0.0
 20
0.0
 30
0.0
 70
     1
  0
VERTEX
  8
Side_Panel
 10
1180.02060378854
 20
1103.98294959638
 42
0.0
  0
VERTEX
  8
Side_Panel
 10
1186.02060378854
 20
1103.98294959639
 42
0.0
  0
VERTEX
  8
Side_Panel
 10
1186.02060378853
 20
1113.98294959639
 42
0.0
  0
VERTEX
  8
Side_Panel
 10
1180.02060378853
 20
1113.98294959638
 42
0.0
  0
SEQEND
  0
POLYLINE
  8
Side_Panel
 66
     1
 10
0.0
 20
0.0
 30
0.0
 70
     1
  0
VERTEX
  8
Side_Panel
 10
1160.02060378853
 20
1113.98294959637
 42
0.0
  0
VERTEX
  8
Side_Panel
 10
1154.02060378853
 20
1113.98294959636
 42
0.0
  0
VERTEX
  8
Side_Panel
 10
1154.02060378854
 20
1103.98294959636
 42
0.0
  0
VERTEX
  8
Side_Panel
 10
1160.02060378854
 20
1103.98294959637
 42
0.0
  0
SEQEND
  0
POLYLINE
  8
Side_Panel
 66
     1
 10
0.0
 20
0.0
 30
0.0
 70
     1
  0
VERTEX
  8
Side_Panel
 10
1091.02060378854
 20
1103.98294959632
 42
0.0
  0
VERTEX
  8
Side_Panel
 10
1097.02060378854
 20
1103.98294959633
 42
0.0
  0
VERTEX
  8
Side_Panel
 10
1097.02060378853
 20
1113.98294959633
 42
0.0
  0
VERTEX
  8
Side_Panel
 10
1091.02060378853
 20
1113.98294959632
 42
0.0
  0
SEQEND
  0
POLYLINE
  8
Side_Panel
 66
     1
 10
0.0
 20
0.0
 30
0.0
 70
     1
  0
VERTEX
  8
Side_Panel
 10
1065.02060378854
 20
1103.98294959631
 42
0.0
  0
VERTEX
  8
Side_Panel
 10
1071.02060378854
 20
1103.98294959631
 42
0.0
  0
VERTEX
  8
Side_Panel
 10
1071.02060378853
 20
1113.98294959631
 42
0.0
  0
VERTEX
  8
Side_Panel
 10
1065.02060378853
 20
1113.9829495963
 42
0.0
  0
SEQEND
  0
POLYLINE
  8
Side_Panel
 66
     1
 10
0.0
 20
0.0
 30
0.0
 70
     1
  0
VERTEX
  8
Side_Panel
 10
1064.66876247006
 20
1103.56681862814
 42
0.0
  0
VERTEX
  8
Side_Panel
 10
1060.79483852811
 20
1098.98503804718
 42
0.0
  0
VERTEX
  8
Side_Panel
 10
1068.43113949636
 20
1092.52849814393
 42
0.0
  0
VERTEX
  8
Side_Panel
 10
1072.30506343831
 20
1097.11027872488
 42
0.0
  0
SEQEND
  0
POLYLINE
  8
Side_Panel
 66
     1
 10
0.0
 20
0.0
 30
0.0
 70
     1
  0
VERTEX
  8
Side_Panel
 10
1051.64413574791
 20
1072.67411562648
 42
0.0
  0
VERTEX
  8
Side_Panel
 10
1055.51805968986
 20
1077.25589620743
 42
0.0
  0
VERTEX
  8
Side_Panel
 10
1047.88175872161
 20
1083.71243611068
 42
0.0
  0
VERTEX
  8
Side_Panel
 10
1044.00783477966
 20
1079.13065552973
 42
0.0
  0
SEQEND
  0
POLYLINE
  8
Side_Panel
 66
     1
 10
0.0
 20
0.0
 30
0.0
 70
     1
  0
VERTEX
  8
Side_Panel
 10
985.453405347884
 20
1009.87696038253
 42
0.0
  0
VERTEX
  8
Side_Panel
 10
981.579481405936
 20
1005.29517980158
 42
0.0
  0
VERTEX
  8
Side_Panel
 10
989.215782374189
 20
998.838639898328
 42
0.0
  0
VERTEX
  8
Side_Panel
 10
993.089706316138
 20
1003.42042047928
 42
0.0
  0
SEQEND
  0
POLYLINE
  8
Side_Panel
 66
     1
 10
0.0
 20
0.0
 30
0.0
 70
     1
  0
VERTEX
  8
Side_Panel
 10
968.666401599435
 20
990.022577865073
 42
0.0
  0
VERTEX
  8
Side_Panel
 10
964.792477657484
 20
985.440797284121
 42
0.0
  0
VERTEX
  8
Side_Panel
 10
972.428778625736
 20
978.984257380871
 42
0.0
  0
VERTEX
  8
Side_Panel
 10
976.302702567687
 20
983.566037961822
 42
0.0
  0
SEQEND
  0
POLYLINE
  8
Side_Panel
 66
     1
 10
0.0
 20
0.0
 30
0.0
 70
     1
  0
VERTEX
  8
Side_Panel
 10
895.595953777063
 20
888.112275858661
 42
0.0
  0
VERTEX
  8
Side_Panel
 10
899.469877719013
 20
892.694056439613
 42
0.0
  0
VERTEX
  8
Side_Panel
 10
891.833576750758
 20
899.150596342864
 42
0.0
  0
VERTEX
  8
Side_Panel
 10
887.95965280881
 20
894.568815761911
 42
0.0
  0
SEQEND
  0
POLYLINE
  8
Side_Panel
 66
     1
 10
0.0
 20
0.0
 30
0.0
 70
     1
  0
VERTEX
  8
Side_Panel
 10
878.808950028612
 20
868.257893341203
 42
0.0
  0
VERTEX
  8
Side_Panel
 10
882.682873970563
 20
872.839673922154
 42
0.0
  0
VERTEX
  8
Side_Panel
 10
875.046573002309
 20
879.296213825405
 42
0.0
  0
VERTEX
  8
Side_Panel
 10
871.172649060358
 20
874.714433244453
 42
0.0
  0
SEQEND
  0
POLYLINE
  8
Side_Panel
 66
     1
 10
0.0
 20
0.0
 30
0.0
 70
     1
  0
VERTEX
  8
Side_Panel
 10
816.380596654884
 20
794.422417613057
 42
0.0
  0
VERTEX
  8
Side_Panel
 10
820.254520596835
 20
799.004198194007
 42
0.0
  0
VERTEX
  8
Side_Panel
 10
812.61821962858
 20
805.460738097259
 42
0.0
  0
VERTEX
  8
Side_Panel
 10
808.744295686631
 20
800.878957516306
 42
0.0
  0
SEQEND
  0
POLYLINE
  8
Side_Panel
 66
     1
 10
0.0
 20
0.0
 30
0.0
 70
     1
  0
VERTEX
  8
Side_Panel
 10
799.593592906433
 20
774.568035095598
 42
0.0
  0
VERTEX
  8
Side_Panel
 10
803.467516848384
 20
779.14981567655
 42
0.0
  0
VERTEX
  8
Side_Panel
 10
795.831215880131
 20
785.6063555798
 42
0.0
  0
VERTEX
  8
Side_Panel
 10
791.95729193818
 20
781.024574998848
 42
0.0
  0
SEQEND
  0
POLYLINE
  8
Side_Panel
 66
     1
 10
0.0
 20
0.0
 30
0.0
 70
     1
  0
VERTEX
  8
Side_Panel
 10
779.689866122004
 20
766.51560315917
 42
0.0
  0
VERTEX
  8
Side_Panel
 10
784.271646702957
 20
762.641679217222
 42
0.0
  0
VERTEX
  8
Side_Panel
 10
790.728186606208
 20
770.277980185476
 42
0.0
  0
VERTEX
  8
Side_Panel
 10
786.146406025255
 20
774.151904127422
 42
0.0
  0
SEQEND
  0
POLYLINE
  8
Side_Panel
 66
     1
 10
0.0
 20
0.0
 30
0.0
 70
     1
  0
VERTEX
  8
Side_Panel
 10
810.582569123666
 20
753.490976437024
 42
0.0
  0
VERTEX
  8
Side_Panel
 10
806.000788542714
 20
757.364900378974
 42
0.0
  0
VERTEX
  8
Side_Panel
 10
799.544248639464
 20
749.728599410722
 42
0.0
  0
VERTEX
  8
Side_Panel
 10
804.126029220415
 20
745.854675468772
 42
0.0
  0
SEQEND
  0
POLYLINE
  8
Side_Panel
 66
     1
 10
0.0
 20
0.0
 30
0.0
 70
     1
  0
VERTEX
  8
Side_Panel
 10
831.616712706125
 20
722.611131817069
 42
0.0
  0
VERTEX
  8
Side_Panel
 10
836.198493287078
 20
718.737207875119
 42
0.0
  0
VERTEX
  8
Side_Panel
 10
842.655033190328
 20
726.373508843373
 42
0.0
  0
VERTEX
  8
Side_Panel
 10
838.073252609374
 20
730.247432785322
 42
0.0
  0
SEQEND
  0
POLYLINE
  8
Side_Panel
 66
     1
 10
0.0
 20
0.0
 30
0.0
 70
     1
  0
VERTEX
  8
Side_Panel
 10
862.509415707783
 20
709.586505094922
 42
0.0
  0
VERTEX
  8
Side_Panel
 10
857.927635126833
 20
713.460429036872
 42
0.0
  0
VERTEX
  8
Side_Panel
 10
851.471095223584
 20
705.82412806862
 42
0.0
  0
VERTEX
  8
Side_Panel
 10
856.052875804534
 20
701.950204126669
 42
0.0
  0
SEQEND
  0
POLYLINE
  8
Side_Panel
 66
     1
 10
0.0
 20
0.0
 30
0.0
 70
     1
  0
VERTEX
  8
Side_Panel
 10
723.294160975892
 20
615.000000000088
 42
0.0
  0
VERTEX
  8
Side_Panel
 10
717.294160975894
 20
615.000000000085
 42
0.0
  0
VERTEX
  8
Side_Panel
 10
717.294160975901
 20
605.000000000085
 42
0.0
  0
VERTEX
  8
Side_Panel
 10
723.294160975899
 20
605.000000000088
 42
0.0
  0
SEQEND
  0
POLYLINE
  8
Side_Panel
 66
     1
 10
0.0
 20
0.0
 30
0.0
 70
     1
  0
VERTEX
  8
Side_Panel
 10
691.2941609759
 20
605.000000000066
 42
0.0
  0
VERTEX
  8
Side_Panel
 10
697.294160975901
 20
605.000000000071
 42
0.0
  0
VERTEX
  8
Side_Panel
 10
697.294160975893
 20
615.000000000072
 42
0.0
  0
VERTEX
  8
Side_Panel
 10
691.294160975893
 20
615.000000000067
 42
0.0
  0
SEQEND
  0
POLYLINE
  8
Side_Panel
 66
     1
 10
0.0
 20
0.0
 30
0.0
 70
     1
  0
VERTEX
  8
Side_Panel
 10
655.294160975892
 20
615.000000000044
 42
0.0
  0
VERTEX
  8
Side_Panel
 10
649.294160975892
 20
615.00000000004
 42
0.0
  0
VERTEX
  8
Side_Panel
 10
649.294160975899
 20
605.00000000004
 42
0.0
  0
VERTEX
  8
Side_Panel
 10
655.294160975899
 20
605.000000000044
 42
0.0
  0
SEQEND
  0
POLYLINE
  8
Side_Panel
 66
     1
 10
0.0
 20
0.0
 30
0.0
 70
     1
  0
VERTEX
  8
Side_Panel
 10
623.294160975899
 20
605.000000000021
 42
0.0
  0
VERTEX
  8
Side_Panel
 10
629.294160975899
 20
605.000000000026
 42
0.0
  0
VERTEX
  8
Side_Panel
 10
629.294160975892
 20
615.000000000026
 42
0.0
  0
VERTEX
  8
Side_Panel
 10
623.294160975892
 20
615.000000000021
 42
0.0
  0
SEQEND
  0
CIRCLE
  8
Side_Panel
 10
88.2734324613559
 20
1122.39999999966
 30
0.0
 40
4.0
  0
POLYLINE
  8
Side_Panel
 66
     1
 10
0.0
 20
0.0
 30
0.0
 70
     1
  0
VERTEX
  8
Side_Panel
 10
845.874580539571
 20
672.013960475944
 42
0.0
  0
VERTEX
  8
Side_Panel
 10
843.943168830721
 20
666.333322412228
 42
0.0
  0
VERTEX
  8
Side_Panel
 10
834.47543872453
 20
669.552341926973
 42
0.0
  0
VERTEX
  8
Side_Panel
 10
836.406850433376
 20
675.23297999069
 42
0.0
  0
SEQEND
  0
POLYLINE
  8
Side_Panel
 66
     1
 10
0.0
 20
0.0
 30
0.0
 70
     1
  0
VERTEX
  8
Side_Panel
 10
835.573718092387
 20
641.717224136129
 42
0.0
  0
VERTEX
  8
Side_Panel
 10
826.105987986196
 20
644.936243650873
 42
0.0
  0
VERTEX
  8
Side_Panel
 10
828.037399695042
 20
650.616881714588
 42
0.0
  0
VERTEX
  8
Side_Panel
 10
837.505129801235
 20
647.397862199843
 42
0.0
  0
SEQEND
  0
POLYLINE
  8
Side_Panel
 66
     1
 10
0.0
 20
0.0
 30
0.0
 70
     1
  0
VERTEX
  8
Side_Panel
 10
753.61092684856
 20
615.000000000107
 42
0.0
  0
VERTEX
  8
Side_Panel
 10
753.610926848567
 20
605.000000000107
 42
0.0
  0
VERTEX
  8
Side_Panel
 10
759.610926848568
 20
605.000000000111
 42
0.0
  0
VERTEX
  8
Side_Panel
 10
759.610926848561
 20
615.000000000112
 42
0.0
  0
SEQEND
  0
POLYLINE
  8
Side_Panel
 66
     1
 10
0.0
 20
0.0
 30
0.0
 70
     1
  0
VERTEX
  8
Side_Panel
 10
779.610926848568
 20
605.000000000126
 42
0.0
  0
VERTEX
  8
Side_Panel
 10
785.610926848568
 20
605.000000000127
 42
0.0
  0
VERTEX
  8
Side_Panel
 10
785.610926848561
 20
615.00000000013
 42
0.0
  0
VERTEX
  8
Side_Panel
 10
779.610926848561
 20
615.000000000126
 42
0.0
  0
SEQEND
  0
CIRCLE
  8
Side_Panel
 10
34.1771831820804
 20
1144.99999999963
 30
0.0
 40
4.0
  0
CIRCLE
  8
Side_Panel
 10
114.037465456939
 20
1169.99999999968
 30
0.0
 40
4.0
  0
CIRCLE
  8
Side_Panel
 10
414.037465456938
 20
1169.99999999988
 30
0.0
 40
4.0
  0
CIRCLE
  8
Side_Panel
 10
637.178730433381
 20
1170.00000000003
 30
0.0
 40
4.0
  0
CIRCLE
  8
Side_Panel
 10
648.294160975531
 20
1155.00000000004
 30
0.0
 40
4.0
  0
CIRCLE
  8
Side_Panel
 10
698.294160975544
 20
1135.00000000007
 30
0.0
 40
4.0
  0
CIRCLE
  8
Side_Panel
 10
860.319995409824
 20
1170.00000000018
 30
0.0
 40
4.0
  0
CIRCLE
  8
Side_Panel
 10
1035.02060378851
 20
1145.0000000003
 30
0.0
 40
4.0
  0
CIRCLE
  8
Side_Panel
 10
1035.02060378854
 20
1095.25349865641
 30
0.0
 40
4.0
  0
CIRCLE
  8
Side_Panel
 10
1058.15644910899
 20
1088.12046712731
 30
0.0
 40
4.0
  0
CIRCLE
  8
Side_Panel
 10
1081.02060378853
 20
1108.98294959632
 30
0.0
 40
4.0
  0
CIRCLE
  8
Side_Panel
 10
1096.41928025581
 20
1058.25717992476
 30
0.0
 40
4.0
  0
CIRCLE
  8
Side_Panel
 10
1160.31999540982
 20
1170.00000000038
 30
0.0
 40
4.0
  0
CIRCLE
  8
Side_Panel
 10
1179.31039107566
 20
1145.00000000039
 30
0.0
 40
4.0
  0
CIRCLE
  8
Side_Panel
 10
1170.02060378853
 20
1108.98294959638
 30
0.0
 40
4.0
  0
CIRCLE
  8
Side_Panel
 10
1205.83013768654
 20
1122.90008064351
 30
0.0
 40
4.0
  0
CIRCLE
  8
Side_Panel
 10
1241.04882275142
 20
1149.18406737282
 30
0.0
 40
4.0
  0
CIRCLE
  8
Side_Panel
 10
1283.78382113506
 20
1159.08410077228
 30
0.0
 40
4.0
  0
CIRCLE
  8
Side_Panel
 10
1329.25856440264
 20
1080.26121244187
 30
0.0
 40
4.0
  0
CIRCLE
  8
Side_Panel
 10
1205.8301376866
 20
1019.70008064351
 30
0.0
 40
4.0
  0
CIRCLE
  8
Side_Panel
 10
978.94109198681
 20
994.430608881701
 30
0.0
 40
4.0
  0
CIRCLE
  8
Side_Panel
 10
969.167237384273
 20
907.753208331105
 30
0.0
 40
4.0
  0
CIRCLE
  8
Side_Panel
 10
885.321263389684
 20
883.704244842034
 30
0.0
 40
4.0
  0
CIRCLE
  8
Side_Panel
 10
764.68986612197
 20
817.251774255993
 30
0.0
 40
4.0
  0
CIRCLE
  8
Side_Panel
 10
800.79263844088
 20
817.251774256017
 30
0.0
 40
4.0
  0
CIRCLE
  8
Side_Panel
 10
806.105906267506
 20
790.01438659643
 30
0.0
 40
4.0
  0
CIRCLE
  8
Side_Panel
 10
865.739855624908
 20
785.427221454552
 30
0.0
 40
4.0
  0
CIRCLE
  8
Side_Panel
 10
795.136217622835
 20
760.003289798099
 30
0.0
 40
4.0
  0
CIRCLE
  8
Side_Panel
 10
764.689866122029
 20
729.640292572914
 30
0.0
 40
4.0
  0
CIRCLE
  8
Side_Panel
 10
800.792638440938
 20
729.640292572939
 30
0.0
 40
4.0
  0
CIRCLE
  8
Side_Panel
 10
847.063064206954
 20
716.098818455996
 30
0.0
 40
4.0
  0
CIRCLE
  8
Side_Panel
 10
835.990284262882
 20
658.475102063408
 30
0.0
 40
4.0
  0
CIRCLE
  8
Side_Panel
 10
819.835084827935
 20
650.555723827583
 30
0.0
 40
4.0
  0
CIRCLE
  8
Side_Panel
 10
767.537587372449
 20
637.711590540611
 30
0.0
 40
4.0
  0
CIRCLE
  8
Side_Panel
 10
769.610926848565
 20
610.000000000119
 30
0.0
 40
4.0
  0
CIRCLE
  8
Side_Panel
 10
635.794160975872
 20
645.000000000029
 30
0.0
 40
4.0
  0
CIRCLE
  8
Side_Panel
 10
639.294160975896
 20
610.000000000032
 30
0.0
 40
4.0
  0
CIRCLE
  8
Side_Panel
 10
685.794160975885
 20
625.000000000063
 30
0.0
 40
4.0
  0
CIRCLE
  8
Side_Panel
 10
707.294160975897
 20
610.000000000077
 30
0.0
 40
4.0
  0
CIRCLE
  8
Side_Panel
 10
343.665813216584
 20
644.999999999834
 30
0.0
 40
4.0
  0
CIRCLE
  8
Side_Panel
 10
393.665813216597
 20
624.999999999867
 30
0.0
 40
4.0
  0
CIRCLE
  8
Side_Panel
 10
88.273432461667
 20
657.599999999662
 30
0.0
 40
4.0
  0
CIRCLE
  8
Side_Panel
 10
98.0374654573209
 20
609.999999999669
 30
0.0
 40
4.0
  0
CIRCLE
  8
Side_Panel
 10
30.0374654573191
 20
609.999999999624
 30
0.0
 40
4.0
  0
CIRCLE
  8
Side_Panel
 10
34.1771831824217
 20
634.999999999626
 30
0.0
 40
4.0
  0
POLYLINE
  8
Single_panels
 66
     1
 10
0.0
 20
0.0
 30
0.0
 70
     1
  0
VERTEX
  8
Single_panels
 10
18.4807809446421
 20
515.87201301795
 42
0.0
  0
VERTEX
  8
Single_panels
 10
28.4807809446413
 20
515.87201301795
 42
0.0
  0
VERTEX
  8
Single_panels
 10
28.4807809446427
 20
551.872013017951
 42
0.0
  0
VERTEX
  8
Single_panels
 10
18.4807809446428
 20
551.872013017951
 42
0.0
  0
VERTEX
  8
Single_panels
 10
18.4807809446421
 20
557.872013017951
 42
0.0
  0
VERTEX
  8
Single_panels
 10
28.4807809446427
 20
557.872013017952
 42
0.0
  0
VERTEX
  8
Single_panels
 10
28.4807809446427
 20
563.872013017952
 42
0.0
  0
VERTEX
  8
Single_panels
 10
41.9807809446425
 20
563.872013017951
 42
0.0
  0
VERTEX
  8
Single_panels
 10
41.9807809446425
 20
561.372013017952
 42
0.0
  0
VERTEX
  8
Single_panels
 10
48.4807809446425
 20
561.372013017952
 42
0.0
  0
VERTEX
  8
Single_panels
 10
48.4807809446425
 20
563.872013017951
 42
0.0
  0
VERTEX
  8
Single_panels
 10
53.4807809446428
 20
563.872013017952
 42
0.0
  0
VERTEX
  8
Single_panels
 10
53.4807809446428
 20
571.872013017952
 42
0.0
  0
VERTEX
  8
Single_panels
 10
48.480780944641
 20
571.872013017951
 42
0.0
  0
VERTEX
  8
Single_panels
 10
48.4807809446418
 20
574.372013017952
 42
0.0
  0
VERTEX
  8
Single_panels
 10
41.9807809446418
 20
574.372013017952
 42
0.0
  0
VERTEX
  8
Single_panels
 10
41.9807809446418
 20
571.872013017951
 42
0.0
  0
VERTEX
  8
Single_panels
 10
28.4807809446427
 20
571.872013017953
 42
0.0
  0
VERTEX
  8
Single_panels
 10
28.4807809446413
 20
577.872013017952
 42
0.0
  0
VERTEX
  8
Single_panels
 10
18.4807809446421
 20
577.872013017952
 42
0.0
  0
VERTEX
  8
Single_panels
 10
18.4807809446421
 20
583.87201301795
 42
0.0
  0
VERTEX
  8
Single_panels
 10
668.480780944643
 20
583.872013017952
 42
0.0
  0
VERTEX
  8
Single_panels
 10
668.480780944643
 20
577.872013017954
 42
0.0
  0
VERTEX
  8
Single_panels
 10
658.480780944643
 20
577.872013017954
 42
0.0
  0
VERTEX
  8
Single_panels
 10
658.480780944642
 20
571.872013017955
 42
0.0
  0
VERTEX
  8
Single_panels
 10
644.980780944643
 20
571.872013017953
 42
0.0
  0
VERTEX
  8
Single_panels
 10
644.980780944643
 20
574.372013017955
 42
0.0
  0
VERTEX
  8
Single_panels
 10
638.480780944643
 20
574.372013017954
 42
0.0
  0
VERTEX
  8
Single_panels
 10
638.480780944643
 20
571.872013017953
 42
0.0
  0
VERTEX
  8
Single_panels
 10
633.480780944642
 20
571.872013017954
 42
0.0
  0
VERTEX
  8
Single_panels
 10
633.480780944642
 20
563.872013017954
 42
0.0
  0
VERTEX
  8
Single_panels
 10
638.480780944642
 20
563.872013017954
 42
0.0
  0
VERTEX
  8
Single_panels
 10
638.480780944642
 20
561.372013017954
 42
0.0
  0
VERTEX
  8
Single_panels
 10
644.980780944641
 20
561.372013017954
 42
0.0
  0
VERTEX
  8
Single_panels
 10
644.980780944642
 20
563.872013017954
 42
0.0
  0
VERTEX
  8
Single_panels
 10
658.480780944642
 20
563.872013017954
 42
0.0
  0
VERTEX
  8
Single_panels
 10
658.480780944642
 20
557.872013017954
 42
0.0
  0
VERTEX
  8
Single_panels
 10
668.480780944642
 20
557.872013017953
 42
0.0
  0
VERTEX
  8
Single_panels
 10
668.480780944642
 20
551.872013017953
 42
0.0
  0
VERTEX
  8
Single_panels
 10
658.480780944641
 20
551.872013017953
 42
0.0
  0
VERTEX
  8
Single_panels
 10
658.480780944643
 20
515.872013017953
 42
0.0
  0
VERTEX
  8
Single_panels
 10
668.480780944643
 20
515.872013017953
 42
0.0
  0
VERTEX
  8
Single_panels
 10
668.480780944643
 20
509.872013017953
 42
0.0
  0
VERTEX
  8
Single_panels
 10
658.480780944643
 20
509.872013017953
 42
0.0
  0
VERTEX
  8
Single_panels
 10
658.480780944643
 20
503.872013017952
 42
0.0
  0
VERTEX
  8
Single_panels
 10
644.980780944643
 20
503.872013017952
 42
0.0
  0
VERTEX
  8
Single_panels
 10
644.980780944643
 20
506.372013017952
 42
0.0
  0
VERTEX
  8
Single_panels
 10
638.480780944643
 20
506.372013017952
 42
0.0
  0
VERTEX
  8
Single_panels
 10
638.480780944643
 20
503.872013017952
 42
0.0
  0
VERTEX
  8
Single_panels
 10
633.480780944643
 20
503.872013017952
 42
0.0
  0
VERTEX
  8
Single_panels
 10
633.480780944643
 20
495.872013017953
 42
0.0
  0
VERTEX
  8
Single_panels
 10
638.480780944643
 20
495.872013017953
 42
0.0
  0
VERTEX
  8
Single_panels
 10
638.480780944643
 20
493.372013017953
 42
0.0
  0
VERTEX
  8
Single_panels
 10
644.980780944643
 20
493.372013017952
 42
0.0
  0
VERTEX
  8
Single_panels
 10
644.980780944643
 20
495.872013017953
 42
0.0
  0
VERTEX
  8
Single_panels
 10
658.480780944643
 20
495.872013017953
 42
0.0
  0
VERTEX
  8
Single_panels
 10
658.480780944643
 20
489.872013017952
 42
0.0
  0
VERTEX
  8
Single_panels
 10
668.480780944643
 20
489.872013017952
 42
0.0
  0
VERTEX
  8
Single_panels
 10
668.480780944643
 20
483.872013017952
 42
0.0
  0
VERTEX
  8
Single_panels
 10
18.4807809446421
 20
483.87201301795
 42
0.0
  0
VERTEX
  8
Single_panels
 10
18.4807809446421
 20
489.87201301795
 42
0.0
  0
VERTEX
  8
Single_panels
 10
28.4807809446413
 20
489.87201301795
 42
0.0
  0
VERTEX
  8
Single_panels
 10
28.4807809446413
 20
495.87201301795
 42
0.0
  0
VERTEX
  8
Single_panels
 10
41.9807809446411
 20
495.87201301795
 42
0.0
  0
VERTEX
  8
Single_panels
 10
41.9807809446411
 20
493.37201301795
 42
0.0
  0
VERTEX
  8
Single_panels
 10
48.4807809446418
 20
493.37201301795
 42
0.0
  0
VERTEX
  8
Single_panels
 10
48.4807809446418
 20
495.87201301795
 42
0.0
  0
VERTEX
  8
Single_panels
 10
53.4807809446414
 20
495.87201301795
 42
0.0
  0
VERTEX
  8
Single_panels
 10
53.4807809446414
 20
503.87201301795
 42
0.0
  0
VERTEX
  8
Single_panels
 10
48.480780944641
 20
503.87201301795
 42
0.0
  0
VERTEX
  8
Single_panels
 10
48.480780944641
 20
506.37201301795
 42
0.0
  0
VERTEX
  8
Single_panels
 10
41.9807809446411
 20
506.37201301795
 42
0.0
  0
VERTEX
  8
Single_panels
 10
41.9807809446411
 20
503.87201301795
 42
0.0
  0
VERTEX
  8
Single_panels
 10
28.4807809446413
 20
503.87201301795
 42
0.0
  0
VERTEX
  8
Single_panels
 10
28.4807809446413
 20
509.87201301795
 42
0.0
  0
VERTEX
  8
Single_panels
 10
18.4807809446421
 20
509.87201301795
 42
0.0
  0
SEQEND
  0
POLYLINE
  8
Single_panels
 66
     1
 10
0.0
 20
0.0
 30
0.0
 70
     1
  0
VERTEX
  8
Single_panels
 10
18.022212247493
 20
405.87201301795
 42
0.0
  0
VERTEX
  8
Single_panels
 10
28.0222122474922
 20
405.87201301795
 42
0.0
  0
VERTEX
  8
Single_panels
 10
28.0222122474936
 20
441.872013017951
 42
0.0
  0
VERTEX
  8
Single_panels
 10
18.0222122474937
 20
441.87201301795
 42
0.0
  0
VERTEX
  8
Single_panels
 10
18.022212247493
 20
447.872013017951
 42
0.0
  0
VERTEX
  8
Single_panels
 10
28.0222122474936
 20
447.872013017952
 42
0.0
  0
VERTEX
  8
Single_panels
 10
28.0222122474936
 20
453.872013017952
 42
0.0
  0
VERTEX
  8
Single_panels
 10
41.5222122474934
 20
453.872013017951
 42
0.0
  0
VERTEX
  8
Single_panels
 10
41.5222122474934
 20
451.372013017951
 42
0.0
  0
VERTEX
  8
Single_panels
 10
48.0222122474934
 20
451.372013017951
 42
0.0
  0
VERTEX
  8
Single_panels
 10
48.0222122474934
 20
453.872013017951
 42
0.0
  0
VERTEX
  8
Single_panels
 10
53.0222122474937
 20
453.872013017952
 42
0.0
  0
VERTEX
  8
Single_panels
 10
53.0222122474937
 20
461.872013017951
 42
0.0
  0
VERTEX
  8
Single_panels
 10
48.022212247492
 20
461.872013017951
 42
0.0
  0
VERTEX
  8
Single_panels
 10
48.0222122474927
 20
464.372013017952
 42
0.0
  0
VERTEX
  8
Single_panels
 10
41.5222122474927
 20
464.372013017952
 42
0.0
  0
VERTEX
  8
Single_panels
 10
41.5222122474927
 20
461.872013017951
 42
0.0
  0
VERTEX
  8
Single_panels
 10
28.0222122474936
 20
461.872013017953
 42
0.0
  0
VERTEX
  8
Single_panels
 10
28.0222122474922
 20
467.872013017952
 42
0.0
  0
VERTEX
  8
Single_panels
 10
18.022212247493
 20
467.872013017951
 42
0.0
  0
VERTEX
  8
Single_panels
 10
18.022212247493
 20
473.87201301795
 42
0.0
  0
VERTEX
  8
Single_panels
 10
668.022212247493
 20
473.872013017952
 42
0.0
  0
VERTEX
  8
Single_panels
 10
668.022212247493
 20
467.872013017954
 42
0.0
  0
VERTEX
  8
Single_panels
 10
658.022212247494
 20
467.872013017954
 42
0.0
  0
VERTEX
  8
Single_panels
 10
658.022212247493
 20
461.872013017955
 42
0.0
  0
VERTEX
  8
Single_panels
 10
644.522212247493
 20
461.872013017953
 42
0.0
  0
VERTEX
  8
Single_panels
 10
644.522212247493
 20
464.372013017954
 42
0.0
  0
VERTEX
  8
Single_panels
 10
638.022212247493
 20
464.372013017954
 42
0.0
  0
VERTEX
  8
Single_panels
 10
638.022212247494
 20
461.872013017953
 42
0.0
  0
VERTEX
  8
Single_panels
 10
633.022212247492
 20
461.872013017954
 42
0.0
  0
VERTEX
  8
Single_panels
 10
633.022212247492
 20
453.872013017954
 42
0.0
  0
VERTEX
  8
Single_panels
 10
638.022212247493
 20
453.872013017954
 42
0.0
  0
VERTEX
  8
Single_panels
 10
638.022212247492
 20
451.372013017954
 42
0.0
  0
VERTEX
  8
Single_panels
 10
644.522212247492
 20
451.372013017954
 42
0.0
  0
VERTEX
  8
Single_panels
 10
644.522212247493
 20
453.872013017954
 42
0.0
  0
VERTEX
  8
Single_panels
 10
658.022212247493
 20
453.872013017954
 42
0.0
  0
VERTEX
  8
Single_panels
 10
658.022212247492
 20
447.872013017954
 42
0.0
  0
VERTEX
  8
Single_panels
 10
668.022212247493
 20
447.872013017953
 42
0.0
  0
VERTEX
  8
Single_panels
 10
668.022212247492
 20
441.872013017953
 42
0.0
  0
VERTEX
  8
Single_panels
 10
658.022212247492
 20
441.872013017953
 42
0.0
  0
VERTEX
  8
Single_panels
 10
658.022212247494
 20
405.872013017952
 42
0.0
  0
VERTEX
  8
Single_panels
 10
668.022212247493
 20
405.872013017952
 42
0.0
  0
VERTEX
  8
Single_panels
 10
668.022212247493
 20
399.872013017952
 42
0.0
  0
VERTEX
  8
Single_panels
 10
658.022212247494
 20
399.872013017952
 42
0.0
  0
VERTEX
  8
Single_panels
 10
658.022212247494
 20
393.872013017952
 42
0.0
  0
VERTEX
  8
Single_panels
 10
644.522212247494
 20
393.872013017952
 42
0.0
  0
VERTEX
  8
Single_panels
 10
644.522212247494
 20
396.372013017952
 42
0.0
  0
VERTEX
  8
Single_panels
 10
638.022212247494
 20
396.372013017952
 42
0.0
  0
VERTEX
  8
Single_panels
 10
638.022212247494
 20
393.872013017952
 42
0.0
  0
VERTEX
  8
Single_panels
 10
633.022212247493
 20
393.872013017952
 42
0.0
  0
VERTEX
  8
Single_panels
 10
633.022212247493
 20
385.872013017952
 42
0.0
  0
VERTEX
  8
Single_panels
 10
638.022212247493
 20
385.872013017952
 42
0.0
  0
VERTEX
  8
Single_panels
 10
638.022212247493
 20
383.372013017953
 42
0.0
  0
VERTEX
  8
Single_panels
 10
644.522212247494
 20
383.372013017952
 42
0.0
  0
VERTEX
  8
Single_panels
 10
644.522212247494
 20
385.872013017952
 42
0.0
  0
VERTEX
  8
Single_panels
 10
658.022212247494
 20
385.872013017952
 42
0.0
  0
VERTEX
  8
Single_panels
 10
658.022212247494
 20
379.872013017952
 42
0.0
  0
VERTEX
  8
Single_panels
 10
668.022212247493
 20
379.872013017952
 42
0.0
  0
VERTEX
  8
Single_panels
 10
668.022212247493
 20
373.872013017952
 42
0.0
  0
VERTEX
  8
Single_panels
 10
18.022212247493
 20
373.87201301795
 42
0.0
  0
VERTEX
  8
Single_panels
 10
18.022212247493
 20
379.87201301795
 42
0.0
  0
VERTEX
  8
Single_panels
 10
28.0222122474922
 20
379.87201301795
 42
0.0
  0
VERTEX
  8
Single_panels
 10
28.0222122474922
 20
385.87201301795
 42
0.0
  0
VERTEX
  8
Single_panels
 10
41.522212247492
 20
385.87201301795
 42
0.0
  0
VERTEX
  8
Single_panels
 10
41.522212247492
 20
383.37201301795
 42
0.0
  0
VERTEX
  8
Single_panels
 10
48.0222122474927
 20
383.37201301795
 42
0.0
  0
VERTEX
  8
Single_panels
 10
48.0222122474927
 20
385.87201301795
 42
0.0
  0
VERTEX
  8
Single_panels
 10
53.0222122474923
 20
385.87201301795
 42
0.0
  0
VERTEX
  8
Single_panels
 10
53.0222122474923
 20
393.87201301795
 42
0.0
  0
VERTEX
  8
Single_panels
 10
48.022212247492
 20
393.87201301795
 42
0.0
  0
VERTEX
  8
Single_panels
 10
48.022212247492
 20
396.37201301795
 42
0.0
  0
VERTEX
  8
Single_panels
 10
41.522212247492
 20
396.37201301795
 42
0.0
  0
VERTEX
  8
Single_panels
 10
41.522212247492
 20
393.87201301795
 42
0.0
  0
VERTEX
  8
Single_panels
 10
28.0222122474922
 20
393.87201301795
 42
0.0
  0
VERTEX
  8
Single_panels
 10
28.0222122474922
 20
399.87201301795
 42
0.0
  0
VERTEX
  8
Single_panels
 10
18.022212247493
 20
399.87201301795
 42
0.0
  0
SEQEND
  0
POLYLINE
  8
Single_panels
 66
     1
 10
0.0
 20
0.0
 30
0.0
 70
     1
  0
VERTEX
  8
Single_panels
 10
18.3749862006847
 20
139.200000000001
 42
0.0
  0
VERTEX
  8
Single_panels
 10
18.3749862006847
 20
145.200000000001
 42
0.0
  0
VERTEX
  8
Single_panels
 10
28.3749862006838
 20
145.200000000001
 42
0.0
  0
VERTEX
  8
Single_panels
 10
28.3749862006838
 20
159.999999999999
 42
0.0
  0
VERTEX
  8
Single_panels
 10
658.374986200681
 20
160.000000000001
 42
0.0
  0
VERTEX
  8
Single_panels
 10
658.374986200682
 20
145.200000000001
 42
0.0
  0
VERTEX
  8
Single_panels
 10
668.374986200684
 20
145.200000000001
 42
0.0
  0
VERTEX
  8
Single_panels
 10
668.374986200684
 20
139.200000000001
 42
0.0
  0
VERTEX
  8
Single_panels
 10
658.374986200685
 20
139.200000000001
 42
0.0
  0
VERTEX
  8
Single_panels
 10
658.374986200684
 20
133.200000000002
 42
0.0
  0
VERTEX
  8
Single_panels
 10
644.874986200684
 20
133.200000000001
 42
0.0
  0
VERTEX
  8
Single_panels
 10
644.874986200684
 20
135.700000000002
 42
0.0
  0
VERTEX
  8
Single_panels
 10
638.374986200684
 20
135.700000000001
 42
0.0
  0
VERTEX
  8
Single_panels
 10
638.374986200685
 20
133.2
 42
0.0
  0
VERTEX
  8
Single_panels
 10
633.374986200683
 20
133.200000000001
 42
0.0
  0
VERTEX
  8
Single_panels
 10
633.374986200683
 20
125.200000000002
 42
0.0
  0
VERTEX
  8
Single_panels
 10
638.374986200684
 20
125.200000000001
 42
0.0
  0
VERTEX
  8
Single_panels
 10
638.374986200683
 20
122.700000000001
 42
0.0
  0
VERTEX
  8
Single_panels
 10
644.874986200683
 20
122.700000000001
 42
0.0
  0
VERTEX
  8
Single_panels
 10
644.874986200684
 20
125.200000000001
 42
0.0
  0
VERTEX
  8
Single_panels
 10
658.374986200684
 20
125.200000000001
 42
0.0
  0
VERTEX
  8
Single_panels
 10
658.374986200683
 20
119.200000000001
 42
0.0
  0
VERTEX
  8
Single_panels
 10
668.374986200684
 20
119.200000000001
 42
0.0
  0
VERTEX
  8
Single_panels
 10
668.374986200683
 20
113.2
 42
0.0
  0
VERTEX
  8
Single_panels
 10
658.374986200683
 20
113.2
 42
0.0
  0
VERTEX
  8
Single_panels
 10
658.374986200685
 20
42.0000000000015
 42
0.0
  0
VERTEX
  8
Single_panels
 10
668.374986200685
 20
42.0000000000015
 42
0.0
  0
VERTEX
  8
Single_panels
 10
668.374986200685
 20
36.0000000000014
 42
0.0
  0
VERTEX
  8
Single_panels
 10
658.374986200685
 20
36.0000000000014
 42
0.0
  0
VERTEX
  8
Single_panels
 10
658.374986200685
 20
30.0000000000013
 42
0.0
  0
VERTEX
  8
Single_panels
 10
644.874986200686
 20
30.0000000000013
 42
0.0
  0
VERTEX
  8
Single_panels
 10
644.874986200686
 20
32.5000000000009
 42
0.0
  0
VERTEX
  8
Single_panels
 10
638.374986200686
 20
32.5000000000013
 42
0.0
  0
VERTEX
  8
Single_panels
 10
638.374986200686
 20
30.0000000000013
 42
0.0
  0
VERTEX
  8
Single_panels
 10
633.374986200685
 20
30.0000000000013
 42
0.0
  0
VERTEX
  8
Single_panels
 10
633.374986200685
 20
22.0000000000013
 42
0.0
  0
VERTEX
  8
Single_panels
 10
638.374986200685
 20
22.0000000000013
 42
0.0
  0
VERTEX
  8
Single_panels
 10
638.374986200685
 20
19.5000000000015
 42
0.0
  0
VERTEX
  8
Single_panels
 10
644.874986200686
 20
19.500000000001
 42
0.0
  0
VERTEX
  8
Single_panels
 10
644.874986200686
 20
22.0000000000013
 42
0.0
  0
VERTEX
  8
Single_panels
 10
658.374986200685
 20
22.0000000000013
 42
0.0
  0
VERTEX
  8
Single_panels
 10
658.374986200685
 20
16.0000000000013
 42
0.0
  0
VERTEX
  8
Single_panels
 10
668.374986200685
 20
16.0000000000013
 42
0.0
  0
VERTEX
  8
Single_panels
 10
668.374986200685
 20
10.0000000000012
 42
0.0
  0
VERTEX
  8
Single_panels
 10
18.3749862006847
 20
9.9999999999988
 42
0.0
  0
VERTEX
  8
Single_panels
 10
18.3749862006847
 20
15.9999999999989
 42
0.0
  0
VERTEX
  8
Single_panels
 10
28.3749862006838
 20
15.9999999999989
 42
0.0
  0
VERTEX
  8
Single_panels
 10
28.3749862006838
 20
21.999999999999
 42
0.0
  0
VERTEX
  8
Single_panels
 10
41.8749862006837
 20
21.999999999999
 42
0.0
  0
VERTEX
  8
Single_panels
 10
41.8749862006837
 20
19.4999999999987
 42
0.0
  0
VERTEX
  8
Single_panels
 10
48.3749862006843
 20
19.4999999999992
 42
0.0
  0
VERTEX
  8
Single_panels
 10
48.3749862006843
 20
21.999999999999
 42
0.0
  0
VERTEX
  8
Single_panels
 10
53.3749862006839
 20
21.999999999999
 42
0.0
  0
VERTEX
  8
Single_panels
 10
53.3749862006839
 20
29.999999999999
 42
0.0
  0
VERTEX
  8
Single_panels
 10
48.3749862006836
 20
29.999999999999
 42
0.0
  0
VERTEX
  8
Single_panels
 10
48.3749862006836
 20
32.4999999999989
 42
0.0
  0
VERTEX
  8
Single_panels
 10
41.8749862006837
 20
32.4999999999986
 42
0.0
  0
VERTEX
  8
Single_panels
 10
41.8749862006837
 20
29.999999999999
 42
0.0
  0
VERTEX
  8
Single_panels
 10
28.3749862006838
 20
29.999999999999
 42
0.0
  0
VERTEX
  8
Single_panels
 10
28.3749862006838
 20
35.9999999999991
 42
0.0
  0
VERTEX
  8
Single_panels
 10
18.3749862006847
 20
35.9999999999991
 42
0.0
  0
VERTEX
  8
Single_panels
 10
18.3749862006847
 20
41.9999999999991
 42
0.0
  0
VERTEX
  8
Single_panels
 10
28.3749862006838
 20
41.9999999999991
 42
0.0
  0
VERTEX
  8
Single_panels
 10
28.3749862006853
 20
113.2
 42
0.0
  0
VERTEX
  8
Single_panels
 10
18.3749862006854
 20
113.2
 42
0.0
  0
VERTEX
  8
Single_panels
 10
18.3749862006847
 20
119.200000000001
 42
0.0
  0
VERTEX
  8
Single_panels
 10
28.3749862006853
 20
119.200000000001
 42
0.0
  0
VERTEX
  8
Single_panels
 10
28.3749862006853
 20
125.200000000001
 42
0.0
  0
VERTEX
  8
Single_panels
 10
41.8749862006851
 20
125.200000000001
 42
0.0
  0
VERTEX
  8
Single_panels
 10
41.8749862006851
 20
122.700000000001
 42
0.0
  0
VERTEX
  8
Single_panels
 10
48.3749862006851
 20
122.700000000001
 42
0.0
  0
VERTEX
  8
Single_panels
 10
48.3749862006851
 20
125.200000000001
 42
0.0
  0
VERTEX
  8
Single_panels
 10
53.3749862006854
 20
125.200000000002
 42
0.0
  0
VERTEX
  8
Single_panels
 10
53.3749862006854
 20
133.200000000001
 42
0.0
  0
VERTEX
  8
Single_panels
 10
48.3749862006836
 20
133.2
 42
0.0
  0
VERTEX
  8
Single_panels
 10
48.3749862006843
 20
135.700000000001
 42
0.0
  0
VERTEX
  8
Single_panels
 10
41.8749862006844
 20
135.700000000002
 42
0.0
  0
VERTEX
  8
Single_panels
 10
41.8749862006844
 20
133.200000000001
 42
0.0
  0
VERTEX
  8
Single_panels
 10
28.3749862006853
 20
133.200000000002
 42
0.0
  0
VERTEX
  8
Single_panels
 10
28.3749862006838
 20
139.200000000001
 42
0.0
  0
SEQEND
  0
POLYLINE
  8
Single_panels
 66
     1
 10
0.0
 20
0.0
 30
0.0
 70
     1
  0
VERTEX
  8
Single_panels
 10
1662.90891972443
 20
1185.09914501553
 42
0.0
  0
VERTEX
  8
Single_panels
 10
1675.90891972443
 20
1162.58248451714
 42
0.0
  0
VERTEX
  8
Single_panels
 10
1684.56917376227
 20
1167.58248451714
 42
0.0
  0
VERTEX
  8
Single_panels
 10
1687.56917376227
 20
1162.38633209444
 42
0.0
  0
VERTEX
  8
Single_panels
 10
1678.90891972443
 20
1157.38633209444
 42
0.0
  0
VERTEX
  8
Single_panels
 10
1685.90891972443
 20
1145.26197644145
 42
0.0
  0
VERTEX
  8
Single_panels
 10
1674.21757677334
 20
1138.51197644145
 42
0.0
  0
VERTEX
  8
Single_panels
 10
1672.96757677334
 20
1140.67703995091
 42
0.0
  0
VERTEX
  8
Single_panels
 10
1667.33841164874
 20
1137.42703995091
 42
0.0
  0
VERTEX
  8
Single_panels
 10
1668.58841164875
 20
1135.26197644145
 42
0.0
  0
VERTEX
  8
Single_panels
 10
1664.25828462982
 20
1132.76197644145
 42
0.0
  0
VERTEX
  8
Single_panels
 10
1668.25828462982
 20
1125.83377321118
 42
0.0
  0
VERTEX
  8
Single_panels
 10
1672.58841164875
 20
1128.33377321118
 42
0.0
  0
VERTEX
  8
Single_panels
 10
1673.83841164875
 20
1126.16870970172
 42
0.0
  0
VERTEX
  8
Single_panels
 10
1679.46757677334
 20
1129.41870970172
 42
0.0
  0
VERTEX
  8
Single_panels
 10
1678.21757677334
 20
1131.58377321118
 42
0.0
  0
VERTEX
  8
Single_panels
 10
1689.90891972443
 20
1138.33377321118
 42
0.0
  0
VERTEX
  8
Single_panels
 10
1696.90891972443
 20
1126.2094175582
 42
0.0
  0
VERTEX
  8
Single_panels
 10
1705.56917376228
 20
1131.2094175582
 42
0.0
  0
VERTEX
  8
Single_panels
 10
1708.56917376228
 20
1126.01326513549
 42
0.0
  0
VERTEX
  8
Single_panels
 10
1699.90891972444
 20
1121.01326513549
 42
0.0
  0
VERTEX
  8
Single_panels
 10
1712.90891972444
 20
1098.4966046371
 42
0.0
  0
VERTEX
  8
Single_panels
 10
1167.31291534027
 20
783.496604637036
 42
0.0
  0
VERTEX
  8
Single_panels
 10
1154.31291534027
 20
806.01326513543
 42
0.0
  0
VERTEX
  8
Single_panels
 10
1145.65266130243
 20
801.013265135429
 42
0.0
  0
VERTEX
  8
Single_panels
 10
1142.65266130243
 20
806.209417558136
 42
0.0
  0
VERTEX
  8
Single_panels
 10
1151.31291534027
 20
811.209417558136
 42
0.0
  0
VERTEX
  8
Single_panels
 10
1144.31291534027
 20
823.333773211118
 42
0.0
  0
VERTEX
  8
Single_panels
 10
1156.00425829136
 20
830.083773211119
 42
0.0
  0
VERTEX
  8
Single_panels
 10
1157.25425829136
 20
827.918709701658
 42
0.0
  0
VERTEX
  8
Single_panels
 10
1162.88342341596
 20
831.168709701659
 42
0.0
  0
VERTEX
  8
Single_panels
 10
1161.63342341596
 20
833.33377321112
 42
0.0
  0
VERTEX
  8
Single_panels
 10
1165.96355043488
 20
835.833773211121
 42
0.0
  0
VERTEX
  8
Single_panels
 10
1161.96355043488
 20
842.761976441396
 42
0.0
  0
VERTEX
  8
Single_panels
 10
1157.63342341596
 20
840.261976441393
 42
0.0
  0
VERTEX
  8
Single_panels
 10
1156.38342341596
 20
842.427039950856
 42
0.0
  0
VERTEX
  8
Single_panels
 10
1150.75425829136
 20
839.177039950855
 42
0.0
  0
VERTEX
  8
Single_panels
 10
1152.00425829136
 20
837.011976441393
 42
0.0
  0
VERTEX
  8
Single_panels
 10
1140.31291534027
 20
830.261976441394
 42
0.0
  0
VERTEX
  8
Single_panels
 10
1133.31291534027
 20
842.386332094376
 42
0.0
  0
VERTEX
  8
Single_panels
 10
1124.65266130242
 20
837.386332094374
 42
0.0
  0
VERTEX
  8
Single_panels
 10
1121.65266130242
 20
842.582484517081
 42
0.0
  0
VERTEX
  8
Single_panels
 10
1130.31291534027
 20
847.582484517083
 42
0.0
  0
VERTEX
  8
Single_panels
 10
1117.31291534026
 20
870.099145015475
 42
0.0
  0
SEQEND
  0
POLYLINE
  8
Single_panels
 66
     1
 10
0.0
 20
0.0
 30
0.0
 70
     1
  0
VERTEX
  8
Single_panels
 10
2236.19999999997
 20
668.84299622477
 42
0.0
  0
VERTEX
  8
Single_panels
 10
2242.19999999997
 20
668.842996224773
 42
0.0
  0
VERTEX
  8
Single_panels
 10
2242.19999999998
 20
658.842996224774
 42
0.0
  0
VERTEX
  8
Single_panels
 10
2256.99999999997
 20
658.842996224782
 42
0.0
  0
VERTEX
  8
Single_panels
 10
2257.00000000034
 20
28.842996224785
 42
0.0
  0
VERTEX
  8
Single_panels
 10
2242.20000000034
 20
28.8429962247756
 42
0.0
  0
VERTEX
  8
Single_panels
 10
2242.20000000035
 20
18.8429962247732
 42
0.0
  0
VERTEX
  8
Single_panels
 10
2236.20000000035
 20
18.8429962247697
 42
0.0
  0
VERTEX
  8
Single_panels
 10
2236.20000000034
 20
28.8429962247696
 42
0.0
  0
VERTEX
  8
Single_panels
 10
2230.20000000034
 20
28.8429962247668
 42
0.0
  0
VERTEX
  8
Single_panels
 10
2230.20000000033
 20
42.3429962247663
 42
0.0
  0
VERTEX
  8
Single_panels
 10
2232.70000000034
 20
42.3429962247677
 42
0.0
  0
VERTEX
  8
Single_panels
 10
2232.70000000033
 20
48.8429962247677
 42
0.0
  0
VERTEX
  8
Single_panels
 10
2230.20000000033
 20
48.8429962247659
 42
0.0
  0
VERTEX
  8
Single_panels
 10
2230.20000000033
 20
53.8429962247673
 42
0.0
  0
VERTEX
  8
Single_panels
 10
2222.20000000033
 20
53.8429962247627
 42
0.0
  0
VERTEX
  8
Single_panels
 10
2222.20000000033
 20
48.8429962247624
 42
0.0
  0
VERTEX
  8
Single_panels
 10
2219.70000000033
 20
48.8429962247613
 42
0.0
  0
VERTEX
  8
Single_panels
 10
2219.70000000033
 20
42.3429962247613
 42
0.0
  0
VERTEX
  8
Single_panels
 10
2222.20000000033
 20
42.342996224762
 42
0.0
  0
VERTEX
  8
Single_panels
 10
2222.20000000034
 20
28.8429962247622
 42
0.0
  0
VERTEX
  8
Single_panels
 10
2216.20000000034
 20
28.8429962247591
 42
0.0
  0
VERTEX
  8
Single_panels
 10
2216.20000000035
 20
18.8429962247584
 42
0.0
  0
VERTEX
  8
Single_panels
 10
2210.20000000035
 20
18.8429962247557
 42
0.0
  0
VERTEX
  8
Single_panels
 10
2210.20000000034
 20
28.842996224756
 42
0.0
  0
VERTEX
  8
Single_panels
 10
2153.20000000034
 20
28.8429962247207
 42
0.0
  0
VERTEX
  8
Single_panels
 10
2153.20000000035
 20
18.8429962247208
 42
0.0
  0
VERTEX
  8
Single_panels
 10
2147.20000000035
 20
18.8429962247173
 42
0.0
  0
VERTEX
  8
Single_panels
 10
2147.20000000034
 20
28.8429962247172
 42
0.0
  0
VERTEX
  8
Single_panels
 10
2141.20000000034
 20
28.8429962247138
 42
0.0
  0
VERTEX
  8
Single_panels
 10
2141.20000000033
 20
42.3429962247136
 42
0.0
  0
VERTEX
  8
Single_panels
 10
2143.70000000033
 20
42.342996224715
 42
0.0
  0
VERTEX
  8
Single_panels
 10
2143.70000000033
 20
48.842996224715
 42
0.0
  0
VERTEX
  8
Single_panels
 10
2141.20000000033
 20
48.8429962247135
 42
0.0
  0
VERTEX
  8
Single_panels
 10
2141.20000000033
 20
53.8429962247139
 42
0.0
  0
VERTEX
  8
Single_panels
 10
2133.20000000033
 20
53.8429962247092
 42
0.0
  0
VERTEX
  8
Single_panels
 10
2133.20000000033
 20
48.8429962247092
 42
0.0
  0
VERTEX
  8
Single_panels
 10
2130.70000000033
 20
48.8429962247078
 42
0.0
  0
VERTEX
  8
Single_panels
 10
2130.70000000033
 20
42.3429962247071
 42
0.0
  0
VERTEX
  8
Single_panels
 10
2133.20000000033
 20
42.3429962247085
 42
0.0
  0
VERTEX
  8
Single_panels
 10
2133.20000000034
 20
28.8429962247091
 42
0.0
  0
VERTEX
  8
Single_panels
 10
2127.20000000034
 20
28.8429962247056
 42
0.0
  0
VERTEX
  8
Single_panels
 10
2127.20000000035
 20
18.8429962247057
 42
0.0
  0
VERTEX
  8
Single_panels
 10
2121.20000000035
 20
18.8429962247022
 42
0.0
  0
VERTEX
  8
Single_panels
 10
2121.19999999997
 20
668.842996224703
 42
0.0
  0
VERTEX
  8
Single_panels
 10
2127.19999999997
 20
668.842996224706
 42
0.0
  0
VERTEX
  8
Single_panels
 10
2127.19999999997
 20
658.842996224707
 42
0.0
  0
VERTEX
  8
Single_panels
 10
2133.19999999997
 20
658.842996224711
 42
0.0
  0
VERTEX
  8
Single_panels
 10
2133.19999999998
 20
645.342996224711
 42
0.0
  0
VERTEX
  8
Single_panels
 10
2130.69999999998
 20
645.342996224709
 42
0.0
  0
VERTEX
  8
Single_panels
 10
2130.69999999999
 20
638.842996224709
 42
0.0
  0
VERTEX
  8
Single_panels
 10
2133.19999999999
 20
638.84299622471
 42
0.0
  0
VERTEX
  8
Single_panels
 10
2133.19999999999
 20
633.84299622471
 42
0.0
  0
VERTEX
  8
Single_panels
 10
2141.19999999999
 20
633.842996224715
 42
0.0
  0
VERTEX
  8
Single_panels
 10
2141.19999999999
 20
638.842996224715
 42
0.0
  0
VERTEX
  8
Single_panels
 10
2143.69999999999
 20
638.842996224717
 42
0.0
  0
VERTEX
  8
Single_panels
 10
2143.69999999998
 20
645.342996224717
 42
0.0
  0
VERTEX
  8
Single_panels
 10
2141.19999999998
 20
645.342996224715
 42
0.0
  0
VERTEX
  8
Single_panels
 10
2141.19999999997
 20
658.842996224715
 42
0.0
  0
VERTEX
  8
Single_panels
 10
2147.19999999997
 20
658.842996224719
 42
0.0
  0
VERTEX
  8
Single_panels
 10
2147.19999999997
 20
668.842996224718
 42
0.0
  0
VERTEX
  8
Single_panels
 10
2153.19999999997
 20
668.842996224721
 42
0.0
  0
VERTEX
  8
Single_panels
 10
2153.19999999997
 20
658.842996224722
 42
0.0
  0
VERTEX
  8
Single_panels
 10
2210.19999999998
 20
658.842996224754
 42
0.0
  0
VERTEX
  8
Single_panels
 10
2210.19999999997
 20
668.842996224754
 42
0.0
  0
VERTEX
  8
Single_panels
 10
2216.19999999997
 20
668.842996224758
 42
0.0
  0
VERTEX
  8
Single_panels
 10
2216.19999999998
 20
658.842996224757
 42
0.0
  0
VERTEX
  8
Single_panels
 10
2222.19999999998
 20
658.842996224761
 42
0.0
  0
VERTEX
  8
Single_panels
 10
2222.19999999998
 20
645.342996224761
 42
0.0
  0
VERTEX
  8
Single_panels
 10
2219.69999999998
 20
645.342996224759
 42
0.0
  0
VERTEX
  8
Single_panels
 10
2219.69999999999
 20
638.842996224759
 42
0.0
  0
VERTEX
  8
Single_panels
 10
2222.19999999999
 20
638.842996224761
 42
0.0
  0
VERTEX
  8
Single_panels
 10
2222.19999999999
 20
633.842996224761
 42
0.0
  0
VERTEX
  8
Single_panels
 10
2230.19999999999
 20
633.842996224765
 42
0.0
  0
VERTEX
  8
Single_panels
 10
2230.19999999999
 20
638.842996224767
 42
0.0
  0
VERTEX
  8
Single_panels
 10
2232.69999999999
 20
638.842996224768
 42
0.0
  0
VERTEX
  8
Single_panels
 10
2232.69999999998
 20
645.342996224768
 42
0.0
  0
VERTEX
  8
Single_panels
 10
2230.19999999998
 20
645.342996224766
 42
0.0
  0
VERTEX
  8
Single_panels
 10
2230.19999999998
 20
658.842996224765
 42
0.0
  0
VERTEX
  8
Single_panels
 10
2236.19999999998
 20
658.84299622477
 42
0.0
  0
SEQEND
  0
POLYLINE
  8
Single_panels
 66
     1
 10
0.0
 20
0.0
 30
0.0
 70
     1
  0
VERTEX
  8
Single_panels
 10
2298.99999999997
 20
668.842996224785
 42
0.0
  0
VERTEX
  8
Single_panels
 10
2298.99999999997
 20
658.842996224786
 42
0.0
  0
VERTEX
  8
Single_panels
 10
2357.99999999998
 20
658.842996224789
 42
0.0
  0
VERTEX
  8
Single_panels
 10
2357.99999999997
 20
668.842996224788
 42
0.0
  0
VERTEX
  8
Single_panels
 10
2363.99999999997
 20
668.84299622479
 42
0.0
  0
VERTEX
  8
Single_panels
 10
2363.99999999998
 20
658.842996224789
 42
0.0
  0
VERTEX
  8
Single_panels
 10
2369.99999999998
 20
658.84299622479
 42
0.0
  0
VERTEX
  8
Single_panels
 10
2369.99999999998
 20
645.34299622479
 42
0.0
  0
VERTEX
  8
Single_panels
 10
2367.49999999998
 20
645.34299622479
 42
0.0
  0
VERTEX
  8
Single_panels
 10
2367.49999999998
 20
638.84299622479
 42
0.0
  0
VERTEX
  8
Single_panels
 10
2369.99999999998
 20
638.84299622479
 42
0.0
  0
VERTEX
  8
Single_panels
 10
2369.99999999998
 20
633.84299622479
 42
0.0
  0
VERTEX
  8
Single_panels
 10
2377.99999999998
 20
633.84299622479
 42
0.0
  0
VERTEX
  8
Single_panels
 10
2377.99999999998
 20
638.842996224792
 42
0.0
  0
VERTEX
  8
Single_panels
 10
2380.49999999998
 20
638.842996224791
 42
0.0
  0
VERTEX
  8
Single_panels
 10
2380.49999999998
 20
645.342996224791
 42
0.0
  0
VERTEX
  8
Single_panels
 10
2377.99999999998
 20
645.342996224791
 42
0.0
  0
VERTEX
  8
Single_panels
 10
2377.99999999998
 20
658.84299622479
 42
0.0
  0
VERTEX
  8
Single_panels
 10
2383.99999999998
 20
658.842996224792
 42
0.0
  0
VERTEX
  8
Single_panels
 10
2383.99999999997
 20
668.842996224792
 42
0.0
  0
VERTEX
  8
Single_panels
 10
2389.99999999997
 20
668.842996224792
 42
0.0
  0
VERTEX
  8
Single_panels
 10
2390.00000000003
 20
18.8429962247916
 42
0.0
  0
VERTEX
  8
Single_panels
 10
2384.00000000003
 20
18.842996224791
 42
0.0
  0
VERTEX
  8
Single_panels
 10
2384.00000000003
 20
28.8429962247909
 42
0.0
  0
VERTEX
  8
Single_panels
 10
2378.00000000003
 20
28.8429962247912
 42
0.0
  0
VERTEX
  8
Single_panels
 10
2378.00000000003
 20
42.3429962247906
 42
0.0
  0
VERTEX
  8
Single_panels
 10
2380.50000000003
 20
42.3429962247908
 42
0.0
  0
VERTEX
  8
Single_panels
 10
2380.50000000003
 20
48.8429962247908
 42
0.0
  0
VERTEX
  8
Single_panels
 10
2378.00000000003
 20
48.8429962247902
 42
0.0
  0
VERTEX
  8
Single_panels
 10
2378.00000000003
 20
53.8429962247916
 42
0.0
  0
VERTEX
  8
Single_panels
 10
2370.00000000003
 20
53.842996224791
 42
0.0
  0
VERTEX
  8
Single_panels
 10
2370.00000000003
 20
48.8429962247907
 42
0.0
  0
VERTEX
  8
Single_panels
 10
2367.50000000003
 20
48.8429962247909
 42
0.0
  0
VERTEX
  8
Single_panels
 10
2367.50000000003
 20
42.3429962247909
 42
0.0
  0
VERTEX
  8
Single_panels
 10
2370.00000000003
 20
42.3429962247904
 42
0.0
  0
VERTEX
  8
Single_panels
 10
2370.00000000003
 20
28.8429962247906
 42
0.0
  0
VERTEX
  8
Single_panels
 10
2364.00000000003
 20
28.8429962247905
 42
0.0
  0
VERTEX
  8
Single_panels
 10
2364.00000000003
 20
18.8429962247898
 42
0.0
  0
VERTEX
  8
Single_panels
 10
2358.00000000003
 20
18.8429962247901
 42
0.0
  0
VERTEX
  8
Single_panels
 10
2358.00000000003
 20
28.8429962247904
 42
0.0
  0
VERTEX
  8
Single_panels
 10
2299.00000000003
 20
28.8429962247843
 42
0.0
  0
VERTEX
  8
Single_panels
 10
2299.00000000003
 20
18.8429962247844
 42
0.0
  0
VERTEX
  8
Single_panels
 10
2293.00000000003
 20
18.842996224784
 42
0.0
  0
VERTEX
  8
Single_panels
 10
2293.00000000003
 20
28.8429962247839
 42
0.0
  0
VERTEX
  8
Single_panels
 10
2287.00000000003
 20
28.8429962247833
 42
0.0
  0
VERTEX
  8
Single_panels
 10
2287.00000000002
 20
42.3429962247832
 42
0.0
  0
VERTEX
  8
Single_panels
 10
2289.50000000002
 20
42.3429962247833
 42
0.0
  0
VERTEX
  8
Single_panels
 10
2289.50000000002
 20
48.8429962247833
 42
0.0
  0
VERTEX
  8
Single_panels
 10
2287.00000000002
 20
48.8429962247831
 42
0.0
  0
VERTEX
  8
Single_panels
 10
2287.00000000002
 20
53.8429962247834
 42
0.0
  0
VERTEX
  8
Single_panels
 10
2279.00000000002
 20
53.8429962247828
 42
0.0
  0
VERTEX
  8
Single_panels
 10
2279.00000000002
 20
48.8429962247828
 42
0.0
  0
VERTEX
  8
Single_panels
 10
2276.50000000002
 20
48.8429962247827
 42
0.0
  0
VERTEX
  8
Single_panels
 10
2276.50000000002
 20
42.342996224782
 42
0.0
  0
VERTEX
  8
Single_panels
 10
2279.00000000002
 20
42.3429962247822
 42
0.0
  0
VERTEX
  8
Single_panels
 10
2279.00000000003
 20
28.8429962247827
 42
0.0
  0
VERTEX
  8
Single_panels
 10
2273.00000000003
 20
28.8429962247823
 42
0.0
  0
VERTEX
  8
Single_panels
 10
2273.00000000003
 20
18.8429962247824
 42
0.0
  0
VERTEX
  8
Single_panels
 10
2267.00000000003
 20
18.8429962247819
 42
0.0
  0
VERTEX
  8
Single_panels
 10
2266.99999999997
 20
668.842996224782
 42
0.0
  0
VERTEX
  8
Single_panels
 10
2272.99999999997
 20
668.842996224783
 42
0.0
  0
VERTEX
  8
Single_panels
 10
2272.99999999997
 20
658.842996224784
 42
0.0
  0
VERTEX
  8
Single_panels
 10
2278.99999999997
 20
658.842996224784
 42
0.0
  0
VERTEX
  8
Single_panels
 10
2278.99999999998
 20
645.342996224784
 42
0.0
  0
VERTEX
  8
Single_panels
 10
2276.49999999998
 20
645.342996224784
 42
0.0
  0
VERTEX
  8
Single_panels
 10
2276.49999999998
 20
638.842996224784
 42
0.0
  0
VERTEX
  8
Single_panels
 10
2278.99999999998
 20
638.842996224784
 42
0.0
  0
VERTEX
  8
Single_panels
 10
2278.99999999998
 20
633.842996224784
 42
0.0
  0
VERTEX
  8
Single_panels
 10
2286.99999999998
 20
633.842996224785
 42
0.0
  0
VERTEX
  8
Single_panels
 10
2286.99999999998
 20
638.842996224785
 42
0.0
  0
VERTEX
  8
Single_panels
 10
2289.49999999998
 20
638.842996224785
 42
0.0
  0
VERTEX
  8
Single_panels
 10
2289.49999999998
 20
645.342996224785
 42
0.0
  0
VERTEX
  8
Single_panels
 10
2286.99999999998
 20
645.342996224785
 42
0.0
  0
VERTEX
  8
Single_panels
 10
2286.99999999997
 20
658.842996224785
 42
0.0
  0
VERTEX
  8
Single_panels
 10
2292.99999999997
 20
658.842996224785
 42
0.0
  0
VERTEX
  8
Single_panels
 10
2292.99999999997
 20
668.842996224785
 42
0.0
  0
SEQEND
  0
POLYLINE
  8
Single_panels
 66
     1
 10
0.0
 20
0.0
 30
0.0
 70
     9
  0
VERTEX
  8
Single_panels
 10
1723.32314457672
 20
669.951033231145
 30
0.0
 42
0.0
  0
VERTEX
  8
Single_panels
 10
1529.32314457671
 20
669.951033231144
 30
0.0
 42
0.0
  0
VERTEX
  8
Single_panels
 10
1529.32314457671
 20
679.951033231144
 30
0.0
 42
0.0
  0
VERTEX
  8
Single_panels
 10
1523.32314457671
 20
679.951033231144
 30
0.0
 42
0.0
  0
VERTEX
  8
Single_panels
 10
1523.32314457671
 20
669.951033231143
 30
0.0
 42
0.0
  0
VERTEX
  8
Single_panels
 10
1503.32314457671
 20
669.951033231144
 30
0.0
 42
0.0
  0
VERTEX
  8
Single_panels
 10
1503.32314457671
 20
679.951033231144
 30
0.0
 42
0.0
  0
VERTEX
  8
Single_panels
 10
1497.32314457671
 20
679.951033231147
 30
0.0
 42
0.0
  0
VERTEX
  8
Single_panels
 10
1497.32314457671
 20
669.951033231143
 30
0.0
 42
0.0
  0
VERTEX
  8
Single_panels
 10
1299.32314457672
 20
669.951033231144
 30
0.0
 42
0.0
  0
VERTEX
  8
Single_panels
 10
1299.32314457672
 20
679.951033231144
 30
0.0
 42
0.0
  0
VERTEX
  8
Single_panels
 10
1293.32314457671
 20
679.951033231144
 30
0.0
 42
0.0
  0
VERTEX
  8
Single_panels
 10
1293.32314457672
 20
669.951033231144
 30
0.0
 42
0.0
  0
VERTEX
  8
Single_panels
 10
1273.32314457672
 20
669.951033231144
 30
0.0
 42
0.0
  0
VERTEX
  8
Single_panels
 10
1273.32314457672
 20
679.951033231144
 30
0.0
 42
0.0
  0
VERTEX
  8
Single_panels
 10
1267.32314457672
 20
679.951033231147
 30
0.0
 42
0.0
  0
VERTEX
  8
Single_panels
 10
1267.32314457672
 20
669.951033231143
 30
0.0
 42
0.0
  0
VERTEX
  8
Single_panels
 10
1073.32314457672
 20
669.951033231143
 30
0.0
 42
0.0
  0
VERTEX
  8
Single_panels
 10
1073.32314457672
 20
675.951033231143
 30
0.0
 42
0.0
  0
VERTEX
  8
Single_panels
 10
1083.32314457672
 20
675.951033231143
 30
0.0
 42
0.0
  0
VERTEX
  8
Single_panels
 10
1083.32314457672
 20
681.951033231143
 30
0.0
 42
0.0
  0
VERTEX
  8
Single_panels
 10
1096.82314457672
 20
681.951033231143
 30
0.0
 42
0.0
  0
VERTEX
  8
Single_panels
 10
1096.82314457672
 20
679.451033231143
 30
0.0
 42
0.0
  0
VERTEX
  8
Single_panels
 10
1103.32314457672
 20
679.451033231143
 30
0.0
 42
0.0
  0
VERTEX
  8
Single_panels
 10
1103.32314457672
 20
681.951033231143
 30
0.0
 42
0.0
  0
VERTEX
  8
Single_panels
 10
1108.32314457672
 20
681.951033231143
 30
0.0
 42
0.0
  0
VERTEX
  8
Single_panels
 10
1108.32314457672
 20
689.951033231143
 30
0.0
 42
0.0
  0
VERTEX
  8
Single_panels
 10
1103.32314457672
 20
689.951033231143
 30
0.0
 42
0.0
  0
VERTEX
  8
Single_panels
 10
1103.32314457672
 20
692.451033231143
 30
0.0
 42
0.0
  0
VERTEX
  8
Single_panels
 10
1096.82314457672
 20
692.451033231143
 30
0.0
 42
0.0
  0
VERTEX
  8
Single_panels
 10
1096.82314457672
 20
689.951033231143
 30
0.0
 42
0.0
  0
VERTEX
  8
Single_panels
 10
1083.32314457672
 20
689.951033231143
 30
0.0
 42
0.0
  0
VERTEX
  8
Single_panels
 10
1083.32314457672
 20
695.951033231143
 30
0.0
 42
0.0
  0
VERTEX
  8
Single_panels
 10
1073.32314457672
 20
695.951033231143
 30
0.0
 42
0.0
  0
VERTEX
  8
Single_panels
 10
1073.32314457672
 20
701.951033231143
 30
0.0
 42
0.0
  0
VERTEX
  8
Single_panels
 10
1083.32314457672
 20
701.951033231143
 30
0.0
 42
0.0
  0
VERTEX
  8
Single_panels
 10
1083.32314457672
 20
737.951033231144
 30
0.0
 42
0.0
  0
VERTEX
  8
Single_panels
 10
1073.32314457672
 20
737.951033231143
 30
0.0
 42
0.0
  0
VERTEX
  8
Single_panels
 10
1073.32314457672
 20
743.951033231144
 30
0.0
 42
0.0
  0
VERTEX
  8
Single_panels
 10
1083.32314457672
 20
743.951033231144
 30
0.0
 42
0.0
  0
VERTEX
  8
Single_panels
 10
1083.32314457672
 20
749.951033231145
 30
0.0
 42
0.0
  0
VERTEX
  8
Single_panels
 10
1096.82314457672
 20
749.951033231144
 30
0.0
 42
0.0
  0
VERTEX
  8
Single_panels
 10
1096.82314457672
 20
747.451033231144
 30
0.0
 42
0.0
  0
VERTEX
  8
Single_panels
 10
1103.32314457672
 20
747.451033231144
 30
0.0
 42
0.0
  0
VERTEX
  8
Single_panels
 10
1103.32314457672
 20
749.951033231144
 30
0.0
 42
0.0
  0
VERTEX
  8
Single_panels
 10
1108.32314457672
 20
749.951033231145
 30
0.0
 42
0.0
  0
VERTEX
  8
Single_panels
 10
1108.32314457672
 20
757.951033231144
 30
0.0
 42
0.0
  0
VERTEX
  8
Single_panels
 10
1103.32314457672
 20
757.951033231144
 30
0.0
 42
0.0
  0
VERTEX
  8
Single_panels
 10
1103.32314457672
 20
760.451033231145
 30
0.0
 42
0.0
  0
VERTEX
  8
Single_panels
 10
1096.82314457672
 20
760.451033231145
 30
0.0
 42
0.0
  0
VERTEX
  8
Single_panels
 10
1096.82314457672
 20
757.951033231144
 30
0.0
 42
0.0
  0
VERTEX
  8
Single_panels
 10
1083.32314457672
 20
757.951033231146
 30
0.0
 42
0.0
  0
VERTEX
  8
Single_panels
 10
1083.32314457672
 20
763.951033231145
 30
0.0
 42
0.0
  0
VERTEX
  8
Single_panels
 10
1073.32314457672
 20
763.951033231144
 30
0.0
 42
0.0
  0
VERTEX
  8
Single_panels
 10
1073.32314457672
 20
769.951033231143
 30
0.0
 42
0.0
  0
VERTEX
  8
Single_panels
 10
1723.32314457672
 20
769.951033231145
 30
0.0
 42
0.0
  0
VERTEX
  8
Single_panels
 10
1723.32314457672
 20
763.951033231147
 30
0.0
 42
0.0
  0
VERTEX
  8
Single_panels
 10
1713.32314457672
 20
763.951033231147
 30
0.0
 42
0.0
  0
VERTEX
  8
Single_panels
 10
1713.32314457672
 20
757.951033231148
 30
0.0
 42
0.0
  0
VERTEX
  8
Single_panels
 10
1699.82314457672
 20
757.951033231146
 30
0.0
 42
0.0
  0
VERTEX
  8
Single_panels
 10
1699.82314457672
 20
760.451033231147
 30
0.0
 42
0.0
  0
VERTEX
  8
Single_panels
 10
1693.32314457672
 20
760.451033231147
 30
0.0
 42
0.0
  0
VERTEX
  8
Single_panels
 10
1693.32314457672
 20
757.951033231146
 30
0.0
 42
0.0
  0
VERTEX
  8
Single_panels
 10
1688.32314457672
 20
757.951033231147
 30
0.0
 42
0.0
  0
VERTEX
  8
Single_panels
 10
1688.32314457672
 20
749.951033231147
 30
0.0
 42
0.0
  0
VERTEX
  8
Single_panels
 10
1693.32314457672
 20
749.951033231147
 30
0.0
 42
0.0
  0
VERTEX
  8
Single_panels
 10
1693.32314457672
 20
747.451033231147
 30
0.0
 42
0.0
  0
VERTEX
  8
Single_panels
 10
1699.82314457672
 20
747.451033231147
 30
0.0
 42
0.0
  0
VERTEX
  8
Single_panels
 10
1699.82314457672
 20
749.951033231147
 30
0.0
 42
0.0
  0
VERTEX
  8
Single_panels
 10
1713.32314457672
 20
749.951033231147
 30
0.0
 42
0.0
  0
VERTEX
  8
Single_panels
 10
1713.32314457672
 20
743.951033231147
 30
0.0
 42
0.0
  0
VERTEX
  8
Single_panels
 10
1723.32314457672
 20
743.951033231146
 30
0.0
 42
0.0
  0
VERTEX
  8
Single_panels
 10
1723.32314457672
 20
737.951033231146
 30
0.0
 42
0.0
  0
VERTEX
  8
Single_panels
 10
1713.32314457672
 20
737.951033231146
 30
0.0
 42
0.0
  0
VERTEX
  8
Single_panels
 10
1713.32314457672
 20
701.951033231145
 30
0.0
 42
0.0
  0
VERTEX
  8
Single_panels
 10
1723.32314457672
 20
701.951033231145
 30
0.0
 42
0.0
  0
VERTEX
  8
Single_panels
 10
1723.32314457672
 20
695.951033231145
 30
0.0
 42
0.0
  0
VERTEX
  8
Single_panels
 10
1713.32314457672
 20
695.951033231145
 30
0.0
 42
0.0
  0
VERTEX
  8
Single_panels
 10
1713.32314457672
 20
689.951033231145
 30
0.0
 42
0.0
  0
VERTEX
  8
Single_panels
 10
1699.82314457672
 20
689.951033231145
 30
0.0
 42
0.0
  0
VERTEX
  8
Single_panels
 10
1699.82314457672
 20
692.451033231145
 30
0.0
 42
0.0
  0
VERTEX
  8
Single_panels
 10
1693.32314457672
 20
692.451033231145
 30
0.0
 42
0.0
  0
VERTEX
  8
Single_panels
 10
1693.32314457672
 20
689.951033231145
 30
0.0
 42
0.0
  0
VERTEX
  8
Single_panels
 10
1688.32314457672
 20
689.951033231145
 30
0.0
 42
0.0
  0
VERTEX
  8
Single_panels
 10
1688.32314457672
 20
681.951033231145
 30
0.0
 42
0.0
  0
VERTEX
  8
Single_panels
 10
1693.32314457672
 20
681.951033231145
 30
0.0
 42
0.0
  0
VERTEX
  8
Single_panels
 10
1693.32314457672
 20
679.451033231146
 30
0.0
 42
0.0
  0
VERTEX
  8
Single_panels
 10
1699.82314457672
 20
679.451033231145
 30
0.0
 42
0.0
  0
VERTEX
  8
Single_panels
 10
1699.82314457672
 20
681.951033231145
 30
0.0
 42
0.0
  0
VERTEX
  8
Single_panels
 10
1713.32314457672
 20
681.951033231145
 30
0.0
 42
0.0
  0
VERTEX
  8
Single_panels
 10
1713.32314457672
 20
675.951033231145
 30
0.0
 42
0.0
  0
VERTEX
  8
Single_panels
 10
1723.32314457672
 20
675.951033231145
 30
0.0
 42
0.0
  0
SEQEND
  0
CIRCLE
  8
Single_panels
 10
1283.32314457671
 20
674.951033231146
 30
0.0
 40
4.0
  0
CIRCLE
  8
Single_panels
 10
1513.32314457673
 20
674.951033231145
 30
0.0
 40
4.0
  0
POLYLINE
  8
Back
 66
     1
 10
0.0
 20
0.0
 30
0.0
 70
     1
  0
VERTEX
  8
Back
 10
959.956260697366
 20
19.9999999999529
 42
0.0
  0
VERTEX
  8
Back
 10
953.956260697366
 20
19.9999999999528
 42
0.0
  0
VERTEX
  8
Back
 10
953.956260697366
 20
9.9999999999522
 42
0.0
  0
VERTEX
  8
Back
 10
947.956260697366
 20
9.9999999999523
 42
0.0
  0
VERTEX
  8
Back
 10
947.956260697365
 20
19.9999999999526
 42
0.0
  0
VERTEX
  8
Back
 10
863.956260697366
 20
19.9999999999465
 42
0.0
  0
VERTEX
  8
Back
 10
863.956260697307
 20
649.999999999947
 42
0.0
  0
VERTEX
  8
Back
 10
947.956260697307
 20
649.999999999956
 42
0.0
  0
VERTEX
  8
Back
 10
947.956260697305
 20
659.999999999956
 42
0.0
  0
VERTEX
  8
Back
 10
953.956260697306
 20
659.999999999958
 42
0.0
  0
VERTEX
  8
Back
 10
953.956260697307
 20
649.999999999957
 42
0.0
  0
VERTEX
  8
Back
 10
959.956260697307
 20
649.999999999958
 42
0.0
  0
VERTEX
  8
Back
 10
959.956260697308
 20
636.499999999958
 42
0.0
  0
VERTEX
  8
Back
 10
957.456260697309
 20
636.499999999957
 42
0.0
  0
VERTEX
  8
Back
 10
957.456260697309
 20
629.999999999957
 42
0.0
  0
VERTEX
  8
Back
 10
959.956260697309
 20
629.999999999958
 42
0.0
  0
VERTEX
  8
Back
 10
959.95626069731
 20
624.999999999958
 42
0.0
  0
VERTEX
  8
Back
 10
967.95626069731
 20
624.999999999958
 42
0.0
  0
VERTEX
  8
Back
 10
967.956260697308
 20
629.99999999996
 42
0.0
  0
VERTEX
  8
Back
 10
970.456260697309
 20
629.99999999996
 42
0.0
  0
VERTEX
  8
Back
 10
970.456260697309
 20
636.49999999996
 42
0.0
  0
VERTEX
  8
Back
 10
967.956260697308
 20
636.499999999959
 42
0.0
  0
VERTEX
  8
Back
 10
967.956260697308
 20
649.999999999959
 42
0.0
  0
VERTEX
  8
Back
 10
973.956260697308
 20
649.99999999996
 42
0.0
  0
VERTEX
  8
Back
 10
973.956260697306
 20
659.99999999996
 42
0.0
  0
VERTEX
  8
Back
 10
979.956260697306
 20
659.99999999996
 42
0.0
  0
VERTEX
  8
Back
 10
979.956260697307
 20
649.999999999958
 42
0.0
  0
VERTEX
  8
Back
 10
1247.95626069731
 20
649.999999999985
 42
0.0
  0
VERTEX
  8
Back
 10
1247.95626069731
 20
659.999999999985
 42
0.0
  0
VERTEX
  8
Back
 10
1253.95626069731
 20
659.999999999987
 42
0.0
  0
VERTEX
  8
Back
 10
1253.95626069731
 20
649.999999999986
 42
0.0
  0
VERTEX
  8
Back
 10
1259.95626069731
 20
649.999999999987
 42
0.0
  0
VERTEX
  8
Back
 10
1259.95626069731
 20
636.499999999987
 42
0.0
  0
VERTEX
  8
Back
 10
1257.45626069731
 20
636.499999999986
 42
0.0
  0
VERTEX
  8
Back
 10
1257.45626069731
 20
629.999999999986
 42
0.0
  0
VERTEX
  8
Back
 10
1259.95626069731
 20
629.999999999987
 42
0.0
  0
VERTEX
  8
Back
 10
1259.95626069731
 20
624.999999999987
 42
0.0
  0
VERTEX
  8
Back
 10
1267.95626069731
 20
624.999999999987
 42
0.0
  0
VERTEX
  8
Back
 10
1267.95626069731
 20
629.999999999989
 42
0.0
  0
VERTEX
  8
Back
 10
1270.45626069731
 20
629.999999999989
 42
0.0
  0
VERTEX
  8
Back
 10
1270.45626069731
 20
636.499999999989
 42
0.0
  0
VERTEX
  8
Back
 10
1267.95626069731
 20
636.499999999988
 42
0.0
  0
VERTEX
  8
Back
 10
1267.95626069731
 20
649.999999999988
 42
0.0
  0
VERTEX
  8
Back
 10
1273.95626069731
 20
649.999999999989
 42
0.0
  0
VERTEX
  8
Back
 10
1273.95626069731
 20
659.999999999989
 42
0.0
  0
VERTEX
  8
Back
 10
1279.95626069731
 20
659.999999999989
 42
0.0
  0
VERTEX
  8
Back
 10
1279.95626069731
 20
649.999999999987
 42
0.0
  0
VERTEX
  8
Back
 10
1471.09752567375
 20
650.000000000005
 42
0.0
  0
VERTEX
  8
Back
 10
1471.09752567375
 20
660.000000000006
 42
0.0
  0
VERTEX
  8
Back
 10
1477.09752567375
 20
660.000000000007
 42
0.0
  0
VERTEX
  8
Back
 10
1477.09752567375
 20
650.000000000006
 42
0.0
  0
VERTEX
  8
Back
 10
1483.09752567375
 20
650.000000000007
 42
0.0
  0
VERTEX
  8
Back
 10
1483.09752567375
 20
636.500000000008
 42
0.0
  0
VERTEX
  8
Back
 10
1480.59752567375
 20
636.500000000007
 42
0.0
  0
VERTEX
  8
Back
 10
1480.59752567375
 20
630.000000000007
 42
0.0
  0
VERTEX
  8
Back
 10
1483.09752567375
 20
630.000000000007
 42
0.0
  0
VERTEX
  8
Back
 10
1483.09752567375
 20
625.000000000007
 42
0.0
  0
VERTEX
  8
Back
 10
1491.09752567375
 20
625.000000000008
 42
0.0
  0
VERTEX
  8
Back
 10
1491.09752567375
 20
630.000000000009
 42
0.0
  0
VERTEX
  8
Back
 10
1493.59752567375
 20
630.000000000009
 42
0.0
  0
VERTEX
  8
Back
 10
1493.59752567375
 20
636.500000000009
 42
0.0
  0
VERTEX
  8
Back
 10
1491.09752567375
 20
636.500000000009
 42
0.0
  0
VERTEX
  8
Back
 10
1491.09752567375
 20
650.000000000008
 42
0.0
  0
VERTEX
  8
Back
 10
1497.09752567375
 20
650.000000000009
 42
0.0
  0
VERTEX
  8
Back
 10
1497.09752567375
 20
660.000000000009
 42
0.0
  0
VERTEX
  8
Back
 10
1503.09752567375
 20
660.00000000001
 42
0.0
  0
VERTEX
  8
Back
 10
1503.09752567375
 20
650.000000000007
 42
0.0
  0
VERTEX
  8
Back
 10
1694.23879065019
 20
650.000000000025
 42
0.0
  0
VERTEX
  8
Back
 10
1694.23879065019
 20
660.000000000026
 42
0.0
  0
VERTEX
  8
Back
 10
1700.23879065019
 20
660.000000000027
 42
0.0
  0
VERTEX
  8
Back
 10
1700.23879065019
 20
650.000000000026
 42
0.0
  0
VERTEX
  8
Back
 10
1706.23879065019
 20
650.000000000027
 42
0.0
  0
VERTEX
  8
Back
 10
1706.23879065019
 20
636.500000000028
 42
0.0
  0
VERTEX
  8
Back
 10
1703.73879065019
 20
636.500000000027
 42
0.0
  0
VERTEX
  8
Back
 10
1703.73879065019
 20
630.000000000027
 42
0.0
  0
VERTEX
  8
Back
 10
1706.23879065019
 20
630.000000000027
 42
0.0
  0
VERTEX
  8
Back
 10
1706.2387906502
 20
625.000000000027
 42
0.0
  0
VERTEX
  8
Back
 10
1714.23879065019
 20
625.000000000028
 42
0.0
  0
VERTEX
  8
Back
 10
1714.23879065019
 20
630.000000000029
 42
0.0
  0
VERTEX
  8
Back
 10
1716.73879065019
 20
630.000000000029
 42
0.0
  0
VERTEX
  8
Back
 10
1716.73879065019
 20
636.500000000029
 42
0.0
  0
VERTEX
  8
Back
 10
1714.23879065019
 20
636.500000000029
 42
0.0
  0
VERTEX
  8
Back
 10
1714.23879065019
 20
650.000000000028
 42
0.0
  0
VERTEX
  8
Back
 10
1720.23879065019
 20
650.000000000029
 42
0.0
  0
VERTEX
  8
Back
 10
1720.23879065019
 20
660.000000000029
 42
0.0
  0
VERTEX
  8
Back
 10
1726.23879065019
 20
660.00000000003
 42
0.0
  0
VERTEX
  8
Back
 10
1726.23879065019
 20
650.000000000027
 42
0.0
  0
VERTEX
  8
Back
 10
1994.23879065019
 20
650.000000000053
 42
0.0
  0
VERTEX
  8
Back
 10
1994.23879065019
 20
660.000000000053
 42
0.0
  0
VERTEX
  8
Back
 10
2000.23879065019
 20
660.000000000054
 42
0.0
  0
VERTEX
  8
Back
 10
2000.23879065019
 20
650.000000000054
 42
0.0
  0
VERTEX
  8
Back
 10
2006.23879065019
 20
650.000000000054
 42
0.0
  0
VERTEX
  8
Back
 10
2006.23879065019
 20
636.500000000055
 42
0.0
  0
VERTEX
  8
Back
 10
2003.73879065019
 20
636.500000000054
 42
0.0
  0
VERTEX
  8
Back
 10
2003.73879065019
 20
630.000000000054
 42
0.0
  0
VERTEX
  8
Back
 10
2006.23879065019
 20
630.000000000054
 42
0.0
  0
VERTEX
  8
Back
 10
2006.2387906502
 20
625.000000000054
 42
0.0
  0
VERTEX
  8
Back
 10
2014.23879065019
 20
625.000000000055
 42
0.0
  0
VERTEX
  8
Back
 10
2014.23879065019
 20
630.000000000056
 42
0.0
  0
VERTEX
  8
Back
 10
2016.73879065019
 20
630.000000000056
 42
0.0
  0
VERTEX
  8
Back
 10
2016.73879065019
 20
636.500000000056
 42
0.0
  0
VERTEX
  8
Back
 10
2014.23879065019
 20
636.500000000056
 42
0.0
  0
VERTEX
  8
Back
 10
2014.23879065019
 20
650.000000000055
 42
0.0
  0
VERTEX
  8
Back
 10
2020.23879065019
 20
650.000000000057
 42
0.0
  0
VERTEX
  8
Back
 10
2020.23879065019
 20
660.000000000057
 42
0.0
  0
VERTEX
  8
Back
 10
2026.23879065019
 20
660.000000000057
 42
0.0
  0
VERTEX
  8
Back
 10
2026.23879065019
 20
650.000000000055
 42
0.0
  0
VERTEX
  8
Back
 10
2110.23879065019
 20
650.000000000062
 42
0.0
  0
VERTEX
  8
Back
 10
2110.23879065025
 20
20.0000000000623
 42
0.0
  0
VERTEX
  8
Back
 10
2026.23879065025
 20
20.0000000000546
 42
0.0
  0
VERTEX
  8
Back
 10
2026.23879065025
 20
10.0000000000521
 42
0.0
  0
VERTEX
  8
Back
 10
2020.23879065025
 20
10.0000000000516
 42
0.0
  0
VERTEX
  8
Back
 10
2020.23879065025
 20
20.0000000000515
 42
0.0
  0
VERTEX
  8
Back
 10
2014.23879065025
 20
20.0000000000517
 42
0.0
  0
VERTEX
  8
Back
 10
2014.23879065025
 20
33.5000000000511
 42
0.0
  0
VERTEX
  8
Back
 10
2016.73879065025
 20
33.5000000000513
 42
0.0
  0
VERTEX
  8
Back
 10
2016.73879065025
 20
40.0000000000513
 42
0.0
  0
VERTEX
  8
Back
 10
2014.23879065025
 20
40.0000000000507
 42
0.0
  0
VERTEX
  8
Back
 10
2014.23879065025
 20
45.0000000000521
 42
0.0
  0
VERTEX
  8
Back
 10
2006.23879065025
 20
45.0000000000513
 42
0.0
  0
VERTEX
  8
Back
 10
2006.23879065025
 20
40.000000000051
 42
0.0
  0
VERTEX
  8
Back
 10
2003.73879065025
 20
40.0000000000512
 42
0.0
  0
VERTEX
  8
Back
 10
2003.73879065025
 20
33.5000000000512
 42
0.0
  0
VERTEX
  8
Back
 10
2006.23879065025
 20
33.5000000000507
 42
0.0
  0
VERTEX
  8
Back
 10
2006.23879065025
 20
20.0000000000509
 42
0.0
  0
VERTEX
  8
Back
 10
2000.23879065025
 20
20.0000000000507
 42
0.0
  0
VERTEX
  8
Back
 10
2000.23879065025
 20
10.0000000000501
 42
0.0
  0
VERTEX
  8
Back
 10
1994.23879065025
 20
10.0000000000502
 42
0.0
  0
VERTEX
  8
Back
 10
1994.23879065025
 20
20.0000000000505
 42
0.0
  0
VERTEX
  8
Back
 10
1726.23879065025
 20
20.000000000026
 42
0.0
  0
VERTEX
  8
Back
 10
1726.23879065025
 20
10.0000000000235
 42
0.0
  0
VERTEX
  8
Back
 10
1720.23879065025
 20
10.000000000023
 42
0.0
  0
VERTEX
  8
Back
 10
1720.23879065025
 20
20.0000000000229
 42
0.0
  0
VERTEX
  8
Back
 10
1714.23879065025
 20
20.0000000000231
 42
0.0
  0
VERTEX
  8
Back
 10
1714.23879065025
 20
33.5000000000225
 42
0.0
  0
VERTEX
  8
Back
 10
1716.73879065025
 20
33.5000000000227
 42
0.0
  0
VERTEX
  8
Back
 10
1716.73879065025
 20
40.0000000000227
 42
0.0
  0
VERTEX
  8
Back
 10
1714.23879065025
 20
40.0000000000221
 42
0.0
  0
VERTEX
  8
Back
 10
1714.23879065025
 20
45.0000000000235
 42
0.0
  0
VERTEX
  8
Back
 10
1706.23879065025
 20
45.0000000000227
 42
0.0
  0
VERTEX
  8
Back
 10
1706.23879065025
 20
40.0000000000224
 42
0.0
  0
VERTEX
  8
Back
 10
1703.73879065025
 20
40.0000000000226
 42
0.0
  0
VERTEX
  8
Back
 10
1703.73879065025
 20
33.5000000000226
 42
0.0
  0
VERTEX
  8
Back
 10
1706.23879065025
 20
33.5000000000221
 42
0.0
  0
VERTEX
  8
Back
 10
1706.23879065025
 20
20.0000000000223
 42
0.0
  0
VERTEX
  8
Back
 10
1700.23879065025
 20
20.0000000000221
 42
0.0
  0
VERTEX
  8
Back
 10
1700.23879065025
 20
10.0000000000215
 42
0.0
  0
VERTEX
  8
Back
 10
1694.23879065025
 20
10.0000000000216
 42
0.0
  0
VERTEX
  8
Back
 10
1694.23879065025
 20
20.0000000000219
 42
0.0
  0
VERTEX
  8
Back
 10
1503.09752567381
 20
20.0000000000045
 42
0.0
  0
VERTEX
  8
Back
 10
1503.09752567381
 20
10.0000000000021
 42
0.0
  0
VERTEX
  8
Back
 10
1497.09752567381
 20
10.0000000000015
 42
0.0
  0
VERTEX
  8
Back
 10
1497.09752567381
 20
20.0000000000014
 42
0.0
  0
VERTEX
  8
Back
 10
1491.09752567381
 20
20.0000000000016
 42
0.0
  0
VERTEX
  8
Back
 10
1491.09752567381
 20
33.500000000001
 42
0.0
  0
VERTEX
  8
Back
 10
1493.59752567381
 20
33.5000000000012
 42
0.0
  0
VERTEX
  8
Back
 10
1493.59752567381
 20
40.0000000000012
 42
0.0
  0
VERTEX
  8
Back
 10
1491.09752567381
 20
40.0000000000006
 42
0.0
  0
VERTEX
  8
Back
 10
1491.09752567381
 20
45.000000000002
 42
0.0
  0
VERTEX
  8
Back
 10
1483.09752567381
 20
45.0000000000013
 42
0.0
  0
VERTEX
  8
Back
 10
1483.09752567381
 20
40.000000000001
 42
0.0
  0
VERTEX
  8
Back
 10
1480.59752567381
 20
40.0000000000011
 42
0.0
  0
VERTEX
  8
Back
 10
1480.59752567381
 20
33.5000000000011
 42
0.0
  0
VERTEX
  8
Back
 10
1483.09752567381
 20
33.5000000000007
 42
0.0
  0
VERTEX
  8
Back
 10
1483.09752567381
 20
20.0000000000009
 42
0.0
  0
VERTEX
  8
Back
 10
1477.09752567381
 20
20.0000000000006
 42
0.0
  0
VERTEX
  8
Back
 10
1477.09752567381
 20
10.0
 42
0.0
  0
VERTEX
  8
Back
 10
1471.09752567381
 20
10.0000000000002
 42
0.0
  0
VERTEX
  8
Back
 10
1471.09752567381
 20
20.0000000000004
 42
0.0
  0
VERTEX
  8
Back
 10
1279.95626069737
 20
19.9999999999834
 42
0.0
  0
VERTEX
  8
Back
 10
1279.95626069737
 20
9.9999999999809
 42
0.0
  0
VERTEX
  8
Back
 10
1273.95626069737
 20
9.9999999999804
 42
0.0
  0
VERTEX
  8
Back
 10
1273.95626069737
 20
19.9999999999803
 42
0.0
  0
VERTEX
  8
Back
 10
1267.95626069737
 20
19.9999999999805
 42
0.0
  0
VERTEX
  8
Back
 10
1267.95626069736
 20
33.4999999999799
 42
0.0
  0
VERTEX
  8
Back
 10
1270.45626069737
 20
33.4999999999802
 42
0.0
  0
VERTEX
  8
Back
 10
1270.45626069736
 20
39.9999999999802
 42
0.0
  0
VERTEX
  8
Back
 10
1267.95626069736
 20
39.9999999999795
 42
0.0
  0
VERTEX
  8
Back
 10
1267.95626069736
 20
44.9999999999809
 42
0.0
  0
VERTEX
  8
Back
 10
1259.95626069736
 20
44.9999999999802
 42
0.0
  0
VERTEX
  8
Back
 10
1259.95626069736
 20
39.9999999999799
 42
0.0
  0
VERTEX
  8
Back
 10
1257.45626069736
 20
39.99999999998
 42
0.0
  0
VERTEX
  8
Back
 10
1257.45626069736
 20
33.49999999998
 42
0.0
  0
VERTEX
  8
Back
 10
1259.95626069736
 20
33.4999999999796
 42
0.0
  0
VERTEX
  8
Back
 10
1259.95626069737
 20
19.9999999999798
 42
0.0
  0
VERTEX
  8
Back
 10
1253.95626069737
 20
19.9999999999796
 42
0.0
  0
VERTEX
  8
Back
 10
1253.95626069737
 20
9.999999999979
 42
0.0
  0
VERTEX
  8
Back
 10
1247.95626069737
 20
9.9999999999791
 42
0.0
  0
VERTEX
  8
Back
 10
1247.95626069737
 20
19.9999999999793
 42
0.0
  0
VERTEX
  8
Back
 10
979.956260697366
 20
19.9999999999566
 42
0.0
  0
VERTEX
  8
Back
 10
979.956260697367
 20
9.9999999999541
 42
0.0
  0
VERTEX
  8
Back
 10
973.956260697367
 20
9.9999999999536
 42
0.0
  0
VERTEX
  8
Back
 10
973.956260697366
 20
19.9999999999535
 42
0.0
  0
VERTEX
  8
Back
 10
967.956260697367
 20
19.9999999999537
 42
0.0
  0
VERTEX
  8
Back
 10
967.956260697364
 20
33.4999999999531
 42
0.0
  0
VERTEX
  8
Back
 10
970.456260697365
 20
33.4999999999534
 42
0.0
  0
VERTEX
  8
Back
 10
970.456260697364
 20
39.9999999999534
 42
0.0
  0
VERTEX
  8
Back
 10
967.956260697363
 20
39.9999999999527
 42
0.0
  0
VERTEX
  8
Back
 10
967.956260697364
 20
44.9999999999541
 42
0.0
  0
VERTEX
  8
Back
 10
959.956260697364
 20
44.9999999999534
 42
0.0
  0
VERTEX
  8
Back
 10
959.956260697364
 20
39.9999999999531
 42
0.0
  0
VERTEX
  8
Back
 10
957.456260697364
 20
39.9999999999532
 42
0.0
  0
VERTEX
  8
Back
 10
957.456260697365
 20
33.4999999999532
 42
0.0
  0
VERTEX
  8
Back
 10
959.956260697365
 20
33.4999999999528
 42
0.0
  0
SEQEND
  0
POLYLINE
  8
Screen_Mount
 66
     1
 10
0.0
 20
0.0
 30
0.0
 70
     1
  0
VERTEX
  8
Screen_Mount
 10
1800.0
 20
754.58078218115
 42
0.0
  0
VERTEX
  8
Screen_Mount
 10
2330.0
 20
754.58078218115
 42
0.0
  0
VERTEX
  8
Screen_Mount
 10
2330.0
 20
1099.58078218115
 42
0.0
  0
VERTEX
  8
Screen_Mount
 10
1800.0
 20
1099.58078218115
 42
0.0
  0
SEQEND
  0
POLYLINE
  8
Screen_Mount
 66
     1
 10
0.0
 20
0.0
 30
0.0
 70
     9
  0
VERTEX
  8
Screen_Mount
 10
2380.0
 20
706.890675236557
 30
0.0
 42
0.0
  0
VERTEX
  8
Screen_Mount
 10
2196.0
 20
706.890675236554
 30
0.0
 42
0.0
  0
VERTEX
  8
Screen_Mount
 10
2196.0
 20
696.890675236554
 30
0.0
 42
0.0
  0
VERTEX
  8
Screen_Mount
 10
2190.0
 20
696.890675236554
 30
0.0
 42
0.0
  0
VERTEX
  8
Screen_Mount
 10
2189.99999999999
 20
706.890675236554
 30
0.0
 42
0.0
  0
VERTEX
  8
Screen_Mount
 10
2184.0
 20
706.890675236553
 30
0.0
 42
0.0
  0
VERTEX
  8
Screen_Mount
 10
2184.0
 20
720.390675236555
 30
0.0
 42
0.0
  0
VERTEX
  8
Screen_Mount
 10
2186.5
 20
720.390675236555
 30
0.0
 42
0.0
  0
VERTEX
  8
Screen_Mount
 10
2186.5
 20
726.890675236555
 30
0.0
 42
0.0
  0
VERTEX
  8
Screen_Mount
 10
2184.0
 20
726.890675236555
 30
0.0
 42
0.0
  0
VERTEX
  8
Screen_Mount
 10
2184.0
 20
731.890675236555
 30
0.0
 42
0.0
  0
VERTEX
  8
Screen_Mount
 10
2176.0
 20
731.890675236555
 30
0.0
 42
0.0
  0
VERTEX
  8
Screen_Mount
 10
2176.0
 20
726.890675236553
 30
0.0
 42
0.0
  0
VERTEX
  8
Screen_Mount
 10
2173.5
 20
726.890675236553
 30
0.0
 42
0.0
  0
VERTEX
  8
Screen_Mount
 10
2173.49999999999
 20
720.390675236554
 30
0.0
 42
0.0
  0
VERTEX
  8
Screen_Mount
 10
2176.0
 20
720.390675236554
 30
0.0
 42
0.0
  0
VERTEX
  8
Screen_Mount
 10
2175.99999999999
 20
706.890675236554
 30
0.0
 42
0.0
  0
VERTEX
  8
Screen_Mount
 10
2170.0
 20
706.890675236554
 30
0.0
 42
0.0
  0
VERTEX
  8
Screen_Mount
 10
2170.0
 20
696.890675236554
 30
0.0
 42
0.0
  0
VERTEX
  8
Screen_Mount
 10
2164.0
 20
696.890675236553
 30
0.0
 42
0.0
  0
VERTEX
  8
Screen_Mount
 10
2164.0
 20
706.890675236557
 30
0.0
 42
0.0
  0
VERTEX
  8
Screen_Mount
 10
1966.0
 20
706.890675236554
 30
0.0
 42
0.0
  0
VERTEX
  8
Screen_Mount
 10
1966.0
 20
696.890675236554
 30
0.0
 42
0.0
  0
VERTEX
  8
Screen_Mount
 10
1960.0
 20
696.890675236554
 30
0.0
 42
0.0
  0
VERTEX
  8
Screen_Mount
 10
1960.0
 20
706.890675236554
 30
0.0
 42
0.0
  0
VERTEX
  8
Screen_Mount
 10
1954.0
 20
706.890675236553
 30
0.0
 42
0.0
  0
VERTEX
  8
Screen_Mount
 10
1954.0
 20
720.390675236555
 30
0.0
 42
0.0
  0
VERTEX
  8
Screen_Mount
 10
1956.5
 20
720.390675236555
 30
0.0
 42
0.0
  0
VERTEX
  8
Screen_Mount
 10
1956.5
 20
726.890675236555
 30
0.0
 42
0.0
  0
VERTEX
  8
Screen_Mount
 10
1954.0
 20
726.890675236555
 30
0.0
 42
0.0
  0
VERTEX
  8
Screen_Mount
 10
1954.0
 20
731.890675236555
 30
0.0
 42
0.0
  0
VERTEX
  8
Screen_Mount
 10
1946.0
 20
731.890675236555
 30
0.0
 42
0.0
  0
VERTEX
  8
Screen_Mount
 10
1946.0
 20
726.890675236553
 30
0.0
 42
0.0
  0
VERTEX
  8
Screen_Mount
 10
1943.5
 20
726.890675236553
 30
0.0
 42
0.0
  0
VERTEX
  8
Screen_Mount
 10
1943.5
 20
720.390675236554
 30
0.0
 42
0.0
  0
VERTEX
  8
Screen_Mount
 10
1946.0
 20
720.390675236554
 30
0.0
 42
0.0
  0
VERTEX
  8
Screen_Mount
 10
1946.0
 20
706.890675236554
 30
0.0
 42
0.0
  0
VERTEX
  8
Screen_Mount
 10
1940.0
 20
706.890675236554
 30
0.0
 42
0.0
  0
VERTEX
  8
Screen_Mount
 10
1940.0
 20
696.890675236554
 30
0.0
 42
0.0
  0
VERTEX
  8
Screen_Mount
 10
1934.0
 20
696.890675236553
 30
0.0
 42
0.0
  0
VERTEX
  8
Screen_Mount
 10
1934.0
 20
706.890675236557
 30
0.0
 42
0.0
  0
VERTEX
  8
Screen_Mount
 10
1750.0
 20
706.890675236557
 30
0.0
 42
0.0
  0
VERTEX
  8
Screen_Mount
 10
1750.0
 20
715.890675236556
 30
0.0
 42
0.0
  0
VERTEX
  8
Screen_Mount
 10
1739.99999999999
 20
715.890675236556
 30
0.0
 42
0.0
  0
VERTEX
  8
Screen_Mount
 10
1739.99999999999
 20
721.890675236556
 30
0.0
 42
0.0
  0
VERTEX
  8
Screen_Mount
 10
1750.0
 20
721.890675236557
 30
0.0
 42
0.0
  0
VERTEX
  8
Screen_Mount
 10
1749.99999999999
 20
727.890675236557
 30
0.0
 42
0.0
  0
VERTEX
  8
Screen_Mount
 10
1763.49999999999
 20
727.890675236556
 30
0.0
 42
0.0
  0
VERTEX
  8
Screen_Mount
 10
1763.5
 20
725.390675236557
 30
0.0
 42
0.0
  0
VERTEX
  8
Screen_Mount
 10
1770.0
 20
725.390675236557
 30
0.0
 42
0.0
  0
VERTEX
  8
Screen_Mount
 10
1770.0
 20
727.890675236556
 30
0.0
 42
0.0
  0
VERTEX
  8
Screen_Mount
 10
1775.0
 20
727.890675236557
 30
0.0
 42
0.0
  0
VERTEX
  8
Screen_Mount
 10
1775.0
 20
735.890675236557
 30
0.0
 42
0.0
  0
VERTEX
  8
Screen_Mount
 10
1769.99999999999
 20
735.890675236556
 30
0.0
 42
0.0
  0
VERTEX
  8
Screen_Mount
 10
1769.99999999999
 20
738.390675236557
 30
0.0
 42
0.0
  0
VERTEX
  8
Screen_Mount
 10
1763.49999999999
 20
738.390675236557
 30
0.0
 42
0.0
  0
VERTEX
  8
Screen_Mount
 10
1763.49999999999
 20
735.890675236556
 30
0.0
 42
0.0
  0
VERTEX
  8
Screen_Mount
 10
1749.99999999999
 20
735.890675236558
 30
0.0
 42
0.0
  0
VERTEX
  8
Screen_Mount
 10
1749.99999999999
 20
741.890675236557
 30
0.0
 42
0.0
  0
VERTEX
  8
Screen_Mount
 10
1739.99999999999
 20
741.890675236556
 30
0.0
 42
0.0
  0
VERTEX
  8
Screen_Mount
 10
1739.99999999999
 20
747.890675236557
 30
0.0
 42
0.0
  0
VERTEX
  8
Screen_Mount
 10
1750.0
 20
747.890675236557
 30
0.0
 42
0.0
  0
VERTEX
  8
Screen_Mount
 10
1750.0
 20
838.580782181149
 30
0.0
 42
0.0
  0
VERTEX
  8
Screen_Mount
 10
1739.99999999999
 20
838.580782181149
 30
0.0
 42
0.0
  0
VERTEX
  8
Screen_Mount
 10
1739.99999999999
 20
844.580782181149
 30
0.0
 42
0.0
  0
VERTEX
  8
Screen_Mount
 10
1749.99999999999
 20
844.58078218115
 30
0.0
 42
0.0
  0
VERTEX
  8
Screen_Mount
 10
1749.99999999999
 20
850.58078218115
 30
0.0
 42
0.0
  0
VERTEX
  8
Screen_Mount
 10
1763.49999999999
 20
850.58078218115
 30
0.0
 42
0.0
  0
VERTEX
  8
Screen_Mount
 10
1763.5
 20
848.08078218115
 30
0.0
 42
0.0
  0
VERTEX
  8
Screen_Mount
 10
1770.0
 20
848.08078218115
 30
0.0
 42
0.0
  0
VERTEX
  8
Screen_Mount
 10
1769.99999999999
 20
850.58078218115
 30
0.0
 42
0.0
  0
VERTEX
  8
Screen_Mount
 10
1774.99999999999
 20
850.58078218115
 30
0.0
 42
0.0
  0
VERTEX
  8
Screen_Mount
 10
1774.99999999999
 20
858.58078218115
 30
0.0
 42
0.0
  0
VERTEX
  8
Screen_Mount
 10
1769.99999999999
 20
858.580782181149
 30
0.0
 42
0.0
  0
VERTEX
  8
Screen_Mount
 10
1769.99999999999
 20
861.08078218115
 30
0.0
 42
0.0
  0
VERTEX
  8
Screen_Mount
 10
1763.49999999999
 20
861.080782181151
 30
0.0
 42
0.0
  0
VERTEX
  8
Screen_Mount
 10
1763.49999999999
 20
858.580782181149
 30
0.0
 42
0.0
  0
VERTEX
  8
Screen_Mount
 10
1749.99999999999
 20
858.580782181151
 30
0.0
 42
0.0
  0
VERTEX
  8
Screen_Mount
 10
1749.99999999999
 20
864.58078218115
 30
0.0
 42
0.0
  0
VERTEX
  8
Screen_Mount
 10
1739.99999999999
 20
864.58078218115
 30
0.0
 42
0.0
  0
VERTEX
  8
Screen_Mount
 10
1739.99999999999
 20
870.58078218115
 30
0.0
 42
0.0
  0
VERTEX
  8
Screen_Mount
 10
1750.0
 20
870.58078218115
 30
0.0
 42
0.0
  0
VERTEX
  8
Screen_Mount
 10
1749.99999999999
 20
983.580782181149
 30
0.0
 42
0.0
  0
VERTEX
  8
Screen_Mount
 10
1739.99999999999
 20
983.580782181149
 30
0.0
 42
0.0
  0
VERTEX
  8
Screen_Mount
 10
1739.99999999999
 20
989.580782181149
 30
0.0
 42
0.0
  0
VERTEX
  8
Screen_Mount
 10
1749.99999999999
 20
989.58078218115
 30
0.0
 42
0.0
  0
VERTEX
  8
Screen_Mount
 10
1749.99999999999
 20
995.58078218115
 30
0.0
 42
0.0
  0
VERTEX
  8
Screen_Mount
 10
1763.49999999999
 20
995.58078218115
 30
0.0
 42
0.0
  0
VERTEX
  8
Screen_Mount
 10
1763.49999999999
 20
993.08078218115
 30
0.0
 42
0.0
  0
VERTEX
  8
Screen_Mount
 10
1769.99999999999
 20
993.08078218115
 30
0.0
 42
0.0
  0
VERTEX
  8
Screen_Mount
 10
1769.99999999999
 20
995.58078218115
 30
0.0
 42
0.0
  0
VERTEX
  8
Screen_Mount
 10
1774.99999999999
 20
995.58078218115
 30
0.0
 42
0.0
  0
VERTEX
  8
Screen_Mount
 10
1774.99999999999
 20
1003.58078218115
 30
0.0
 42
0.0
  0
VERTEX
  8
Screen_Mount
 10
1769.99999999999
 20
1003.58078218115
 30
0.0
 42
0.0
  0
VERTEX
  8
Screen_Mount
 10
1769.99999999999
 20
1006.08078218115
 30
0.0
 42
0.0
  0
VERTEX
  8
Screen_Mount
 10
1763.49999999999
 20
1006.08078218115
 30
0.0
 42
0.0
  0
VERTEX
  8
Screen_Mount
 10
1763.49999999999
 20
1003.58078218115
 30
0.0
 42
0.0
  0
VERTEX
  8
Screen_Mount
 10
1749.99999999999
 20
1003.58078218115
 30
0.0
 42
0.0
  0
VERTEX
  8
Screen_Mount
 10
1749.99999999999
 20
1009.58078218115
 30
0.0
 42
0.0
  0
VERTEX
  8
Screen_Mount
 10
1739.99999999999
 20
1009.58078218115
 30
0.0
 42
0.0
  0
VERTEX
  8
Screen_Mount
 10
1739.99999999999
 20
1015.58078218115
 30
0.0
 42
0.0
  0
VERTEX
  8
Screen_Mount
 10
1750.0
 20
1015.58078218115
 30
0.0
 42
0.0
  0
VERTEX
  8
Screen_Mount
 10
1750.0
 20
1106.27088912574
 30
0.0
 42
0.0
  0
VERTEX
  8
Screen_Mount
 10
1739.99999999999
 20
1106.27088912574
 30
0.0
 42
0.0
  0
VERTEX
  8
Screen_Mount
 10
1739.99999999999
 20
1112.27088912574
 30
0.0
 42
0.0
  0
VERTEX
  8
Screen_Mount
 10
1750.0
 20
1112.27088912574
 30
0.0
 42
0.0
  0
VERTEX
  8
Screen_Mount
 10
1749.99999999999
 20
1118.27088912574
 30
0.0
 42
0.0
  0
VERTEX
  8
Screen_Mount
 10
1763.49999999999
 20
1118.27088912574
 30
0.0
 42
0.0
  0
VERTEX
  8
Screen_Mount
 10
1763.5
 20
1115.77088912574
 30
0.0
 42
0.0
  0
VERTEX
  8
Screen_Mount
 10
1770.0
 20
1115.77088912574
 30
0.0
 42
0.0
  0
VERTEX
  8
Screen_Mount
 10
1770.0
 20
1118.27088912574
 30
0.0
 42
0.0
  0
VERTEX
  8
Screen_Mount
 10
1775.0
 20
1118.27088912574
 30
0.0
 42
0.0
  0
VERTEX
  8
Screen_Mount
 10
1775.0
 20
1126.27088912574
 30
0.0
 42
0.0
  0
VERTEX
  8
Screen_Mount
 10
1769.99999999999
 20
1126.27088912574
 30
0.0
 42
0.0
  0
VERTEX
  8
Screen_Mount
 10
1769.99999999999
 20
1128.77088912574
 30
0.0
 42
0.0
  0
VERTEX
  8
Screen_Mount
 10
1763.49999999999
 20
1128.77088912574
 30
0.0
 42
0.0
  0
VERTEX
  8
Screen_Mount
 10
1763.49999999999
 20
1126.27088912574
 30
0.0
 42
0.0
  0
VERTEX
  8
Screen_Mount
 10
1749.99999999999
 20
1126.27088912574
 30
0.0
 42
0.0
  0
VERTEX
  8
Screen_Mount
 10
1749.99999999999
 20
1132.27088912574
 30
0.0
 42
0.0
  0
VERTEX
  8
Screen_Mount
 10
1739.99999999999
 20
1132.27088912574
 30
0.0
 42
0.0
  0
VERTEX
  8
Screen_Mount
 10
1739.99999999999
 20
1138.27088912574
 30
0.0
 42
0.0
  0
VERTEX
  8
Screen_Mount
 10
1750.0
 20
1138.27088912574
 30
0.0
 42
0.0
  0
VERTEX
  8
Screen_Mount
 10
1750.0
 20
1147.27088912574
 30
0.0
 42
0.0
  0
VERTEX
  8
Screen_Mount
 10
2380.0
 20
1147.27088912574
 30
0.0
 42
0.0
  0
VERTEX
  8
Screen_Mount
 10
2380.0
 20
1138.27088912574
 30
0.0
 42
0.0
  0
VERTEX
  8
Screen_Mount
 10
2390.0
 20
1138.27088912574
 30
0.0
 42
0.0
  0
VERTEX
  8
Screen_Mount
 10
2390.0
 20
1132.27088912574
 30
0.0
 42
0.0
  0
VERTEX
  8
Screen_Mount
 10
2380.0
 20
1132.27088912574
 30
0.0
 42
0.0
  0
VERTEX
  8
Screen_Mount
 10
2380.0
 20
1126.27088912574
 30
0.0
 42
0.0
  0
VERTEX
  8
Screen_Mount
 10
2366.5
 20
1126.27088912574
 30
0.0
 42
0.0
  0
VERTEX
  8
Screen_Mount
 10
2366.5
 20
1128.77088912574
 30
0.0
 42
0.0
  0
VERTEX
  8
Screen_Mount
 10
2360.0
 20
1128.77088912574
 30
0.0
 42
0.0
  0
VERTEX
  8
Screen_Mount
 10
2360.0
 20
1126.27088912574
 30
0.0
 42
0.0
  0
VERTEX
  8
Screen_Mount
 10
2355.0
 20
1126.27088912574
 30
0.0
 42
0.0
  0
VERTEX
  8
Screen_Mount
 10
2355.0
 20
1118.27088912574
 30
0.0
 42
0.0
  0
VERTEX
  8
Screen_Mount
 10
2360.0
 20
1118.27088912574
 30
0.0
 42
0.0
  0
VERTEX
  8
Screen_Mount
 10
2360.0
 20
1115.77088912574
 30
0.0
 42
0.0
  0
VERTEX
  8
Screen_Mount
 10
2366.5
 20
1115.77088912574
 30
0.0
 42
0.0
  0
VERTEX
  8
Screen_Mount
 10
2366.5
 20
1118.27088912574
 30
0.0
 42
0.0
  0
VERTEX
  8
Screen_Mount
 10
2380.0
 20
1118.27088912574
 30
0.0
 42
0.0
  0
VERTEX
  8
Screen_Mount
 10
2380.0
 20
1112.27088912574
 30
0.0
 42
0.0
  0
VERTEX
  8
Screen_Mount
 10
2390.0
 20
1112.27088912574
 30
0.0
 42
0.0
  0
VERTEX
  8
Screen_Mount
 10
2390.0
 20
1106.27088912574
 30
0.0
 42
0.0
  0
VERTEX
  8
Screen_Mount
 10
2380.0
 20
1106.27088912574
 30
0.0
 42
0.0
  0
VERTEX
  8
Screen_Mount
 10
2380.0
 20
1015.58078218115
 30
0.0
 42
0.0
  0
VERTEX
  8
Screen_Mount
 10
2390.0
 20
1015.58078218115
 30
0.0
 42
0.0
  0
VERTEX
  8
Screen_Mount
 10
2390.0
 20
1009.58078218115
 30
0.0
 42
0.0
  0
VERTEX
  8
Screen_Mount
 10
2380.0
 20
1009.58078218115
 30
0.0
 42
0.0
  0
VERTEX
  8
Screen_Mount
 10
2380.0
 20
1003.58078218115
 30
0.0
 42
0.0
  0
VERTEX
  8
Screen_Mount
 10
2366.5
 20
1003.58078218115
 30
0.0
 42
0.0
  0
VERTEX
  8
Screen_Mount
 10
2366.5
 20
1006.08078218115
 30
0.0
 42
0.0
  0
VERTEX
  8
Screen_Mount
 10
2360.0
 20
1006.08078218115
 30
0.0
 42
0.0
  0
VERTEX
  8
Screen_Mount
 10
2360.0
 20
1003.58078218115
 30
0.0
 42
0.0
  0
VERTEX
  8
Screen_Mount
 10
2355.0
 20
1003.58078218115
 30
0.0
 42
0.0
  0
VERTEX
  8
Screen_Mount
 10
2355.0
 20
995.58078218115
 30
0.0
 42
0.0
  0
VERTEX
  8
Screen_Mount
 10
2360.0
 20
995.58078218115
 30
0.0
 42
0.0
  0
VERTEX
  8
Screen_Mount
 10
2360.0
 20
993.08078218115
 30
0.0
 42
0.0
  0
VERTEX
  8
Screen_Mount
 10
2366.5
 20
993.08078218115
 30
0.0
 42
0.0
  0
VERTEX
  8
Screen_Mount
 10
2366.5
 20
995.58078218115
 30
0.0
 42
0.0
  0
VERTEX
  8
Screen_Mount
 10
2380.0
 20
995.58078218115
 30
0.0
 42
0.0
  0
VERTEX
  8
Screen_Mount
 10
2380.0
 20
989.58078218115
 30
0.0
 42
0.0
  0
VERTEX
  8
Screen_Mount
 10
2390.0
 20
989.580782181149
 30
0.0
 42
0.0
  0
VERTEX
  8
Screen_Mount
 10
2390.0
 20
983.580782181149
 30
0.0
 42
0.0
  0
VERTEX
  8
Screen_Mount
 10
2380.0
 20
983.580782181149
 30
0.0
 42
0.0
  0
VERTEX
  8
Screen_Mount
 10
2380.0
 20
870.580782181149
 30
0.0
 42
0.0
  0
VERTEX
  8
Screen_Mount
 10
2390.0
 20
870.580782181149
 30
0.0
 42
0.0
  0
VERTEX
  8
Screen_Mount
 10
2390.0
 20
864.580782181149
 30
0.0
 42
0.0
  0
VERTEX
  8
Screen_Mount
 10
2380.0
 20
864.58078218115
 30
0.0
 42
0.0
  0
VERTEX
  8
Screen_Mount
 10
2380.0
 20
858.580782181151
 30
0.0
 42
0.0
  0
VERTEX
  8
Screen_Mount
 10
2366.5
 20
858.580782181149
 30
0.0
 42
0.0
  0
VERTEX
  8
Screen_Mount
 10
2366.5
 20
861.08078218115
 30
0.0
 42
0.0
  0
VERTEX
  8
Screen_Mount
 10
2360.0
 20
861.08078218115
 30
0.0
 42
0.0
  0
VERTEX
  8
Screen_Mount
 10
2360.0
 20
858.580782181149
 30
0.0
 42
0.0
  0
VERTEX
  8
Screen_Mount
 10
2355.0
 20
858.58078218115
 30
0.0
 42
0.0
  0
VERTEX
  8
Screen_Mount
 10
2355.0
 20
850.58078218115
 30
0.0
 42
0.0
  0
VERTEX
  8
Screen_Mount
 10
2360.0
 20
850.580782181149
 30
0.0
 42
0.0
  0
VERTEX
  8
Screen_Mount
 10
2360.0
 20
848.08078218115
 30
0.0
 42
0.0
  0
VERTEX
  8
Screen_Mount
 10
2366.5
 20
848.08078218115
 30
0.0
 42
0.0
  0
VERTEX
  8
Screen_Mount
 10
2366.5
 20
850.580782181149
 30
0.0
 42
0.0
  0
VERTEX
  8
Screen_Mount
 10
2380.0
 20
850.58078218115
 30
0.0
 42
0.0
  0
VERTEX
  8
Screen_Mount
 10
2380.0
 20
844.58078218115
 30
0.0
 42
0.0
  0
VERTEX
  8
Screen_Mount
 10
2390.0
 20
844.580782181149
 30
0.0
 42
0.0
  0
VERTEX
  8
Screen_Mount
 10
2390.0
 20
838.580782181148
 30
0.0
 42
0.0
  0
VERTEX
  8
Screen_Mount
 10
2380.0
 20
838.580782181149
 30
0.0
 42
0.0
  0
VERTEX
  8
Screen_Mount
 10
2380.0
 20
747.890675236556
 30
0.0
 42
0.0
  0
VERTEX
  8
Screen_Mount
 10
2390.0
 20
747.890675236556
 30
0.0
 42
0.0
  0
VERTEX
  8
Screen_Mount
 10
2390.0
 20
741.890675236556
 30
0.0
 42
0.0
  0
VERTEX
  8
Screen_Mount
 10
2380.0
 20
741.890675236557
 30
0.0
 42
0.0
  0
VERTEX
  8
Screen_Mount
 10
2380.0
 20
735.890675236558
 30
0.0
 42
0.0
  0
VERTEX
  8
Screen_Mount
 10
2366.5
 20
735.890675236556
 30
0.0
 42
0.0
  0
VERTEX
  8
Screen_Mount
 10
2366.5
 20
738.390675236557
 30
0.0
 42
0.0
  0
VERTEX
  8
Screen_Mount
 10
2360.0
 20
738.390675236557
 30
0.0
 42
0.0
  0
VERTEX
  8
Screen_Mount
 10
2360.0
 20
735.890675236556
 30
0.0
 42
0.0
  0
VERTEX
  8
Screen_Mount
 10
2355.0
 20
735.890675236556
 30
0.0
 42
0.0
  0
VERTEX
  8
Screen_Mount
 10
2355.0
 20
727.890675236557
 30
0.0
 42
0.0
  0
VERTEX
  8
Screen_Mount
 10
2360.0
 20
727.890675236556
 30
0.0
 42
0.0
  0
VERTEX
  8
Screen_Mount
 10
2360.0
 20
725.390675236557
 30
0.0
 42
0.0
  0
VERTEX
  8
Screen_Mount
 10
2366.5
 20
725.390675236557
 30
0.0
 42
0.0
  0
VERTEX
  8
Screen_Mount
 10
2366.5
 20
727.890675236556
 30
0.0
 42
0.0
  0
VERTEX
  8
Screen_Mount
 10
2380.0
 20
727.890675236557
 30
0.0
 42
0.0
  0
VERTEX
  8
Screen_Mount
 10
2380.0
 20
721.890675236557
 30
0.0
 42
0.0
  0
VERTEX
  8
Screen_Mount
 10
2390.0
 20
721.890675236556
 30
0.0
 42
0.0
  0
VERTEX
  8
Screen_Mount
 10
2390.0
 20
715.890675236555
 30
0.0
 42
0.0
  0
VERTEX
  8
Screen_Mount
 10
2380.0
 20
715.890675236556
 30
0.0
 42
0.0
  0
SEQEND
  0
POLYLINE
  8
Side_Panel_Mounts
 66
     1
 10
0.0
 20
0.0
 30
0.0
 70
     1
  0
VERTEX
  8
Side_Panel_Mounts
 10
682.507184441158
 20
61.5092215889996
 42
0.0
  0
VERTEX
  8
Side_Panel_Mounts
 10
709.549379028206
 20
99.2813593095888
 42
0.0
  0
VERTEX
  8
Side_Panel_Mounts
 10
739.432698008918
 20
109.441660235524
 42
0.0
  0
VERTEX
  8
Side_Panel_Mounts
 10
757.009005353933
 20
96.858260088527
 42
0.0
  0
VERTEX
  8
Side_Panel_Mounts
 10
698.796708338186
 20
15.5481839838376
 42
0.0
  0
VERTEX
  8
Side_Panel_Mounts
 10
682.50718444116
 20
27.21033766474
 42
0.0
  0
SEQEND
  0
POLYLINE
  8
Side_Panel_Mounts
 66
     1
 10
0.0
 20
0.0
 30
0.0
 70
     1
  0
VERTEX
  8
Side_Panel_Mounts
 10
749.588488143667
 20
64.1916147003999
 42
0.0
  0
VERTEX
  8
Side_Panel_Mounts
 10
776.630682730715
 20
101.963752420989
 42
0.0
  0
VERTEX
  8
Side_Panel_Mounts
 10
806.514001711427
 20
112.124053346924
 42
0.0
  0
VERTEX
  8
Side_Panel_Mounts
 10
824.090309056442
 20
99.5406531999274
 42
0.0
  0
VERTEX
  8
Side_Panel_Mounts
 10
765.878012040695
 20
18.230577095238
 42
0.0
  0
VERTEX
  8
Side_Panel_Mounts
 10
749.588488143669
 20
29.8927307761404
 42
0.0
  0
SEQEND
  0
POLYLINE
  8
Side_Panel_Mounts
 66
     1
 10
0.0
 20
0.0
 30
0.0
 70
     9
  0
VERTEX
  8
Side_Panel_Mounts
 10
752.422959857537
 20
286.746057397159
 30
0.0
 42
0.0
  0
VERTEX
  8
Side_Panel_Mounts
 10
752.422959857537
 20
301.555591295171
 30
0.0
 42
0.0
  0
VERTEX
  8
Side_Panel_Mounts
 10
772.066299352688
 20
301.555591295171
 30
0.0
 42
0.0
  0
VERTEX
  8
Side_Panel_Mounts
 10
777.340090904648
 20
301.555591295171
 30
0.0
 42
0.0
  0
VERTEX
  8
Side_Panel_Mounts
 10
777.340090904648
 20
311.555591295171
 30
0.0
 42
0.0
  0
VERTEX
  8
Side_Panel_Mounts
 10
803.440010261549
 20
361.045449018498
 30
0.0
 42
0.0
  0
VERTEX
  8
Side_Panel_Mounts
 10
803.440010261549
 20
115.746057397161
 30
0.0
 42
0.0
  0
VERTEX
  8
Side_Panel_Mounts
 10
683.286788760703
 20
115.746057397161
 30
0.0
 42
0.0
  0
VERTEX
  8
Side_Panel_Mounts
 10
717.570665790971
 20
144.733288388268
 30
0.0
 42
0.0
  0
VERTEX
  8
Side_Panel_Mounts
 10
722.152446371921
 20
148.607212330223
 30
0.0
 42
0.0
  0
VERTEX
  8
Side_Panel_Mounts
 10
737.425048308418
 20
161.520292136734
 30
0.0
 42
0.0
  0
VERTEX
  8
Side_Panel_Mounts
 10
742.006828889368
 20
165.394216078684
 30
0.0
 42
0.0
  0
VERTEX
  8
Side_Panel_Mounts
 10
742.422959857537
 20
165.746057397161
 30
0.0
 42
0.0
  0
VERTEX
  8
Side_Panel_Mounts
 10
752.422959857537
 20
165.746057397161
 30
0.0
 42
0.0
  0
VERTEX
  8
Side_Panel_Mounts
 10
752.422959857537
 20
171.74605739716
 30
0.0
 42
0.0
  0
VERTEX
  8
Side_Panel_Mounts
 10
752.422959857537
 20
191.746057397161
 30
0.0
 42
0.0
  0
VERTEX
  8
Side_Panel_Mounts
 10
752.422959857537
 20
197.74605739716
 30
0.0
 42
0.0
  0
VERTEX
  8
Side_Panel_Mounts
 10
752.422959857536
 20
254.74605739716
 30
0.0
 42
0.0
  0
VERTEX
  8
Side_Panel_Mounts
 10
752.422959857537
 20
260.74605739716
 30
0.0
 42
0.0
  0
VERTEX
  8
Side_Panel_Mounts
 10
752.422959857537
 20
280.746057397161
 30
0.0
 42
0.0
  0
SEQEND
  0
POLYLINE
  8
Side_Panel_Mounts
 66
     1
 10
0.0
 20
0.0
 30
0.0
 70
     9
  0
VERTEX
  8
Side_Panel_Mounts
 10
728.740174205164
 20
189.717685671136
 30
0.0
 42
0.0
  0
VERTEX
  8
Side_Panel_Mounts
 10
728.740174205164
 20
174.908151773124
 30
0.0
 42
0.0
  0
VERTEX
  8
Side_Panel_Mounts
 10
709.096834710013
 20
174.908151773125
 30
0.0
 42
0.0
  0
VERTEX
  8
Side_Panel_Mounts
 10
703.823043158052
 20
174.908151773125
 30
0.0
 42
0.0
  0
VERTEX
  8
Side_Panel_Mounts
 10
703.823043158052
 20
164.908151773125
 30
0.0
 42
0.0
  0
VERTEX
  8
Side_Panel_Mounts
 10
677.72312380115
 20
115.418294049799
 30
0.0
 42
0.0
  0
VERTEX
  8
Side_Panel_Mounts
 10
677.723123801156
 20
360.717685671135
 30
0.0
 42
0.0
  0
VERTEX
  8
Side_Panel_Mounts
 10
797.876345302002
 20
360.717685671132
 30
0.0
 42
0.0
  0
VERTEX
  8
Side_Panel_Mounts
 10
763.592468271733
 20
331.730454680026
 30
0.0
 42
0.0
  0
VERTEX
  8
Side_Panel_Mounts
 10
759.010687690783
 20
327.856530738072
 30
0.0
 42
0.0
  0
VERTEX
  8
Side_Panel_Mounts
 10
743.738085754286
 20
314.943450931561
 30
0.0
 42
0.0
  0
VERTEX
  8
Side_Panel_Mounts
 10
739.156305173336
 20
311.069526989611
 30
0.0
 42
0.0
  0
VERTEX
  8
Side_Panel_Mounts
 10
738.740174205167
 20
310.717685671134
 30
0.0
 42
0.0
  0
VERTEX
  8
Side_Panel_Mounts
 10
728.740174205167
 20
310.717685671134
 30
0.0
 42
0.0
  0
VERTEX
  8
Side_Panel_Mounts
 10
728.740174205167
 20
304.717685671135
 30
0.0
 42
0.0
  0
VERTEX
  8
Side_Panel_Mounts
 10
728.740174205166
 20
284.717685671134
 30
0.0
 42
0.0
  0
VERTEX
  8
Side_Panel_Mounts
 10
728.740174205166
 20
278.717685671136
 30
0.0
 42
0.0
  0
VERTEX
  8
Side_Panel_Mounts
 10
728.740174205166
 20
221.717685671136
 30
0.0
 42
0.0
  0
VERTEX
  8
Side_Panel_Mounts
 10
728.740174205165
 20
215.717685671135
 30
0.0
 42
0.0
  0
VERTEX
  8
Side_Panel_Mounts
 10
728.740174205164
 20
195.717685671135
 30
0.0
 42
0.0
  0
SEQEND
  0
POLYLINE
  8
Side_Panel_Mounts
 66
     1
 10
0.0
 20
0.0
 30
0.0
 70
     1
  0
VERTEX
  8
Side_Panel_Mounts
 10
816.618613074828
 20
420.276715305247
 42
0.0
  0
VERTEX
  8
Side_Panel_Mounts
 10
789.837632589581
 20
410.80898519906
 42
0.0
  0
VERTEX
  8
Side_Panel_Mounts
 10
759.901388938856
 20
400.630689934078
 42
0.0
  0
VERTEX
  8
Side_Panel_Mounts
 10
756.682369424107
 20
410.098420040267
 42
0.0
  0
VERTEX
  8
Side_Panel_Mounts
 10
751.001731360393
 20
408.167008331418
 42
0.0
  0
VERTEX
  8
Side_Panel_Mounts
 10
754.220750875143
 20
398.699278225226
 42
0.0
  0
VERTEX
  8
Side_Panel_Mounts
 10
735.285290662762
 20
392.26123919573
 42
0.0
  0
VERTEX
  8
Side_Panel_Mounts
 10
732.066271148012
 20
401.728969301919
 42
0.0
  0
VERTEX
  8
Side_Panel_Mounts
 10
726.385633084296
 20
399.79755759307
 42
0.0
  0
VERTEX
  8
Side_Panel_Mounts
 10
729.604652599047
 20
390.329827486877
 42
0.0
  0
VERTEX
  8
Side_Panel_Mounts
 10
699.668408948331
 20
380.151532221897
 42
0.0
  0
VERTEX
  8
Side_Panel_Mounts
 10
690.011350404082
 20
408.554722540467
 42
0.0
  0
VERTEX
  8
Side_Panel_Mounts
 10
766.618613074829
 20
434.601121280484
 42
0.0
  0
VERTEX
  8
Side_Panel_Mounts
 10
766.618613074816
 20
512.910247050591
 42
0.0
  0
VERTEX
  8
Side_Panel_Mounts
 10
816.618613074836
 20
512.910247050586
 42
0.0
  0
SEQEND
  0
POLYLINE
  8
Side_Panel_Mounts
 66
     1
 10
0.0
 20
0.0
 30
0.0
 70
     1
  0
VERTEX
  8
Side_Panel_Mounts
 10
681.056995223422
 20
520.285647178813
 42
0.0
  0
VERTEX
  8
Side_Panel_Mounts
 10
707.837975708668
 20
529.753377285003
 42
0.0
  0
VERTEX
  8
Side_Panel_Mounts
 10
737.774219359392
 20
539.931672549987
 42
0.0
  0
VERTEX
  8
Side_Panel_Mounts
 10
740.993238874142
 20
530.463942443798
 42
0.0
  0
VERTEX
  8
Side_Panel_Mounts
 10
746.673876937856
 20
532.395354152648
 42
0.0
  0
VERTEX
  8
Side_Panel_Mounts
 10
743.454857423105
 20
541.863084258839
 42
0.0
  0
VERTEX
  8
Side_Panel_Mounts
 10
762.390317635486
 20
548.301123288338
 42
0.0
  0
VERTEX
  8
Side_Panel_Mounts
 10
765.609337150237
 20
538.833393182149
 42
0.0
  0
VERTEX
  8
Side_Panel_Mounts
 10
771.289975213952
 20
540.764804890998
 42
0.0
  0
VERTEX
  8
Side_Panel_Mounts
 10
768.0709556992
 20
550.232534997191
 42
0.0
  0
VERTEX
  8
Side_Panel_Mounts
 10
798.007199349915
 20
560.410830262174
 42
0.0
  0
VERTEX
  8
Side_Panel_Mounts
 10
807.664257894167
 20
532.007639943604
 42
0.0
  0
VERTEX
  8
Side_Panel_Mounts
 10
731.056995223422
 20
505.961241203581
 42
0.0
  0
VERTEX
  8
Side_Panel_Mounts
 10
731.056995223442
 20
427.652115433474
 42
0.0
  0
VERTEX
  8
Side_Panel_Mounts
 10
681.056995223422
 20
427.652115433474
 42
0.0
  0
SEQEND
  0
POLYLINE
  8
Side_Panel_Mounts
 66
     1
 10
0.0
 20
0.0
 30
0.0
 70
     1
  0
VERTEX
  8
Side_Panel_Mounts
 10
786.618613074827
 20
456.593481177919
 42
0.0
  0
VERTEX
  8
Side_Panel_Mounts
 10
786.618613074827
 20
450.593481177919
 42
0.0
  0
VERTEX
  8
Side_Panel_Mounts
 10
796.618613074829
 20
450.593481177918
 42
0.0
  0
VERTEX
  8
Side_Panel_Mounts
 10
796.618613074827
 20
456.593481177918
 42
0.0
  0
SEQEND
  0
POLYLINE
  8
Side_Panel_Mounts
 66
     1
 10
0.0
 20
0.0
 30
0.0
 70
     1
  0
VERTEX
  8
Side_Panel_Mounts
 10
796.61861307483
 20
476.593481177918
 42
0.0
  0
VERTEX
  8
Side_Panel_Mounts
 10
796.618613074831
 20
482.593481177919
 42
0.0
  0
VERTEX
  8
Side_Panel_Mounts
 10
786.61861307483
 20
482.59348117792
 42
0.0
  0
VERTEX
  8
Side_Panel_Mounts
 10
786.618613074829
 20
476.59348117792
 42
0.0
  0
SEQEND
  0
POLYLINE
  8
Side_Panel_Mounts
 66
     1
 10
0.0
 20
0.0
 30
0.0
 70
     1
  0
VERTEX
  8
Side_Panel_Mounts
 10
711.056995223426
 20
483.968881306143
 42
0.0
  0
VERTEX
  8
Side_Panel_Mounts
 10
711.056995223426
 20
489.968881306143
 42
0.0
  0
VERTEX
  8
Side_Panel_Mounts
 10
701.056995223424
 20
489.968881306143
 42
0.0
  0
VERTEX
  8
Side_Panel_Mounts
 10
701.056995223426
 20
483.968881306144
 42
0.0
  0
SEQEND
  0
POLYLINE
  8
Side_Panel_Mounts
 66
     1
 10
0.0
 20
0.0
 30
0.0
 70
     1
  0
VERTEX
  8
Side_Panel_Mounts
 10
701.056995223425
 20
463.968881306143
 42
0.0
  0
VERTEX
  8
Side_Panel_Mounts
 10
701.056995223425
 20
457.968881306143
 42
0.0
  0
VERTEX
  8
Side_Panel_Mounts
 10
711.056995223425
 20
457.968881306142
 42
0.0
  0
VERTEX
  8
Side_Panel_Mounts
 10
711.056995223426
 20
463.968881306143
 42
0.0
  0
SEQEND
  0
POLYLINE
  8
Side_Panel_Mounts
 66
     1
 10
0.0
 20
0.0
 30
0.0
 70
     1
  0
VERTEX
  8
Side_Panel_Mounts
 10
1807.49233593018
 20
998.486821786948
 42
0.0
  0
VERTEX
  8
Side_Panel_Mounts
 10
1807.49233593018
 20
1085.48682178695
 42
0.0
  0
VERTEX
  8
Side_Panel_Mounts
 10
2321.43159023943
 20
1085.48682178695
 42
0.0
  0
VERTEX
  8
Side_Panel_Mounts
 10
2247.87254981936
 20
998.486821786947
 42
0.0
  0
SEQEND
  0
POLYLINE
  8
Side_Panel_Mounts
 66
     1
 10
0.0
 20
0.0
 30
0.0
 70
     1
  0
VERTEX
  8
Side_Panel_Mounts
 10
1809.87433111602
 20
897.634927386458
 42
0.0
  0
VERTEX
  8
Side_Panel_Mounts
 10
1809.87433111602
 20
984.634927386459
 42
0.0
  0
VERTEX
  8
Side_Panel_Mounts
 10
2323.81358542527
 20
984.634927386457
 42
0.0
  0
VERTEX
  8
Side_Panel_Mounts
 10
2250.2545450052
 20
897.634927386457
 42
0.0
  0
SEQEND
  0
POLYLINE
  8
Side_Panel_Mounts
 66
     1
 10
0.0
 20
0.0
 30
0.0
 70
     1
  0
VERTEX
  8
Side_Panel_Mounts
 10
1863.72564827007
 20
790.631744879426
 42
0.0
  0
VERTEX
  8
Side_Panel_Mounts
 10
1863.72564827007
 20
890.631744879426
 42
0.0
  0
VERTEX
  8
Side_Panel_Mounts
 10
1903.72564827007
 20
890.631744879426
 42
0.0
  0
VERTEX
  8
Side_Panel_Mounts
 10
1903.72564827007
 20
765.631744879426
 42
0.0
  0
VERTEX
  8
Side_Panel_Mounts
 10
1863.72564827007
 20
765.631744879426
 42
0.0
  0
SEQEND
  0
POLYLINE
  8
Side_Panel_Mounts
 66
     1
 10
0.0
 20
0.0
 30
0.0
 70
     1
  0
VERTEX
  8
Side_Panel_Mounts
 10
1815.17342745565
 20
790.471105753998
 42
0.0
  0
VERTEX
  8
Side_Panel_Mounts
 10
1815.17342745565
 20
890.471105753998
 42
0.0
  0
VERTEX
  8
Side_Panel_Mounts
 10
1855.17342745565
 20
890.471105753998
 42
0.0
  0
VERTEX
  8
Side_Panel_Mounts
 10
1855.17342745565
 20
765.471105753998
 42
0.0
  0
VERTEX
  8
Side_Panel_Mounts
 10
1815.17342745565
 20
765.471105753998
 42
0.0
  0
SEQEND
  0
POLYLINE
  8
Side_Panel_Mounts
 66
     1
 10
0.0
 20
0.0
 30
0.0
 70
     1
  0
VERTEX
  8
Side_Panel_Mounts
 10
1954.91061679119
 20
765.631744879426
 42
0.0
  0
VERTEX
  8
Side_Panel_Mounts
 10
1914.91061679119
 20
765.631744879426
 42
0.0
  0
VERTEX
  8
Side_Panel_Mounts
 10
1914.91061679119
 20
865.631744879426
 42
0.0
  0
VERTEX
  8
Side_Panel_Mounts
 10
1954.91061679119
 20
865.631744879426
 42
0.0
  0
SEQEND
  0
POLYLINE
  8
Side_Panel_Mounts
 66
     1
 10
0.0
 20
0.0
 30
0.0
 70
     1
  0
VERTEX
  8
Side_Panel_Mounts
 10
2007.51480022987
 20
765.631744879426
 42
0.0
  0
VERTEX
  8
Side_Panel_Mounts
 10
1967.51480022987
 20
765.631744879426
 42
0.0
  0
VERTEX
  8
Side_Panel_Mounts
 10
1967.51480022987
 20
865.631744879426
 42
0.0
  0
VERTEX
  8
Side_Panel_Mounts
 10
2007.51480022987
 20
865.631744879426
 42
0.0
  0
SEQEND
  0
POLYLINE
  8
Side_Panel_Mounts
 66
     1
 10
0.0
 20
0.0
 30
0.0
 70
     1
  0
VERTEX
  8
Side_Panel_Mounts
 10
2060.81806796792
 20
765.631744879426
 42
0.0
  0
VERTEX
  8
Side_Panel_Mounts
 10
2020.81806796792
 20
765.631744879426
 42
0.0
  0
VERTEX
  8
Side_Panel_Mounts
 10
2020.81806796792
 20
865.631744879426
 42
0.0
  0
VERTEX
  8
Side_Panel_Mounts
 10
2060.81806796792
 20
865.631744879426
 42
0.0
  0
SEQEND
  0
POLYLINE
  8
Side_Panel_Mounts
 66
     1
 10
0.0
 20
0.0
 30
0.0
 70
     1
  0
VERTEX
  8
Side_Panel_Mounts
 10
2115.39475497102
 20
765.631744879426
 42
0.0
  0
VERTEX
  8
Side_Panel_Mounts
 10
2075.39475497102
 20
765.631744879426
 42
0.0
  0
VERTEX
  8
Side_Panel_Mounts
 10
2075.39475497102
 20
865.631744879426
 42
0.0
  0
VERTEX
  8
Side_Panel_Mounts
 10
2115.39475497102
 20
865.631744879426
 42
0.0
  0
SEQEND
  0
POLYLINE
  8
Side_Panel_Mounts
 66
     1
 10
0.0
 20
0.0
 30
0.0
 70
     1
  0
VERTEX
  8
Side_Panel_Mounts
 10
2122.27735255599
 20
809.870081844956
 42
0.0
  0
VERTEX
  8
Side_Panel_Mounts
 10
2122.277352556
 20
889.870081844955
 42
0.0
  0
VERTEX
  8
Side_Panel_Mounts
 10
2212.277352556
 20
889.870081844945
 42
0.0
  0
VERTEX
  8
Side_Panel_Mounts
 10
2212.277352556
 20
849.870081844946
 42
0.0
  0
VERTEX
  8
Side_Panel_Mounts
 10
2204.54261245602
 20
849.643978406206
 42
0.0
  0
VERTEX
  8
Side_Panel_Mounts
 10
2196.84982807125
 20
848.808277748804
 42
0.0
  0
VERTEX
  8
Side_Panel_Mounts
 10
2189.24696826974
 20
847.368190939701
 42
0.0
  0
VERTEX
  8
Side_Panel_Mounts
 10
2181.78144118879
 20
845.332697735854
 42
0.0
  0
VERTEX
  8
Side_Panel_Mounts
 10
2174.49979861843
 20
842.714490590346
 42
0.0
  0
VERTEX
  8
Side_Panel_Mounts
 10
2167.4474457246
 20
839.52989550775
 42
0.0
  0
VERTEX
  8
Side_Panel_Mounts
 10
2160.66835792222
 20
835.798770242242
 42
0.0
  0
VERTEX
  8
Side_Panel_Mounts
 10
2154.2048066636
 20
831.544380473262
 42
0.0
  0
VERTEX
  8
Side_Panel_Mounts
 10
2148.09709585195
 20
826.793254730813
 42
0.0
  0
VERTEX
  8
Side_Panel_Mounts
 10
2142.38331052376
 20
821.575018975064
 42
0.0
  0
VERTEX
  8
Side_Panel_Mounts
 10
2137.09907936698
 20
815.922211861695
 42
0.0
  0
VERTEX
  8
Side_Panel_Mounts
 10
2132.27735255599
 20
809.870081844955
 42
0.0
  0
SEQEND
  0
POLYLINE
  8
Side_Panel_Mounts
 66
     1
 10
0.0
 20
0.0
 30
0.0
 70
     9
  0
VERTEX
  8
Side_Panel_Mounts
 10
2212.57643381435
 20
841.707167779006
 30
0.0
 42
0.0
  0
VERTEX
  8
Side_Panel_Mounts
 10
2212.57643381435
 20
761.707167779007
 30
0.0
 42
0.0
  0
VERTEX
  8
Side_Panel_Mounts
 10
2122.57643381435
 20
761.707167779007
 30
0.0
 42
0.0
  0
VERTEX
  8
Side_Panel_Mounts
 10
2122.57643381435
 20
801.707167779007
 30
0.0
 42
0.0
  0
VERTEX
  8
Side_Panel_Mounts
 10
2130.31117391433
 20
801.933271217747
 30
0.0
 42
0.0
  0
VERTEX
  8
Side_Panel_Mounts
 10
2138.00395829909
 20
802.76897187515
 30
0.0
 42
0.0
  0
VERTEX
  8
Side_Panel_Mounts
 10
2145.60681810061
 20
804.209058684254
 30
0.0
 42
0.0
  0
VERTEX
  8
Side_Panel_Mounts
 10
2153.07234518156
 20
806.244551888101
 30
0.0
 42
0.0
  0
VERTEX
  8
Side_Panel_Mounts
 10
2160.35398775191
 20
808.86275903361
 30
0.0
 42
0.0
  0
VERTEX
  8
Side_Panel_Mounts
 10
2167.40634064575
 20
812.047354116208
 30
0.0
 42
0.0
  0
VERTEX
  8
Side_Panel_Mounts
 10
2174.18542844813
 20
815.778479381716
 30
0.0
 42
0.0
  0
VERTEX
  8
Side_Panel_Mounts
 10
2180.64897970675
 20
820.032869150697
 30
0.0
 42
0.0
  0
VERTEX
  8
Side_Panel_Mounts
 10
2186.75669051839
 20
824.783994893146
 30
0.0
 42
0.0
  0
VERTEX
  8
Side_Panel_Mounts
 10
2192.47047584659
 20
830.002230648896
 30
0.0
 42
0.0
  0
VERTEX
  8
Side_Panel_Mounts
 10
2197.75470700337
 20
835.655037762266
 30
0.0
 42
0.0
  0
VERTEX
  8
Side_Panel_Mounts
 10
2202.57643381435
 20
841.707167779006
 30
0.0
 42
0.0
  0
SEQEND
  0
POLYLINE
  8
Side_Panel_Mounts
 66
     1
 10
0.0
 20
0.0
 30
0.0
 70
     1
  0
VERTEX
  8
Side_Panel_Mounts
 10
2221.54044366227
 20
809.721139012938
 42
0.0
  0
VERTEX
  8
Side_Panel_Mounts
 10
2221.54044366228
 20
889.721139012937
 42
0.0
  0
VERTEX
  8
Side_Panel_Mounts
 10
2311.54044366228
 20
889.721139012927
 42
0.0
  0
VERTEX
  8
Side_Panel_Mounts
 10
2311.54044366227
 20
849.721139012928
 42
0.0
  0
VERTEX
  8
Side_Panel_Mounts
 10
2303.80570356229
 20
849.495035574188
 42
0.0
  0
VERTEX
  8
Side_Panel_Mounts
 10
2296.11291917753
 20
848.659334916786
 42
0.0
  0
VERTEX
  8
Side_Panel_Mounts
 10
2288.51005937601
 20
847.219248107683
 42
0.0
  0
VERTEX
  8
Side_Panel_Mounts
 10
2281.04453229506
 20
845.183754903836
 42
0.0
  0
VERTEX
  8
Side_Panel_Mounts
 10
2273.76288972471
 20
842.565547758328
 42
0.0
  0
VERTEX
  8
Side_Panel_Mounts
 10
2266.71053683087
 20
839.380952675732
 42
0.0
  0
VERTEX
  8
Side_Panel_Mounts
 10
2259.93144902849
 20
835.649827410224
 42
0.0
  0
VERTEX
  8
Side_Panel_Mounts
 10
2253.46789776987
 20
831.395437641244
 42
0.0
  0
VERTEX
  8
Side_Panel_Mounts
 10
2247.36018695822
 20
826.644311898795
 42
0.0
  0
VERTEX
  8
Side_Panel_Mounts
 10
2241.64640163003
 20
821.426076143046
 42
0.0
  0
VERTEX
  8
Side_Panel_Mounts
 10
2236.36217047325
 20
815.773269029677
 42
0.0
  0
VERTEX
  8
Side_Panel_Mounts
 10
2231.54044366227
 20
809.721139012937
 42
0.0
  0
SEQEND
  0
POLYLINE
  8
Side_Panel_Mounts
 66
     1
 10
0.0
 20
0.0
 30
0.0
 70
     9
  0
VERTEX
  8
Side_Panel_Mounts
 10
2311.83952492062
 20
841.558224946988
 30
0.0
 42
0.0
  0
VERTEX
  8
Side_Panel_Mounts
 10
2311.83952492062
 20
761.558224946989
 30
0.0
 42
0.0
  0
VERTEX
  8
Side_Panel_Mounts
 10
2221.83952492062
 20
761.558224946989
 30
0.0
 42
0.0
  0
VERTEX
  8
Side_Panel_Mounts
 10
2221.83952492062
 20
801.558224946989
 30
0.0
 42
0.0
  0
VERTEX
  8
Side_Panel_Mounts
 10
2229.5742650206
 20
801.784328385729
 30
0.0
 42
0.0
  0
VERTEX
  8
Side_Panel_Mounts
 10
2237.26704940537
 20
802.620029043132
 30
0.0
 42
0.0
  0
VERTEX
  8
Side_Panel_Mounts
 10
2244.86990920688
 20
804.060115852236
 30
0.0
 42
0.0
  0
VERTEX
  8
Side_Panel_Mounts
 10
2252.33543628783
 20
806.095609056083
 30
0.0
 42
0.0
  0
VERTEX
  8
Side_Panel_Mounts
 10
2259.61707885819
 20
808.713816201592
 30
0.0
 42
0.0
  0
VERTEX
  8
Side_Panel_Mounts
 10
2266.66943175202
 20
811.898411284189
 30
0.0
 42
0.0
  0
VERTEX
  8
Side_Panel_Mounts
 10
2273.4485195544
 20
815.629536549698
 30
0.0
 42
0.0
  0
VERTEX
  8
Side_Panel_Mounts
 10
2279.91207081302
 20
819.883926318679
 30
0.0
 42
0.0
  0
VERTEX
  8
Side_Panel_Mounts
 10
2286.01978162467
 20
824.635052061128
 30
0.0
 42
0.0
  0
VERTEX
  8
Side_Panel_Mounts
 10
2291.73356695286
 20
829.853287816878
 30
0.0
 42
0.0
  0
VERTEX
  8
Side_Panel_Mounts
 10
2297.01779810964
 20
835.506094930248
 30
0.0
 42
0.0
  0
VERTEX
  8
Side_Panel_Mounts
 10
2301.83952492062
 20
841.558224946988
 30
0.0
 42
0.0
  0
SEQEND
  0
CIRCLE
  8
Side_Panel_Mounts
 10
706.056995223427
 20
473.968881306143
 30
0.0
 40
4.0
  0
CIRCLE
  8
Side_Panel_Mounts
 10
791.618613074828
 20
466.593481177919
 30
0.0
 40
4.0
  0
CIRCLE
  8
Side_Panel_Mounts
 10
697.723123801156
 20
340.717685671135
 30
0.0
 40
4.0
  0
CIRCLE
  8
Side_Panel_Mounts
 10
747.469625145044
 20
340.717685671134
 30
0.0
 40
4.0
  0
CIRCLE
  8
Side_Panel_Mounts
 10
783.440010261549
 20
280.035844684313
 30
0.0
 40
4.0
  0
CIRCLE
  8
Side_Panel_Mounts
 10
697.723123801152
 20
196.427898383983
 30
0.0
 40
4.0
  0
CIRCLE
  8
Side_Panel_Mounts
 10
733.69350891766
 20
135.746057397161
 30
0.0
 40
4.0
  0
CIRCLE
  8
Side_Panel_Mounts
 10
783.440010261549
 20
135.746057397161
 30
0.0
 40
4.0
  0
CIRCLE
  8
Side_Panel_Mounts
 10
785.144211971099
 20
96.676823278479
 30
0.0
 40
4.0
  0
CIRCLE
  8
Side_Panel_Mounts
 10
718.06290826859
 20
93.9944301670786
 30
0.0
 40
4.0
  0
CIRCLE
  8
Side_Panel_Mounts
 10
705.218774981654
 20
41.6969327115845
 30
0.0
 40
4.0
  0
CIRCLE
  8
Side_Panel_Mounts
 10
772.300078684163
 20
44.3793258229848
 30
0.0
 40
4.0
  0
CIRCLE
  8
Side_Panel_Mounts
 10
1867.49233593018
 20
1041.98682178695
 30
0.0
 40
3.507688824854
  0
CIRCLE
  8
Side_Panel_Mounts
 10
1869.87433111602
 20
941.134927386459
 30
0.0
 40
4.127874651665
  0
CIRCLE
  8
Side_Panel_Mounts
 10
2027.68244287477
 20
1041.98682178695
 30
0.0
 40
3.317583298798
  0
CIRCLE
  8
Side_Panel_Mounts
 10
2030.06443806061
 20
941.134927386458
 30
0.0
 40
4.0295159021247
  0
CIRCLE
  8
Side_Panel_Mounts
 10
2224.77259453244
 20
1041.98682178695
 30
0.0
 40
4.3410568098511
  0
CIRCLE
  8
Side_Panel_Mounts
 10
2227.15458971828
 20
941.134927386458
 30
0.0
 40
4.0
  0
CIRCLE
  8
Side_Panel_Mounts
 10
1825.17342745565
 20
852.971105753998
 30
0.0
 40
4.0
  0
CIRCLE
  8
Side_Panel_Mounts
 10
1845.17342745565
 20
802.971105753998
 30
0.0
 40
4.0
  0
CIRCLE
  8
Side_Panel_Mounts
 10
1873.72564827007
 20
853.131744879426
 30
0.0
 40
4.0
  0
CIRCLE
  8
Side_Panel_Mounts
 10
1893.72564827007
 20
803.131744879426
 30
0.0
 40
4.0
  0
CIRCLE
  8
Side_Panel_Mounts
 10
1924.91061679119
 20
840.631744879426
 30
0.0
 40
4.0
  0
CIRCLE
  8
Side_Panel_Mounts
 10
1944.91061679119
 20
790.631744879426
 30
0.0
 40
4.0
  0
CIRCLE
  8
Side_Panel_Mounts
 10
1977.51480022987
 20
840.631744879426
 30
0.0
 40
4.0
  0
CIRCLE
  8
Side_Panel_Mounts
 10
1997.51480022987
 20
790.631744879426
 30
0.0
 40
4.0
  0
CIRCLE
  8
Side_Panel_Mounts
 10
2030.81806796792
 20
840.631744879426
 30
0.0
 40
4.0
  0
CIRCLE
  8
Side_Panel_Mounts
 10
2050.81806796792
 20
790.631744879426
 30
0.0
 40
4.0
  0
CIRCLE
  8
Side_Panel_Mounts
 10
2085.39475497102
 20
840.631744879426
 30
0.0
 40
4.0
  0
CIRCLE
  8
Side_Panel_Mounts
 10
2105.39475497102
 20
790.631744879426
 30
0.0
 40
4.0
  0
CIRCLE
  8
Side_Panel_Mounts
 10
2142.71615153947
 20
781.707167779007
 30
0.0
 40
4.0
  0
CIRCLE
  8
Side_Panel_Mounts
 10
2138.04138555162
 20
847.270081844954
 30
0.0
 40
4.0
  0
CIRCLE
  8
Side_Panel_Mounts
 10
2192.13763483088
 20
869.870081844948
 30
0.0
 40
4.0
  0
CIRCLE
  8
Side_Panel_Mounts
 10
2196.81240081873
 20
804.307167779006
 30
0.0
 40
4.0
  0
CIRCLE
  8
Side_Panel_Mounts
 10
2237.30447665789
 20
847.121139012937
 30
0.0
 40
4.0
  0
CIRCLE
  8
Side_Panel_Mounts
 10
2241.97924264574
 20
781.558224946989
 30
0.0
 40
4.0
  0
CIRCLE
  8
Side_Panel_Mounts
 10
2296.075491925
 20
804.158224946988
 30
0.0
 40
4.0
  0
CIRCLE
  8
Side_Panel_Mounts
 10
2291.40072593716
 20
869.72113901293
 30
0.0
 40
4.0
  0
POLYLINE
  8
Controller
 66
     1
 10
0.0
 20
0.0
 30
0.0
 70
     1
  0
VERTEX
  8
Controller
 10
658.022212247496
 20
266.284769127165
 42
0.0
  0
VERTEX
  8
Controller
 10
658.022212247494
 20
232.316765872667
 42
0.0
  0
VERTEX
  8
Controller
 10
668.022212247495
 20
232.316765872667
 42
0.0
  0
VERTEX
  8
Controller
 10
668.022212247492
 20
226.316765872666
 42
0.0
  0
VERTEX
  8
Controller
 10
658.022212247495
 20
226.316765872667
 42
0.0
  0
VERTEX
  8
Controller
 10
658.022212247496
 20
220.316765872669
 42
0.0
  0
VERTEX
  8
Controller
 10
644.522212247496
 20
220.316765872666
 42
0.0
  0
VERTEX
  8
Controller
 10
644.522212247495
 20
222.816765872667
 42
0.0
  0
VERTEX
  8
Controller
 10
638.022212247498
 20
222.816765872669
 42
0.0
  0
VERTEX
  8
Controller
 10
638.022212247496
 20
220.316765872666
 42
0.0
  0
VERTEX
  8
Controller
 10
633.022212247496
 20
220.316765872666
 42
0.0
  0
VERTEX
  8
Controller
 10
633.022212247496
 20
212.316765872668
 42
0.0
  0
VERTEX
  8
Controller
 10
638.022212247494
 20
212.316765872666
 42
0.0
  0
VERTEX
  8
Controller
 10
638.022212247496
 20
209.816765872668
 42
0.0
  0
VERTEX
  8
Controller
 10
644.522212247495
 20
209.816765872667
 42
0.0
  0
VERTEX
  8
Controller
 10
644.522212247494
 20
212.316765872666
 42
0.0
  0
VERTEX
  8
Controller
 10
658.022212247495
 20
212.316765872666
 42
0.0
  0
VERTEX
  8
Controller
 10
658.022212247496
 20
206.316765872664
 42
0.0
  0
VERTEX
  8
Controller
 10
668.022212247494
 20
206.316765872664
 42
0.0
  0
VERTEX
  8
Controller
 10
668.022212247493
 20
200.316765872664
 42
0.0
  0
VERTEX
  8
Controller
 10
658.022212247495
 20
200.316765872665
 42
0.0
  0
VERTEX
  8
Controller
 10
658.022212247494
 20
169.999999999999
 42
0.0
  0
VERTEX
  8
Controller
 10
28.0222122474921
 20
170.000000000003
 42
0.0
  0
VERTEX
  8
Controller
 10
28.0222122474929
 20
200.316765872673
 42
0.0
  0
VERTEX
  8
Controller
 10
18.0222122474933
 20
200.316765872671
 42
0.0
  0
VERTEX
  8
Controller
 10
18.0222122474951
 20
206.316765872676
 42
0.0
  0
VERTEX
  8
Controller
 10
28.0222122474939
 20
206.316765872674
 42
0.0
  0
VERTEX
  8
Controller
 10
28.0222122474939
 20
212.316765872675
 42
0.0
  0
VERTEX
  8
Controller
 10
41.5222122474952
 20
212.316765872673
 42
0.0
  0
VERTEX
  8
Controller
 10
41.5222122474948
 20
209.816765872672
 42
0.0
  0
VERTEX
  8
Controller
 10
48.0222122474962
 20
209.816765872672
 42
0.0
  0
VERTEX
  8
Controller
 10
48.0222122474937
 20
212.316765872672
 42
0.0
  0
VERTEX
  8
Controller
 10
53.0222122474929
 20
212.316765872671
 42
0.0
  0
VERTEX
  8
Controller
 10
53.0222122474933
 20
220.31676587267
 42
0.0
  0
VERTEX
  8
Controller
 10
48.0222122474934
 20
220.316765872672
 42
0.0
  0
VERTEX
  8
Controller
 10
48.0222122474934
 20
222.816765872672
 42
0.0
  0
VERTEX
  8
Controller
 10
41.5222122474966
 20
222.816765872672
 42
0.0
  0
VERTEX
  8
Controller
 10
41.5222122474941
 20
220.316765872672
 42
0.0
  0
VERTEX
  8
Controller
 10
28.0222122474936
 20
220.316765872675
 42
0.0
  0
VERTEX
  8
Controller
 10
28.0222122474939
 20
226.316765872673
 42
0.0
  0
VERTEX
  8
Controller
 10
18.0222122474966
 20
226.316765872674
 42
0.0
  0
VERTEX
  8
Controller
 10
18.0222122474937
 20
232.316765872674
 42
0.0
  0
VERTEX
  8
Controller
 10
28.0222122474943
 20
232.316765872674
 42
0.0
  0
VERTEX
  8
Controller
 10
28.0222122474939
 20
266.284769127173
 42
0.0
  0
VERTEX
  8
Controller
 10
28.0222122474929
 20
300.25277238166
 42
0.0
  0
VERTEX
  8
Controller
 10
18.0222122474955
 20
300.252772381662
 42
0.0
  0
VERTEX
  8
Controller
 10
18.0222122474951
 20
306.252772381661
 42
0.0
  0
VERTEX
  8
Controller
 10
28.022212247491
 20
306.252772381659
 42
0.0
  0
VERTEX
  8
Controller
 10
28.0222122474921
 20
312.252772381672
 42
0.0
  0
VERTEX
  8
Controller
 10
41.5222122474923
 20
312.252772381669
 42
0.0
  0
VERTEX
  8
Controller
 10
41.5222122474938
 20
309.75277238167
 42
0.0
  0
VERTEX
  8
Controller
 10
48.0222122474912
 20
309.75277238167
 42
0.0
  0
VERTEX
  8
Controller
 10
48.0222122474926
 20
312.252772381669
 42
0.0
  0
VERTEX
  8
Controller
 10
53.0222122474911
 20
312.25277238167
 42
0.0
  0
VERTEX
  8
Controller
 10
53.0222122474937
 20
320.25277238167
 42
0.0
  0
VERTEX
  8
Controller
 10
48.0222122474916
 20
320.252772381668
 42
0.0
  0
VERTEX
  8
Controller
 10
48.022212247493
 20
322.75277238167
 42
0.0
  0
VERTEX
  8
Controller
 10
41.5222122474938
 20
322.752772381671
 42
0.0
  0
VERTEX
  8
Controller
 10
41.5222122474952
 20
320.252772381671
 42
0.0
  0
VERTEX
  8
Controller
 10
28.0222122474936
 20
320.252772381673
 42
0.0
  0
VERTEX
  8
Controller
 10
28.0222122474939
 20
326.252772381661
 42
0.0
  0
VERTEX
  8
Controller
 10
18.0222122474933
 20
326.252772381659
 42
0.0
  0
VERTEX
  8
Controller
 10
18.0222122474951
 20
332.252772381661
 42
0.0
  0
VERTEX
  8
Controller
 10
28.022212247495
 20
332.252772381662
 42
0.0
  0
VERTEX
  8
Controller
 10
28.0222122474932
 20
363.872013017952
 42
0.0
  0
VERTEX
  8
Controller
 10
658.022212247494
 20
363.872013017945
 42
0.0
  0
VERTEX
  8
Controller
 10
658.022212247494
 20
332.252772381665
 42
0.0
  0
VERTEX
  8
Controller
 10
668.022212247496
 20
332.252772381663
 42
0.0
  0
VERTEX
  8
Controller
 10
668.022212247493
 20
326.252772381662
 42
0.0
  0
VERTEX
  8
Controller
 10
658.022212247494
 20
326.252772381665
 42
0.0
  0
VERTEX
  8
Controller
 10
658.022212247495
 20
320.252772381666
 42
0.0
  0
VERTEX
  8
Controller
 10
644.522212247495
 20
320.252772381663
 42
0.0
  0
VERTEX
  8
Controller
 10
644.522212247495
 20
322.752772381663
 42
0.0
  0
VERTEX
  8
Controller
 10
638.022212247496
 20
322.752772381664
 42
0.0
  0
VERTEX
  8
Controller
 10
638.022212247495
 20
320.252772381664
 42
0.0
  0
VERTEX
  8
Controller
 10
633.022212247495
 20
320.252772381662
 42
0.0
  0
VERTEX
  8
Controller
 10
633.022212247495
 20
312.252772381662
 42
0.0
  0
VERTEX
  8
Controller
 10
638.022212247495
 20
312.252772381662
 42
0.0
  0
VERTEX
  8
Controller
 10
638.022212247496
 20
309.752772381664
 42
0.0
  0
VERTEX
  8
Controller
 10
644.522212247494
 20
309.752772381664
 42
0.0
  0
VERTEX
  8
Controller
 10
644.522212247495
 20
312.252772381663
 42
0.0
  0
VERTEX
  8
Controller
 10
658.022212247495
 20
312.252772381663
 42
0.0
  0
VERTEX
  8
Controller
 10
658.022212247494
 20
306.252772381662
 42
0.0
  0
VERTEX
  8
Controller
 10
668.022212247493
 20
306.252772381663
 42
0.0
  0
VERTEX
  8
Controller
 10
668.022212247493
 20
300.252772381663
 42
0.0
  0
VERTEX
  8
Controller
 10
658.022212247494
 20
300.252772381662
 42
0.0
  0
SEQEND
  0
CIRCLE
  8
Controller
 10
124.83566104175
 20
317.168416190891
 30
0.0
 40
14.0
  0
CIRCLE
  8
Controller
 10
167.835661041749
 20
317.16841619089
 30
0.0
 40
14.0
  0
CIRCLE
  8
Controller
 10
299.001951227599
 20
314.914007295986
 30
0.0
 40
16.5
  0
CIRCLE
  8
Controller
 10
257.001951227598
 20
337.414007295984
 30
0.0
 40
2.5
  0
CIRCLE
  8
Controller
 10
257.001951227597
 20
292.414007295988
 30
0.0
 40
2.5
  0
CIRCLE
  8
Controller
 10
341.001951227596
 20
292.414007295986
 30
0.0
 40
2.5
  0
CIRCLE
  8
Controller
 10
341.001951227597
 20
337.414007295986
 30
0.0
 40
2.5
  0
CIRCLE
  8
Controller
 10
465.580553098735
 20
334.208102251944
 30
0.0
 40
14.0
  0
CIRCLE
  8
Controller
 10
487.050578024072
 20
296.721443144443
 30
0.0
 40
14.0
  0
CIRCLE
  8
Controller
 10
508.550578024076
 20
334.208102251943
 30
0.0
 40
14.0
  0
CIRCLE
  8
Controller
 10
551.520602949414
 20
334.208102251942
 30
0.0
 40
14.0
  0
CIRCLE
  8
Controller
 10
530.020602949413
 20
296.72144314444
 30
0.0
 40
14.0
  0
CIRCLE
  8
Controller
 10
572.990627874754
 20
296.72144314444
 30
0.0
 40
14.0
  0
ENDSEC
  0
EOF
